<?xml version="1.0" encoding="UTF-8" standalone="no"?>
<!DOCTYPE svg PUBLIC "-//W3C//DTD SVG 1.1//EN"
 "http://www.w3.org/Graphics/SVG/1.1/DTD/svg11.dtd">
<!-- Generated by graphviz version 10.0.1 (20240210.2158)
 -->
<!-- Title: AutoClock.h Pages: 1 -->
<svg width="246pt" height="140pt"
 viewBox="0.00 0.00 245.62 140.00" xmlns="http://www.w3.org/2000/svg" xmlns:xlink="http://www.w3.org/1999/xlink">
<g id="graph0" class="graph" transform="scale(1 1) rotate(0) translate(4 136)">
<title>AutoClock.h</title>
<!-- Node1 -->
<g id="Node000001" class="node">
<title>Node1</title>
<g id="a_Node000001"><a xlink:title="Déclaration de la classe CAutoClock.">
<polygon fill="#999999" stroke="#666666" points="173.5,-132 104.25,-132 104.25,-112 173.5,-112 173.5,-132"/>
<text text-anchor="middle" x="138.88" y="-118.5" font-family="Helvetica,sans-Serif" font-size="10.00">AutoClock.h</text>
</a>
</g>
</g>
<!-- Node2 -->
<g id="Node000002" class="node">
<title>Node2</title>
<g id="a_Node000002"><a xlink:href="_auto_clock_8cpp.html" target="_top" xlink:title="Définition de la classe CAutoClock.">
<polygon fill="white" stroke="#666666" points="79.75,-76 0,-76 0,-56 79.75,-56 79.75,-76"/>
<text text-anchor="middle" x="39.88" y="-62.5" font-family="Helvetica,sans-Serif" font-size="10.00">AutoClock.cpp</text>
</a>
</g>
</g>
<!-- Node1&#45;&gt;Node2 -->
<g id="edge1_Node000001_Node000002" class="edge">
<title>Node1&#45;&gt;Node2</title>
<g id="a_edge1_Node000001_Node000002"><a xlink:title=" ">
<path fill="none" stroke="#63b8ff" d="M112.01,-106.35C94.59,-96.84 72.39,-84.74 57.25,-76.48"/>
<polygon fill="#63b8ff" stroke="#63b8ff" points="109.85,-109.15 120.3,-110.87 113.2,-103.01 109.85,-109.15"/>
</a>
</g>
</g>
<!-- Node3 -->
<g id="Node000003" class="node">
<title>Node3</title>
<g id="a_Node000003"><a xlink:href="_t_p_8h.html" target="_top" xlink:title="Déclaration de la classe CTP.">
<polygon fill="white" stroke="#666666" points="134,-76 97.75,-76 97.75,-56 134,-56 134,-76"/>
<text text-anchor="middle" x="115.88" y="-62.5" font-family="Helvetica,sans-Serif" font-size="10.00">TP.h</text>
</a>
</g>
</g>
<!-- Node1&#45;&gt;Node3 -->
<g id="edge2_Node000001_Node000003" class="edge">
<title>Node1&#45;&gt;Node3</title>
<g id="a_edge2_Node000001_Node000003"><a xlink:title=" ">
<path fill="none" stroke="#63b8ff" d="M130.36,-101C126.75,-92.54 122.73,-83.08 119.84,-76.3"/>
<polygon fill="#63b8ff" stroke="#63b8ff" points="127.14,-102.37 134.28,-110.2 133.58,-99.63 127.14,-102.37"/>
</a>
</g>
</g>
<!-- Node5 -->
<g id="Node000005" class="node">
<title>Node5</title>
<g id="a_Node000005"><a xlink:href="prog_8cpp.html" target="_top" xlink:title="Programme principal.">
<polygon fill="white" stroke="#666666" points="188.62,-20 135.12,-20 135.12,0 188.62,0 188.62,-20"/>
<text text-anchor="middle" x="161.88" y="-6.5" font-family="Helvetica,sans-Serif" font-size="10.00">prog.cpp</text>
</a>
</g>
</g>
<!-- Node1&#45;&gt;Node5 -->
<g id="edge6_Node000001_Node000005" class="edge">
<title>Node1&#45;&gt;Node5</title>
<g id="a_edge6_Node000001_Node000005"><a xlink:title=" ">
<path fill="none" stroke="#63b8ff" d="M143.13,-100.64C148.13,-76.72 156.22,-38.03 159.92,-20.35"/>
<polygon fill="#63b8ff" stroke="#63b8ff" points="139.77,-99.64 141.15,-110.14 146.62,-101.07 139.77,-99.64"/>
</a>
</g>
</g>
<!-- Node6 -->
<g id="Node000006" class="node">
<title>Node6</title>
<g id="a_Node000006"><a xlink:href="gui_8cpp.html" target="_top" xlink:title="Définition de la classe CGUI.">
<polygon fill="white" stroke="#666666" points="237.62,-76 190.12,-76 190.12,-56 237.62,-56 237.62,-76"/>
<text text-anchor="middle" x="213.88" y="-62.5" font-family="Helvetica,sans-Serif" font-size="10.00">gui.cpp</text>
</a>
</g>
</g>
<!-- Node1&#45;&gt;Node6 -->
<g id="edge5_Node000001_Node000006" class="edge">
<title>Node1&#45;&gt;Node6</title>
<g id="a_edge5_Node000001_Node000006"><a xlink:title=" ">
<path fill="none" stroke="#63b8ff" d="M161.1,-105C173.99,-95.72 189.78,-84.35 200.71,-76.48"/>
<polygon fill="#63b8ff" stroke="#63b8ff" points="159.24,-102.03 153.17,-110.71 163.33,-107.71 159.24,-102.03"/>
</a>
</g>
</g>
<!-- Node4 -->
<g id="Node000004" class="node">
<title>Node4</title>
<g id="a_Node000004"><a xlink:href="_t_p_8cpp.html" target="_top" xlink:title="Définition de la classe CTP.">
<polygon fill="white" stroke="#666666" points="117.25,-20 70.5,-20 70.5,0 117.25,0 117.25,-20"/>
<text text-anchor="middle" x="93.88" y="-6.5" font-family="Helvetica,sans-Serif" font-size="10.00">TP.cpp</text>
</a>
</g>
</g>
<!-- Node3&#45;&gt;Node4 -->
<g id="edge3_Node000003_Node000004" class="edge">
<title>Node3&#45;&gt;Node4</title>
<g id="a_edge3_Node000003_Node000004"><a xlink:title=" ">
<path fill="none" stroke="#63b8ff" d="M107.73,-45C104.28,-36.54 100.43,-27.08 97.66,-20.3"/>
<polygon fill="#63b8ff" stroke="#63b8ff" points="104.46,-46.25 111.47,-54.19 110.94,-43.61 104.46,-46.25"/>
</a>
</g>
</g>
<!-- Node3&#45;&gt;Node5 -->
<g id="edge4_Node000003_Node000005" class="edge">
<title>Node3&#45;&gt;Node5</title>
<g id="a_edge4_Node000003_Node000005"><a xlink:title=" ">
<path fill="none" stroke="#63b8ff" d="M131.21,-47C138.83,-38.06 147.71,-27.62 153.95,-20.3"/>
<polygon fill="#63b8ff" stroke="#63b8ff" points="128.69,-44.56 124.87,-54.44 134.02,-49.1 128.69,-44.56"/>
</a>
</g>
</g>
</g>
</svg>
