<?xml version="1.0" encoding="UTF-8" standalone="no"?>
<!DOCTYPE svg PUBLIC "-//W3C//DTD SVG 1.1//EN"
 "http://www.w3.org/Graphics/SVG/1.1/DTD/svg11.dtd">
<!-- Generated by graphviz version 10.0.1 (20240210.2158)
 -->
<!-- Title: Clock.h Pages: 1 -->
<svg width="496pt" height="196pt"
 viewBox="0.00 0.00 496.00 196.00" xmlns="http://www.w3.org/2000/svg" xmlns:xlink="http://www.w3.org/1999/xlink">

<svg id="main" version="1.1" xmlns="http://www.w3.org/2000/svg" xmlns:xlink="http://www.w3.org/1999/xlink" xml:space="preserve" onload="init(evt)">
<style type="text/css"><![CDATA[
.node, .edge {opacity: 0.7;}
.node.selected, .edge.selected {opacity: 1;}
.edge:hover path { stroke: red; }
.edge:hover polygon { stroke: red; fill: red; }
]]></style>
<script type="application/ecmascript" xlink:href="svg.min.js"/>
<svg id="graph" class="graph">
<g id="graph0" class="graph" transform="scale(1 1) rotate(0) translate(4 192)">
<title>Clock.h</title>
<!-- Node1 -->
<g id="Node000001" class="node">
<title>Node1</title>
<g id="a_Node000001"><a xlink:title="Déclaration de la classe CClock.">
<polygon fill="#999999" stroke="#666666" points="361.38,-188 312.38,-188 312.38,-168 361.38,-168 361.38,-188"/>
<text text-anchor="middle" x="336.88" y="-174.5" font-family="Helvetica,sans-Serif" font-size="10.00">Clock.h</text>
</a>
</g>
</g>
<!-- Node2 -->
<g id="Node000002" class="node">
<title>Node2</title>
<g id="a_Node000002"><a xlink:href="_auto_clock_8h.html" target="_top" xlink:title="Déclaration de la classe CAutoClock.">
<polygon fill="white" stroke="#666666" points="194.5,-132 125.25,-132 125.25,-112 194.5,-112 194.5,-132"/>
<text text-anchor="middle" x="159.88" y="-118.5" font-family="Helvetica,sans-Serif" font-size="10.00">AutoClock.h</text>
</a>
</g>
</g>
<!-- Node1&#45;&gt;Node2 -->
<g id="edge1_Node000001_Node000002" class="edge">
<title>Node1&#45;&gt;Node2</title>
<g id="a_edge1_Node000001_Node000002"><a xlink:title=" ">
<path fill="none" stroke="#63b8ff" d="M301.13,-166.1C268.83,-156.24 221.77,-141.88 190.99,-132.49"/>
<polygon fill="#63b8ff" stroke="#63b8ff" points="299.86,-169.37 310.44,-168.94 301.9,-162.67 299.86,-169.37"/>
</a>
</g>
</g>
<!-- Node8 -->
<g id="Node000008" class="node">
<title>Node8</title>
<g id="a_Node000008"><a xlink:href="_clock_8cpp.html" target="_top" xlink:title="Définition de la classe CClock.">
<polygon fill="white" stroke="#666666" points="474.62,-132 415.12,-132 415.12,-112 474.62,-112 474.62,-132"/>
<text text-anchor="middle" x="444.88" y="-118.5" font-family="Helvetica,sans-Serif" font-size="10.00">Clock.cpp</text>
</a>
</g>
</g>
<!-- Node1&#45;&gt;Node8 -->
<g id="edge8_Node000001_Node000008" class="edge">
<title>Node1&#45;&gt;Node8</title>
<g id="a_edge8_Node000001_Node000008"><a xlink:title=" ">
<path fill="none" stroke="#63b8ff" d="M365.91,-162.48C384.96,-152.96 409.32,-140.78 425.92,-132.48"/>
<polygon fill="#63b8ff" stroke="#63b8ff" points="364.42,-159.31 357.04,-166.92 367.55,-165.58 364.42,-159.31"/>
</a>
</g>
</g>
<!-- Node9 -->
<g id="Node000009" class="node">
<title>Node9</title>
<g id="a_Node000009"><a xlink:href="_mech_clock_8h.html" target="_top" xlink:title="Déclaration de la classe CMechClock.">
<polygon fill="white" stroke="#666666" points="335.38,-132 262.38,-132 262.38,-112 335.38,-112 335.38,-132"/>
<text text-anchor="middle" x="298.88" y="-118.5" font-family="Helvetica,sans-Serif" font-size="10.00">MechClock.h</text>
</a>
</g>
</g>
<!-- Node1&#45;&gt;Node9 -->
<g id="edge9_Node000001_Node000009" class="edge">
<title>Node1&#45;&gt;Node9</title>
<g id="a_edge9_Node000001_Node000009"><a xlink:title=" ">
<path fill="none" stroke="#63b8ff" d="M323.81,-158.44C317.61,-149.62 310.46,-139.47 305.42,-132.3"/>
<polygon fill="#63b8ff" stroke="#63b8ff" points="320.77,-160.19 329.38,-166.36 326.49,-156.16 320.77,-160.19"/>
</a>
</g>
</g>
<!-- Node11 -->
<g id="Node000011" class="node">
<title>Node11</title>
<g id="a_Node000011"><a xlink:href="_wall_8h.html" target="_top" xlink:title="Déclaration de la classe CWall.">
<polygon fill="white" stroke="#666666" points="396.75,-132 353,-132 353,-112 396.75,-112 396.75,-132"/>
<text text-anchor="middle" x="374.88" y="-118.5" font-family="Helvetica,sans-Serif" font-size="10.00">Wall.h</text>
</a>
</g>
</g>
<!-- Node1&#45;&gt;Node11 -->
<g id="edge14_Node000001_Node000011" class="edge">
<title>Node1&#45;&gt;Node11</title>
<g id="a_edge14_Node000001_Node000011"><a xlink:title=" ">
<path fill="none" stroke="#63b8ff" d="M349.94,-158.44C356.14,-149.62 363.29,-139.47 368.33,-132.3"/>
<polygon fill="#63b8ff" stroke="#63b8ff" points="347.26,-156.16 344.37,-166.36 352.98,-160.19 347.26,-156.16"/>
</a>
</g>
</g>
<!-- Node3 -->
<g id="Node000003" class="node">
<title>Node3</title>
<g id="a_Node000003"><a xlink:href="_auto_clock_8cpp.html" target="_top" xlink:title="Définition de la classe CAutoClock.">
<polygon fill="white" stroke="#666666" points="79.75,-76 0,-76 0,-56 79.75,-56 79.75,-76"/>
<text text-anchor="middle" x="39.88" y="-62.5" font-family="Helvetica,sans-Serif" font-size="10.00">AutoClock.cpp</text>
</a>
</g>
</g>
<!-- Node2&#45;&gt;Node3 -->
<g id="edge2_Node000002_Node000003" class="edge">
<title>Node2&#45;&gt;Node3</title>
<g id="a_edge2_Node000002_Node000003"><a xlink:title=" ">
<path fill="none" stroke="#63b8ff" d="M128.49,-106.88C107.2,-97.3 79.63,-84.89 60.94,-76.48"/>
<polygon fill="#63b8ff" stroke="#63b8ff" points="127.04,-110.06 137.59,-110.97 129.91,-103.68 127.04,-110.06"/>
</a>
</g>
</g>
<!-- Node4 -->
<g id="Node000004" class="node">
<title>Node4</title>
<g id="a_Node000004"><a xlink:href="_t_p_8h.html" target="_top" xlink:title="Déclaration de la classe CTP.">
<polygon fill="white" stroke="#666666" points="378,-76 341.75,-76 341.75,-56 378,-56 378,-76"/>
<text text-anchor="middle" x="359.88" y="-62.5" font-family="Helvetica,sans-Serif" font-size="10.00">TP.h</text>
</a>
</g>
</g>
<!-- Node2&#45;&gt;Node4 -->
<g id="edge3_Node000002_Node000004" class="edge">
<title>Node2&#45;&gt;Node4</title>
<g id="a_edge3_Node000002_Node000004"><a xlink:title=" ">
<path fill="none" stroke="#63b8ff" d="M205.73,-108.62C248.69,-97.02 310.73,-80.27 341.35,-72"/>
<polygon fill="#63b8ff" stroke="#63b8ff" points="204.92,-105.21 196.17,-111.2 206.74,-111.97 204.92,-105.21"/>
</a>
</g>
</g>
<!-- Node6 -->
<g id="Node000006" class="node">
<title>Node6</title>
<g id="a_Node000006"><a xlink:href="prog_8cpp.html" target="_top" xlink:title="Programme principal.">
<polygon fill="white" stroke="#666666" points="340.62,-20 287.12,-20 287.12,0 340.62,0 340.62,-20"/>
<text text-anchor="middle" x="313.88" y="-6.5" font-family="Helvetica,sans-Serif" font-size="10.00">prog.cpp</text>
</a>
</g>
</g>
<!-- Node2&#45;&gt;Node6 -->
<g id="edge7_Node000002_Node000006" class="edge">
<title>Node2&#45;&gt;Node6</title>
<g id="a_edge7_Node000002_Node000006"><a xlink:title=" ">
<path fill="none" stroke="#63b8ff" d="M140.87,-103.74C128.02,-89.98 115.33,-70.65 126.88,-56 146.51,-31.08 240.01,-18.36 286.91,-13.46"/>
<polygon fill="#63b8ff" stroke="#63b8ff" points="138.04,-105.87 147.6,-110.44 142.97,-100.9 138.04,-105.87"/>
</a>
</g>
</g>
<!-- Node7 -->
<g id="Node000007" class="node">
<title>Node7</title>
<g id="a_Node000007"><a xlink:href="gui_8cpp.html" target="_top" xlink:title="Définition de la classe CGUI.">
<polygon fill="white" stroke="#666666" points="183.62,-76 136.12,-76 136.12,-56 183.62,-56 183.62,-76"/>
<text text-anchor="middle" x="159.88" y="-62.5" font-family="Helvetica,sans-Serif" font-size="10.00">gui.cpp</text>
</a>
</g>
</g>
<!-- Node2&#45;&gt;Node7 -->
<g id="edge6_Node000002_Node000007" class="edge">
<title>Node2&#45;&gt;Node7</title>
<g id="a_edge6_Node000002_Node000007"><a xlink:title=" ">
<path fill="none" stroke="#63b8ff" d="M159.88,-100.13C159.88,-91.9 159.88,-82.85 159.88,-76.3"/>
<polygon fill="#63b8ff" stroke="#63b8ff" points="156.38,-100.08 159.88,-110.08 163.38,-100.08 156.38,-100.08"/>
</a>
</g>
</g>
<!-- Node5 -->
<g id="Node000005" class="node">
<title>Node5</title>
<g id="a_Node000005"><a xlink:href="_t_p_8cpp.html" target="_top" xlink:title="Définition de la classe CTP.">
<polygon fill="white" stroke="#666666" points="405.25,-20 358.5,-20 358.5,0 405.25,0 405.25,-20"/>
<text text-anchor="middle" x="381.88" y="-6.5" font-family="Helvetica,sans-Serif" font-size="10.00">TP.cpp</text>
</a>
</g>
</g>
<!-- Node4&#45;&gt;Node5 -->
<g id="edge4_Node000004_Node000005" class="edge">
<title>Node4&#45;&gt;Node5</title>
<g id="a_edge4_Node000004_Node000005"><a xlink:title=" ">
<path fill="none" stroke="#63b8ff" d="M368.02,-45C371.47,-36.54 375.32,-27.08 378.09,-20.3"/>
<polygon fill="#63b8ff" stroke="#63b8ff" points="364.81,-43.61 364.28,-54.19 371.29,-46.25 364.81,-43.61"/>
</a>
</g>
</g>
<!-- Node4&#45;&gt;Node6 -->
<g id="edge5_Node000004_Node000006" class="edge">
<title>Node4&#45;&gt;Node6</title>
<g id="a_edge5_Node000004_Node000006"><a xlink:title=" ">
<path fill="none" stroke="#63b8ff" d="M344.54,-47C336.92,-38.06 328.04,-27.62 321.8,-20.3"/>
<polygon fill="#63b8ff" stroke="#63b8ff" points="341.73,-49.1 350.88,-54.44 347.06,-44.56 341.73,-49.1"/>
</a>
</g>
</g>
<!-- Node9&#45;&gt;Node4 -->
<g id="edge11_Node000009_Node000004" class="edge">
<title>Node9&#45;&gt;Node4</title>
<g id="a_edge11_Node000009_Node000004"><a xlink:title=" ">
<path fill="none" stroke="#63b8ff" d="M317.94,-104.13C328.31,-94.94 340.75,-83.93 349.37,-76.3"/>
<polygon fill="#63b8ff" stroke="#63b8ff" points="315.8,-101.34 310.63,-110.59 320.44,-106.58 315.8,-101.34"/>
</a>
</g>
</g>
<!-- Node9&#45;&gt;Node6 -->
<g id="edge13_Node000009_Node000006" class="edge">
<title>Node9&#45;&gt;Node6</title>
<g id="a_edge13_Node000009_Node000006"><a xlink:title=" ">
<path fill="none" stroke="#63b8ff" d="M301.7,-100.31C304.96,-76.36 310.2,-37.95 312.6,-20.35"/>
<polygon fill="#63b8ff" stroke="#63b8ff" points="298.24,-99.74 300.36,-110.12 305.18,-100.69 298.24,-99.74"/>
</a>
</g>
</g>
<!-- Node9&#45;&gt;Node7 -->
<g id="edge12_Node000009_Node000007" class="edge">
<title>Node9&#45;&gt;Node7</title>
<g id="a_edge12_Node000009_Node000007"><a xlink:title=" ">
<path fill="none" stroke="#63b8ff" d="M264.14,-107.51C239.1,-97.78 205.94,-84.9 183.81,-76.3"/>
<polygon fill="#63b8ff" stroke="#63b8ff" points="262.66,-110.69 273.25,-111.05 265.2,-104.16 262.66,-110.69"/>
</a>
</g>
</g>
<!-- Node10 -->
<g id="Node000010" class="node">
<title>Node10</title>
<g id="a_Node000010"><a xlink:href="_mech_clock_8cpp.html" target="_top" xlink:title="Définition de la classe CMechClock.">
<polygon fill="white" stroke="#666666" points="285.62,-76 202.12,-76 202.12,-56 285.62,-56 285.62,-76"/>
<text text-anchor="middle" x="243.88" y="-62.5" font-family="Helvetica,sans-Serif" font-size="10.00">MechClock.cpp</text>
</a>
</g>
</g>
<!-- Node9&#45;&gt;Node10 -->
<g id="edge10_Node000009_Node000010" class="edge">
<title>Node9&#45;&gt;Node10</title>
<g id="a_edge10_Node000009_Node000010"><a xlink:title=" ">
<path fill="none" stroke="#63b8ff" d="M281.12,-103.57C271.88,-94.5 260.96,-83.78 253.35,-76.3"/>
<polygon fill="#63b8ff" stroke="#63b8ff" points="278.63,-106.03 288.21,-110.53 283.53,-101.03 278.63,-106.03"/>
</a>
</g>
</g>
<!-- Node11&#45;&gt;Node4 -->
<g id="edge15_Node000011_Node000004" class="edge">
<title>Node11&#45;&gt;Node4</title>
<g id="a_edge15_Node000011_Node000004"><a xlink:title=" ">
<path fill="none" stroke="#63b8ff" d="M369.24,-100.71C366.91,-92.32 364.32,-83.01 362.46,-76.3"/>
<polygon fill="#63b8ff" stroke="#63b8ff" points="365.81,-101.44 371.86,-110.14 372.55,-99.56 365.81,-101.44"/>
</a>
</g>
</g>
<!-- Node11&#45;&gt;Node6 -->
<g id="edge17_Node000011_Node000006" class="edge">
<title>Node11&#45;&gt;Node6</title>
<g id="a_edge17_Node000011_Node000006"><a xlink:title=" ">
<path fill="none" stroke="#63b8ff" d="M384.97,-101.42C390.44,-87.91 394.65,-69.93 386.88,-56 377.08,-38.45 357.31,-26.9 340.82,-19.89"/>
<polygon fill="#63b8ff" stroke="#63b8ff" points="381.95,-99.62 380.94,-110.17 388.31,-102.55 381.95,-99.62"/>
</a>
</g>
</g>
<!-- Node12 -->
<g id="Node000012" class="node">
<title>Node12</title>
<g id="a_Node000012"><a xlink:href="_wall_8cpp.html" target="_top" xlink:title="Définition de la classe CWall.">
<polygon fill="white" stroke="#666666" points="488,-76 433.75,-76 433.75,-56 488,-56 488,-76"/>
<text text-anchor="middle" x="460.88" y="-62.5" font-family="Helvetica,sans-Serif" font-size="10.00">Wall.cpp</text>
</a>
</g>
</g>
<!-- Node11&#45;&gt;Node12 -->
<g id="edge16_Node000011_Node000012" class="edge">
<title>Node11&#45;&gt;Node12</title>
<g id="a_edge16_Node000011_Node000012"><a xlink:title=" ">
<path fill="none" stroke="#63b8ff" d="M399.49,-105.54C414.42,-96.17 433,-84.51 445.78,-76.48"/>
<polygon fill="#63b8ff" stroke="#63b8ff" points="397.74,-102.51 391.14,-110.79 401.47,-108.44 397.74,-102.51"/>
</a>
</g>
</g>
</g>
</svg>
</svg>

<style type='text/css'>
<![CDATA[
[data-mouse-over-selected='false'] { opacity: 0.7; }
[data-mouse-over-selected='true']  { opacity: 1.0; }
]]>
</style>
<script type="application/ecmascript"><![CDATA[
document.addEventListener('DOMContentLoaded', (event) => {
  highlightEdges();
  highlightAdjacentNodes();
});
]]></script>
</svg>
