<?xml version="1.0" encoding="UTF-8" standalone="no"?>
<!DOCTYPE svg PUBLIC "-//W3C//DTD SVG 1.1//EN"
 "http://www.w3.org/Graphics/SVG/1.1/DTD/svg11.dtd">
<!-- Generated by graphviz version 10.0.1 (20240210.2158)
 -->
<!-- Title: Clock.h Pages: 1 -->
<svg width="276pt" height="196pt"
 viewBox="0.00 0.00 275.62 196.00" xmlns="http://www.w3.org/2000/svg" xmlns:xlink="http://www.w3.org/1999/xlink">

<svg id="main" version="1.1" xmlns="http://www.w3.org/2000/svg" xmlns:xlink="http://www.w3.org/1999/xlink" xml:space="preserve" onload="init(evt)">
<style type="text/css"><![CDATA[
.node, .edge {opacity: 0.7;}
.node.selected, .edge.selected {opacity: 1;}
.edge:hover path { stroke: red; }
.edge:hover polygon { stroke: red; fill: red; }
]]></style>
<script type="application/ecmascript" xlink:href="svg.min.js"/>
<svg id="graph" class="graph">
<g id="graph0" class="graph" transform="scale(1 1) rotate(0) translate(4 192)">
<title>Clock.h</title>
<!-- Node1 -->
<g id="Node000001" class="node">
<title>Node1</title>
<g id="a_Node000001"><a xlink:title="Déclaration de la classe CClock.">
<polygon fill="#999999" stroke="#666666" points="141.5,-188 92.5,-188 92.5,-168 141.5,-168 141.5,-188"/>
<text text-anchor="middle" x="117" y="-174.5" font-family="Helvetica,sans-Serif" font-size="10.00">Clock.h</text>
</a>
</g>
</g>
<!-- Node2 -->
<g id="Node000002" class="node">
<title>Node2</title>
<g id="a_Node000002"><a xlink:href="vecteur2_d_8h.html" target="_top" xlink:title="Déclaration de la classe CVecteur2D.">
<polygon fill="white" stroke="#666666" points="115.5,-76 48.5,-76 48.5,-56 115.5,-56 115.5,-76"/>
<text text-anchor="middle" x="82" y="-62.5" font-family="Helvetica,sans-Serif" font-size="10.00">vecteur2D.h</text>
</a>
</g>
</g>
<!-- Node1&#45;&gt;Node2 -->
<g id="edge1_Node000001_Node000002" class="edge">
<title>Node1&#45;&gt;Node2</title>
<g id="a_edge1_Node000001_Node000002"><a xlink:title=" ">
<path fill="none" stroke="#63b8ff" d="M109.41,-167.64C102.81,-158.96 93.62,-145.4 89,-132 84.06,-117.67 82.37,-100.61 81.88,-87.57"/>
<polygon fill="#63b8ff" stroke="#63b8ff" points="85.38,-87.57 81.74,-77.62 78.38,-87.67 85.38,-87.57"/>
</a>
</g>
</g>
<!-- Node3 -->
<g id="Node000003" class="node">
<title>Node3</title>
<g id="a_Node000003"><a xlink:title=" ">
<polygon fill="#e0e0e0" stroke="#999999" points="40,-20 0,-20 0,0 40,0 40,-20"/>
<text text-anchor="middle" x="20" y="-6.5" font-family="Helvetica,sans-Serif" font-size="10.00">string</text>
</a>
</g>
</g>
<!-- Node1&#45;&gt;Node3 -->
<g id="edge9_Node000001_Node000003" class="edge">
<title>Node1&#45;&gt;Node3</title>
<g id="a_edge9_Node000001_Node000003"><a xlink:title=" ">
<path fill="none" stroke="#63b8ff" d="M107.62,-167.56C91.32,-150.65 57.74,-113.45 39,-76 31.9,-61.82 27.01,-44.53 23.97,-31.36"/>
<polygon fill="#63b8ff" stroke="#63b8ff" points="27.42,-30.75 21.92,-21.69 20.57,-32.2 27.42,-30.75"/>
</a>
</g>
</g>
<!-- Node5 -->
<g id="Node000005" class="node">
<title>Node5</title>
<g id="a_Node000005"><a xlink:href="gui_8h.html" target="_top" xlink:title="Déclaration de la classe CGUI.">
<polygon fill="white" stroke="#666666" points="135.5,-132 98.5,-132 98.5,-112 135.5,-112 135.5,-132"/>
<text text-anchor="middle" x="117" y="-118.5" font-family="Helvetica,sans-Serif" font-size="10.00">gui.h</text>
</a>
</g>
</g>
<!-- Node1&#45;&gt;Node5 -->
<g id="edge4_Node000001_Node000005" class="edge">
<title>Node1&#45;&gt;Node5</title>
<g id="a_edge4_Node000001_Node000005"><a xlink:title=" ">
<path fill="none" stroke="#63b8ff" d="M117,-167.59C117,-161.01 117,-151.96 117,-143.73"/>
<polygon fill="#63b8ff" stroke="#63b8ff" points="120.5,-143.81 117,-133.81 113.5,-143.81 120.5,-143.81"/>
</a>
</g>
</g>
<!-- Node8 -->
<g id="Node000008" class="node">
<title>Node8</title>
<g id="a_Node000008"><a xlink:title=" ">
<polygon fill="#e0e0e0" stroke="#999999" points="204.62,-132 153.38,-132 153.38,-112 204.62,-112 204.62,-132"/>
<text text-anchor="middle" x="179" y="-118.5" font-family="Helvetica,sans-Serif" font-size="10.00">memory</text>
</a>
</g>
</g>
<!-- Node1&#45;&gt;Node8 -->
<g id="edge8_Node000001_Node000008" class="edge">
<title>Node1&#45;&gt;Node8</title>
<g id="a_edge8_Node000001_Node000008"><a xlink:title=" ">
<path fill="none" stroke="#63b8ff" d="M127.8,-167.59C136.6,-159.93 149.25,-148.91 159.77,-139.75"/>
<polygon fill="#63b8ff" stroke="#63b8ff" points="161.94,-142.5 167.18,-133.29 157.34,-137.22 161.94,-142.5"/>
</a>
</g>
</g>
<!-- Node9 -->
<g id="Node000009" class="node">
<title>Node9</title>
<g id="a_Node000009"><a xlink:title=" ">
<polygon fill="#e0e0e0" stroke="#999999" points="267.62,-132 222.38,-132 222.38,-112 267.62,-112 267.62,-132"/>
<text text-anchor="middle" x="245" y="-118.5" font-family="Helvetica,sans-Serif" font-size="10.00">chrono</text>
</a>
</g>
</g>
<!-- Node1&#45;&gt;Node9 -->
<g id="edge10_Node000001_Node000009" class="edge">
<title>Node1&#45;&gt;Node9</title>
<g id="a_edge10_Node000001_Node000009"><a xlink:title=" ">
<path fill="none" stroke="#63b8ff" d="M139.3,-167.59C159.36,-159.13 189.12,-146.58 211.95,-136.94"/>
<polygon fill="#63b8ff" stroke="#63b8ff" points="213.28,-140.18 221.14,-133.07 210.56,-133.73 213.28,-140.18"/>
</a>
</g>
</g>
<!-- Node2&#45;&gt;Node3 -->
<g id="edge2_Node000002_Node000003" class="edge">
<title>Node2&#45;&gt;Node3</title>
<g id="a_edge2_Node000002_Node000003"><a xlink:title=" ">
<path fill="none" stroke="#63b8ff" d="M71.2,-55.59C62.4,-47.93 49.75,-36.91 39.23,-27.75"/>
<polygon fill="#63b8ff" stroke="#63b8ff" points="41.66,-25.22 31.82,-21.29 37.06,-30.5 41.66,-25.22"/>
</a>
</g>
</g>
<!-- Node4 -->
<g id="Node000004" class="node">
<title>Node4</title>
<g id="a_Node000004"><a xlink:title=" ">
<polygon fill="#e0e0e0" stroke="#999999" points="111.75,-20 58.25,-20 58.25,0 111.75,0 111.75,-20"/>
<text text-anchor="middle" x="85" y="-6.5" font-family="Helvetica,sans-Serif" font-size="10.00">iostream</text>
</a>
</g>
</g>
<!-- Node2&#45;&gt;Node4 -->
<g id="edge3_Node000002_Node000004" class="edge">
<title>Node2&#45;&gt;Node4</title>
<g id="a_edge3_Node000002_Node000004"><a xlink:title=" ">
<path fill="none" stroke="#63b8ff" d="M82.52,-55.59C82.89,-49.01 83.39,-39.96 83.85,-31.73"/>
<polygon fill="#63b8ff" stroke="#63b8ff" points="87.34,-31.99 84.4,-21.81 80.35,-31.6 87.34,-31.99"/>
</a>
</g>
</g>
<!-- Node5&#45;&gt;Node2 -->
<g id="edge7_Node000005_Node000002" class="edge">
<title>Node5&#45;&gt;Node2</title>
<g id="a_edge7_Node000005_Node000002"><a xlink:title=" ">
<path fill="none" stroke="#63b8ff" d="M110.9,-111.59C106.29,-104.47 99.79,-94.45 94.13,-85.72"/>
<polygon fill="#63b8ff" stroke="#63b8ff" points="97.23,-84.06 88.85,-77.57 91.35,-87.86 97.23,-84.06"/>
</a>
</g>
</g>
<!-- Node6 -->
<g id="Node000006" class="node">
<title>Node6</title>
<g id="a_Node000006"><a xlink:href="inc_lib_graph2_8h.html" target="_top" xlink:title="Fichier d&#39;inclusion de la bibliothèque LibGraph2.">
<polygon fill="white" stroke="#666666" points="214.62,-76 133.38,-76 133.38,-56 214.62,-56 214.62,-76"/>
<text text-anchor="middle" x="174" y="-62.5" font-family="Helvetica,sans-Serif" font-size="10.00">incLibGraph2.h</text>
</a>
</g>
</g>
<!-- Node5&#45;&gt;Node6 -->
<g id="edge5_Node000005_Node000006" class="edge">
<title>Node5&#45;&gt;Node6</title>
<g id="a_edge5_Node000005_Node000006"><a xlink:title=" ">
<path fill="none" stroke="#63b8ff" d="M126.93,-111.59C134.94,-104.01 146.42,-93.13 156.03,-84.02"/>
<polygon fill="#63b8ff" stroke="#63b8ff" points="158.23,-86.76 163.09,-77.34 153.42,-81.68 158.23,-86.76"/>
</a>
</g>
</g>
<!-- Node7 -->
<g id="Node000007" class="node">
<title>Node7</title>
<g id="a_Node000007"><a xlink:title=" ">
<polygon fill="#e0e0e0" stroke="#999999" points="208.25,-20 139.75,-20 139.75,0 208.25,0 208.25,-20"/>
<text text-anchor="middle" x="174" y="-6.5" font-family="Helvetica,sans-Serif" font-size="10.00">LibGraph2.h</text>
</a>
</g>
</g>
<!-- Node6&#45;&gt;Node7 -->
<g id="edge6_Node000006_Node000007" class="edge">
<title>Node6&#45;&gt;Node7</title>
<g id="a_edge6_Node000006_Node000007"><a xlink:title=" ">
<path fill="none" stroke="#63b8ff" d="M174,-55.59C174,-49.01 174,-39.96 174,-31.73"/>
<polygon fill="#63b8ff" stroke="#63b8ff" points="177.5,-31.81 174,-21.81 170.5,-31.81 177.5,-31.81"/>
</a>
</g>
</g>
</g>
</svg>
</svg>

<style type='text/css'>
<![CDATA[
[data-mouse-over-selected='false'] { opacity: 0.7; }
[data-mouse-over-selected='true']  { opacity: 1.0; }
]]>
</style>
<script type="application/ecmascript"><![CDATA[
document.addEventListener('DOMContentLoaded', (event) => {
  highlightEdges();
  highlightAdjacentNodes();
});
]]></script>
</svg>
