<?xml version="1.0" encoding="UTF-8" standalone="no"?>
<!DOCTYPE svg PUBLIC "-//W3C//DTD SVG 1.1//EN"
 "http://www.w3.org/Graphics/SVG/1.1/DTD/svg11.dtd">
<!-- Generated by graphviz version 10.0.1 (20240210.2158)
 -->
<!-- Title: Clock.cpp Pages: 1 -->
<svg width="602pt" height="252pt"
 viewBox="0.00 0.00 601.50 252.00" xmlns="http://www.w3.org/2000/svg" xmlns:xlink="http://www.w3.org/1999/xlink">
<g id="graph0" class="graph" transform="scale(1 1) rotate(0) translate(4 248)">
<title>Clock.cpp</title>
<!-- Node1 -->
<g id="Node000001" class="node">
<title>Node1</title>
<g id="a_Node000001"><a xlink:title="Définition de la classe CClock.">
<polygon fill="#999999" stroke="#666666" points="427.38,-244 367.88,-244 367.88,-224 427.38,-224 427.38,-244"/>
<text text-anchor="middle" x="397.62" y="-230.5" font-family="Helvetica,sans-Serif" font-size="10.00">Clock.cpp</text>
</a>
</g>
</g>
<!-- Node2 -->
<g id="Node000002" class="node">
<title>Node2</title>
<g id="a_Node000002"><a xlink:href="_std_afx_8h.html" target="_top" xlink:title="Fichier de gestion des en&#45;têtes précompilées.">
<polygon fill="white" stroke="#666666" points="191.38,-188 137.88,-188 137.88,-168 191.38,-168 191.38,-188"/>
<text text-anchor="middle" x="164.62" y="-174.5" font-family="Helvetica,sans-Serif" font-size="10.00">StdAfx.h</text>
</a>
</g>
</g>
<!-- Node1&#45;&gt;Node2 -->
<g id="edge1_Node000001_Node000002" class="edge">
<title>Node1&#45;&gt;Node2</title>
<g id="a_edge1_Node000001_Node000002"><a xlink:title=" ">
<path fill="none" stroke="#63b8ff" d="M367.64,-226.05C325.49,-216.28 248.73,-198.49 202.63,-187.81"/>
<polygon fill="#63b8ff" stroke="#63b8ff" points="203.61,-184.44 193.08,-185.59 202.03,-191.26 203.61,-184.44"/>
</a>
</g>
</g>
<!-- Node7 -->
<g id="Node000007" class="node">
<title>Node7</title>
<g id="a_Node000007"><a xlink:href="_clock_8h.html" target="_top" xlink:title="Déclaration de la classe CClock.">
<polygon fill="white" stroke="#666666" points="389.12,-188 340.12,-188 340.12,-168 389.12,-168 389.12,-188"/>
<text text-anchor="middle" x="364.62" y="-174.5" font-family="Helvetica,sans-Serif" font-size="10.00">Clock.h</text>
</a>
</g>
</g>
<!-- Node1&#45;&gt;Node7 -->
<g id="edge6_Node000001_Node000007" class="edge">
<title>Node1&#45;&gt;Node7</title>
<g id="a_edge6_Node000001_Node000007"><a xlink:title=" ">
<path fill="none" stroke="#63b8ff" d="M391.88,-223.59C387.57,-216.55 381.53,-206.67 376.24,-198"/>
<polygon fill="#63b8ff" stroke="#63b8ff" points="379.3,-196.3 371.1,-189.59 373.32,-199.95 379.3,-196.3"/>
</a>
</g>
</g>
<!-- Node9 -->
<g id="Node000009" class="node">
<title>Node9</title>
<g id="a_Node000009"><a xlink:title=" ">
<polygon fill="#e0e0e0" stroke="#999999" points="345.62,-20 305.62,-20 305.62,0 345.62,0 345.62,-20"/>
<text text-anchor="middle" x="325.62" y="-6.5" font-family="Helvetica,sans-Serif" font-size="10.00">string</text>
</a>
</g>
</g>
<!-- Node1&#45;&gt;Node9 -->
<g id="edge18_Node000001_Node000009" class="edge">
<title>Node1&#45;&gt;Node9</title>
<g id="a_edge18_Node000001_Node000009"><a xlink:title=" ">
<path fill="none" stroke="#63b8ff" d="M373.33,-223.61C358.16,-216.35 339.82,-204.69 330.62,-188 302.74,-137.41 313.1,-65.71 320.58,-31.16"/>
<polygon fill="#63b8ff" stroke="#63b8ff" points="323.93,-32.23 322.79,-21.69 317.11,-30.64 323.93,-32.23"/>
</a>
</g>
</g>
<!-- Node16 -->
<g id="Node000016" class="node">
<title>Node16</title>
<g id="a_Node000016"><a xlink:title=" ">
<polygon fill="#e0e0e0" stroke="#999999" points="455.75,-188 407.5,-188 407.5,-168 455.75,-168 455.75,-188"/>
<text text-anchor="middle" x="431.62" y="-174.5" font-family="Helvetica,sans-Serif" font-size="10.00">cassert</text>
</a>
</g>
</g>
<!-- Node1&#45;&gt;Node16 -->
<g id="edge17_Node000001_Node000016" class="edge">
<title>Node1&#45;&gt;Node16</title>
<g id="a_edge17_Node000001_Node000016"><a xlink:title=" ">
<path fill="none" stroke="#63b8ff" d="M403.55,-223.59C407.98,-216.55 414.2,-206.67 419.66,-198"/>
<polygon fill="#63b8ff" stroke="#63b8ff" points="422.6,-199.91 424.96,-189.58 416.67,-196.18 422.6,-199.91"/>
</a>
</g>
</g>
<!-- Node17 -->
<g id="Node000017" class="node">
<title>Node17</title>
<g id="a_Node000017"><a xlink:title=" ">
<polygon fill="#e0e0e0" stroke="#999999" points="525.25,-188 474,-188 474,-168 525.25,-168 525.25,-188"/>
<text text-anchor="middle" x="499.62" y="-174.5" font-family="Helvetica,sans-Serif" font-size="10.00">sstream</text>
</a>
</g>
</g>
<!-- Node1&#45;&gt;Node17 -->
<g id="edge19_Node000001_Node000017" class="edge">
<title>Node1&#45;&gt;Node17</title>
<g id="a_edge19_Node000001_Node000017"><a xlink:title=" ">
<path fill="none" stroke="#63b8ff" d="M415.39,-223.59C430.95,-215.36 453.81,-203.26 471.79,-193.74"/>
<polygon fill="#63b8ff" stroke="#63b8ff" points="473.18,-196.96 480.38,-189.19 469.91,-190.77 473.18,-196.96"/>
</a>
</g>
</g>
<!-- Node18 -->
<g id="Node000018" class="node">
<title>Node18</title>
<g id="a_Node000018"><a xlink:title=" ">
<polygon fill="#e0e0e0" stroke="#999999" points="593.5,-188 543.75,-188 543.75,-168 593.5,-168 593.5,-188"/>
<text text-anchor="middle" x="568.62" y="-174.5" font-family="Helvetica,sans-Serif" font-size="10.00">iomanip</text>
</a>
</g>
</g>
<!-- Node1&#45;&gt;Node18 -->
<g id="edge20_Node000001_Node000018" class="edge">
<title>Node1&#45;&gt;Node18</title>
<g id="a_edge20_Node000001_Node000018"><a xlink:title=" ">
<path fill="none" stroke="#63b8ff" d="M427.41,-223.59C456.64,-214.36 501.26,-200.27 532.5,-190.41"/>
<polygon fill="#63b8ff" stroke="#63b8ff" points="533.43,-193.79 541.91,-187.44 531.32,-187.11 533.43,-193.79"/>
</a>
</g>
</g>
<!-- Node3 -->
<g id="Node000003" class="node">
<title>Node3</title>
<g id="a_Node000003"><a xlink:title=" ">
<polygon fill="#e0e0e0" stroke="#999999" points="195.12,-132 134.12,-132 134.12,-112 195.12,-112 195.12,-132"/>
<text text-anchor="middle" x="164.62" y="-118.5" font-family="Helvetica,sans-Serif" font-size="10.00">windows.h</text>
</a>
</g>
</g>
<!-- Node2&#45;&gt;Node3 -->
<g id="edge2_Node000002_Node000003" class="edge">
<title>Node2&#45;&gt;Node3</title>
<g id="a_edge2_Node000002_Node000003"><a xlink:title=" ">
<path fill="none" stroke="#63b8ff" d="M164.62,-167.59C164.62,-161.01 164.62,-151.96 164.62,-143.73"/>
<polygon fill="#63b8ff" stroke="#63b8ff" points="168.13,-143.81 164.63,-133.81 161.13,-143.81 168.13,-143.81"/>
</a>
</g>
</g>
<!-- Node4 -->
<g id="Node000004" class="node">
<title>Node4</title>
<g id="a_Node000004"><a xlink:title=" ">
<polygon fill="#e0e0e0" stroke="#999999" points="260.38,-132 212.88,-132 212.88,-112 260.38,-112 260.38,-132"/>
<text text-anchor="middle" x="236.62" y="-118.5" font-family="Helvetica,sans-Serif" font-size="10.00">stdlib.h</text>
</a>
</g>
</g>
<!-- Node2&#45;&gt;Node4 -->
<g id="edge3_Node000002_Node000004" class="edge">
<title>Node2&#45;&gt;Node4</title>
<g id="a_edge3_Node000002_Node000004"><a xlink:title=" ">
<path fill="none" stroke="#63b8ff" d="M177.17,-167.59C187.59,-159.77 202.67,-148.46 215.04,-139.19"/>
<polygon fill="#63b8ff" stroke="#63b8ff" points="217.12,-142.01 223.02,-133.21 212.92,-136.41 217.12,-142.01"/>
</a>
</g>
</g>
<!-- Node5 -->
<g id="Node000005" class="node">
<title>Node5</title>
<g id="a_Node000005"><a xlink:title=" ">
<polygon fill="#e0e0e0" stroke="#999999" points="51.25,-132 0,-132 0,-112 51.25,-112 51.25,-132"/>
<text text-anchor="middle" x="25.62" y="-118.5" font-family="Helvetica,sans-Serif" font-size="10.00">crtdbg.h</text>
</a>
</g>
</g>
<!-- Node2&#45;&gt;Node5 -->
<g id="edge4_Node000002_Node000005" class="edge">
<title>Node2&#45;&gt;Node5</title>
<g id="a_edge4_Node000002_Node000005"><a xlink:title=" ">
<path fill="none" stroke="#63b8ff" d="M140.41,-167.59C118.32,-159.01 85.43,-146.23 60.5,-136.55"/>
<polygon fill="#63b8ff" stroke="#63b8ff" points="62.03,-133.39 51.44,-133.03 59.49,-139.91 62.03,-133.39"/>
</a>
</g>
</g>
<!-- Node6 -->
<g id="Node000006" class="node">
<title>Node6</title>
<g id="a_Node000006"><a xlink:title=" ">
<polygon fill="#e0e0e0" stroke="#999999" points="115.62,-132 69.62,-132 69.62,-112 115.62,-112 115.62,-132"/>
<text text-anchor="middle" x="92.62" y="-118.5" font-family="Helvetica,sans-Serif" font-size="10.00">tchar.h</text>
</a>
</g>
</g>
<!-- Node2&#45;&gt;Node6 -->
<g id="edge5_Node000002_Node000006" class="edge">
<title>Node2&#45;&gt;Node6</title>
<g id="a_edge5_Node000002_Node000006"><a xlink:title=" ">
<path fill="none" stroke="#63b8ff" d="M152.08,-167.59C141.66,-159.77 126.58,-148.46 114.21,-139.19"/>
<polygon fill="#63b8ff" stroke="#63b8ff" points="116.33,-136.41 106.23,-133.21 112.13,-142.01 116.33,-136.41"/>
</a>
</g>
</g>
<!-- Node8 -->
<g id="Node000008" class="node">
<title>Node8</title>
<g id="a_Node000008"><a xlink:href="vecteur2_d_8h.html" target="_top" xlink:title="Déclaration de la classe CVecteur2D.">
<polygon fill="white" stroke="#666666" points="423.12,-76 356.12,-76 356.12,-56 423.12,-56 423.12,-76"/>
<text text-anchor="middle" x="389.62" y="-62.5" font-family="Helvetica,sans-Serif" font-size="10.00">vecteur2D.h</text>
</a>
</g>
</g>
<!-- Node7&#45;&gt;Node8 -->
<g id="edge7_Node000007_Node000008" class="edge">
<title>Node7&#45;&gt;Node8</title>
<g id="a_edge7_Node000007_Node000008"><a xlink:title=" ">
<path fill="none" stroke="#63b8ff" d="M366.76,-167.62C370.78,-149.92 379.57,-111.24 385.01,-87.32"/>
<polygon fill="#63b8ff" stroke="#63b8ff" points="388.36,-88.36 387.16,-77.83 381.53,-86.81 388.36,-88.36"/>
</a>
</g>
</g>
<!-- Node7&#45;&gt;Node9 -->
<g id="edge15_Node000007_Node000009" class="edge">
<title>Node7&#45;&gt;Node9</title>
<g id="a_edge15_Node000007_Node000009"><a xlink:title=" ">
<path fill="none" stroke="#63b8ff" d="M362.42,-167.6C356.28,-141.46 338.9,-67.48 330.41,-31.36"/>
<polygon fill="#63b8ff" stroke="#63b8ff" points="333.85,-30.71 328.16,-21.77 327.04,-32.31 333.85,-30.71"/>
</a>
</g>
</g>
<!-- Node11 -->
<g id="Node000011" class="node">
<title>Node11</title>
<g id="a_Node000011"><a xlink:href="gui_8h.html" target="_top" xlink:title="Déclaration de la classe CGUI.">
<polygon fill="white" stroke="#666666" points="562.12,-132 525.12,-132 525.12,-112 562.12,-112 562.12,-132"/>
<text text-anchor="middle" x="543.62" y="-118.5" font-family="Helvetica,sans-Serif" font-size="10.00">gui.h</text>
</a>
</g>
</g>
<!-- Node7&#45;&gt;Node11 -->
<g id="edge10_Node000007_Node000011" class="edge">
<title>Node7&#45;&gt;Node11</title>
<g id="a_edge10_Node000007_Node000011"><a xlink:title=" ">
<path fill="none" stroke="#63b8ff" d="M389.45,-169.93C417.55,-161.87 464.94,-148.09 513.96,-132.77"/>
<polygon fill="#63b8ff" stroke="#63b8ff" points="514.83,-136.17 523.32,-129.83 512.74,-129.49 514.83,-136.17"/>
</a>
</g>
</g>
<!-- Node14 -->
<g id="Node000014" class="node">
<title>Node14</title>
<g id="a_Node000014"><a xlink:title=" ">
<polygon fill="#e0e0e0" stroke="#999999" points="444.25,-132 393,-132 393,-112 444.25,-112 444.25,-132"/>
<text text-anchor="middle" x="418.62" y="-118.5" font-family="Helvetica,sans-Serif" font-size="10.00">memory</text>
</a>
</g>
</g>
<!-- Node7&#45;&gt;Node14 -->
<g id="edge14_Node000007_Node000014" class="edge">
<title>Node7&#45;&gt;Node14</title>
<g id="a_edge14_Node000007_Node000014"><a xlink:title=" ">
<path fill="none" stroke="#63b8ff" d="M374.03,-167.59C381.54,-160.08 392.27,-149.35 401.32,-140.3"/>
<polygon fill="#63b8ff" stroke="#63b8ff" points="403.66,-142.91 408.26,-133.37 398.71,-137.96 403.66,-142.91"/>
</a>
</g>
</g>
<!-- Node15 -->
<g id="Node000015" class="node">
<title>Node15</title>
<g id="a_Node000015"><a xlink:title=" ">
<polygon fill="#e0e0e0" stroke="#999999" points="507.25,-132 462,-132 462,-112 507.25,-112 507.25,-132"/>
<text text-anchor="middle" x="484.62" y="-118.5" font-family="Helvetica,sans-Serif" font-size="10.00">chrono</text>
</a>
</g>
</g>
<!-- Node7&#45;&gt;Node15 -->
<g id="edge16_Node000007_Node000015" class="edge">
<title>Node7&#45;&gt;Node15</title>
<g id="a_edge16_Node000007_Node000015"><a xlink:title=" ">
<path fill="none" stroke="#63b8ff" d="M385.53,-167.59C404.25,-159.17 431.98,-146.69 453.35,-137.07"/>
<polygon fill="#63b8ff" stroke="#63b8ff" points="454.5,-140.4 462.18,-133.1 451.62,-134.01 454.5,-140.4"/>
</a>
</g>
</g>
<!-- Node8&#45;&gt;Node9 -->
<g id="edge8_Node000008_Node000009" class="edge">
<title>Node8&#45;&gt;Node9</title>
<g id="a_edge8_Node000008_Node000009"><a xlink:title=" ">
<path fill="none" stroke="#63b8ff" d="M378.48,-55.59C369.3,-47.85 356.07,-36.69 345.14,-27.47"/>
<polygon fill="#63b8ff" stroke="#63b8ff" points="347.7,-25.05 337.8,-21.27 343.19,-30.4 347.7,-25.05"/>
</a>
</g>
</g>
<!-- Node10 -->
<g id="Node000010" class="node">
<title>Node10</title>
<g id="a_Node000010"><a xlink:title=" ">
<polygon fill="#e0e0e0" stroke="#999999" points="417.38,-20 363.88,-20 363.88,0 417.38,0 417.38,-20"/>
<text text-anchor="middle" x="390.62" y="-6.5" font-family="Helvetica,sans-Serif" font-size="10.00">iostream</text>
</a>
</g>
</g>
<!-- Node8&#45;&gt;Node10 -->
<g id="edge9_Node000008_Node000010" class="edge">
<title>Node8&#45;&gt;Node10</title>
<g id="a_edge9_Node000008_Node000010"><a xlink:title=" ">
<path fill="none" stroke="#63b8ff" d="M389.8,-55.59C389.92,-49.01 390.09,-39.96 390.24,-31.73"/>
<polygon fill="#63b8ff" stroke="#63b8ff" points="393.74,-31.87 390.42,-21.81 386.74,-31.75 393.74,-31.87"/>
</a>
</g>
</g>
<!-- Node11&#45;&gt;Node8 -->
<g id="edge13_Node000011_Node000008" class="edge">
<title>Node11&#45;&gt;Node8</title>
<g id="a_edge13_Node000011_Node000008"><a xlink:title=" ">
<path fill="none" stroke="#63b8ff" d="M524.74,-114.38C500.64,-105.93 458.36,-91.1 427.5,-80.28"/>
<polygon fill="#63b8ff" stroke="#63b8ff" points="428.73,-77 418.13,-77 426.41,-83.61 428.73,-77"/>
</a>
</g>
</g>
<!-- Node12 -->
<g id="Node000012" class="node">
<title>Node12</title>
<g id="a_Node000012"><a xlink:href="inc_lib_graph2_8h.html" target="_top" xlink:title="Fichier d&#39;inclusion de la bibliothèque LibGraph2.">
<polygon fill="white" stroke="#666666" points="584.25,-76 503,-76 503,-56 584.25,-56 584.25,-76"/>
<text text-anchor="middle" x="543.62" y="-62.5" font-family="Helvetica,sans-Serif" font-size="10.00">incLibGraph2.h</text>
</a>
</g>
</g>
<!-- Node11&#45;&gt;Node12 -->
<g id="edge11_Node000011_Node000012" class="edge">
<title>Node11&#45;&gt;Node12</title>
<g id="a_edge11_Node000011_Node000012"><a xlink:title=" ">
<path fill="none" stroke="#63b8ff" d="M543.62,-111.59C543.62,-105.01 543.62,-95.96 543.62,-87.73"/>
<polygon fill="#63b8ff" stroke="#63b8ff" points="547.13,-87.81 543.63,-77.81 540.13,-87.81 547.13,-87.81"/>
</a>
</g>
</g>
<!-- Node13 -->
<g id="Node000013" class="node">
<title>Node13</title>
<g id="a_Node000013"><a xlink:title=" ">
<polygon fill="#e0e0e0" stroke="#999999" points="577.88,-20 509.38,-20 509.38,0 577.88,0 577.88,-20"/>
<text text-anchor="middle" x="543.62" y="-6.5" font-family="Helvetica,sans-Serif" font-size="10.00">LibGraph2.h</text>
</a>
</g>
</g>
<!-- Node12&#45;&gt;Node13 -->
<g id="edge12_Node000012_Node000013" class="edge">
<title>Node12&#45;&gt;Node13</title>
<g id="a_edge12_Node000012_Node000013"><a xlink:title=" ">
<path fill="none" stroke="#63b8ff" d="M543.62,-55.59C543.62,-49.01 543.62,-39.96 543.62,-31.73"/>
<polygon fill="#63b8ff" stroke="#63b8ff" points="547.13,-31.81 543.63,-21.81 540.13,-31.81 547.13,-31.81"/>
</a>
</g>
</g>
</g>
</svg>
