<?xml version="1.0" encoding="UTF-8" standalone="no"?>
<!DOCTYPE svg PUBLIC "-//W3C//DTD SVG 1.1//EN"
 "http://www.w3.org/Graphics/SVG/1.1/DTD/svg11.dtd">
<!-- Generated by graphviz version 10.0.1 (20240210.2158)
 -->
<!-- Title: MechClock.cpp Pages: 1 -->
<svg width="461pt" height="308pt"
 viewBox="0.00 0.00 461.12 308.00" xmlns="http://www.w3.org/2000/svg" xmlns:xlink="http://www.w3.org/1999/xlink">

<svg id="main" version="1.1" xmlns="http://www.w3.org/2000/svg" xmlns:xlink="http://www.w3.org/1999/xlink" xml:space="preserve" onload="init(evt)">
<style type="text/css"><![CDATA[
.node, .edge {opacity: 0.7;}
.node.selected, .edge.selected {opacity: 1;}
.edge:hover path { stroke: red; }
.edge:hover polygon { stroke: red; fill: red; }
]]></style>
<script type="application/ecmascript" xlink:href="svg.min.js"/>
<svg id="graph" class="graph">
<g id="graph0" class="graph" transform="scale(1 1) rotate(0) translate(4 304)">
<title>MechClock.cpp</title>
<!-- Node1 -->
<g id="Node000001" class="node">
<title>Node1</title>
<g id="a_Node000001"><a xlink:title="Définition de la classe CMechClock.">
<polygon fill="#999999" stroke="#666666" points="318.25,-300 234.75,-300 234.75,-280 318.25,-280 318.25,-300"/>
<text text-anchor="middle" x="276.5" y="-286.5" font-family="Helvetica,sans-Serif" font-size="10.00">MechClock.cpp</text>
</a>
</g>
</g>
<!-- Node2 -->
<g id="Node000002" class="node">
<title>Node2</title>
<g id="a_Node000002"><a xlink:href="_std_afx_8h.html" target="_top" xlink:title="Fichier de gestion des en&#45;têtes précompilées.">
<polygon fill="white" stroke="#666666" points="196.25,-244 142.75,-244 142.75,-224 196.25,-224 196.25,-244"/>
<text text-anchor="middle" x="169.5" y="-230.5" font-family="Helvetica,sans-Serif" font-size="10.00">StdAfx.h</text>
</a>
</g>
</g>
<!-- Node1&#45;&gt;Node2 -->
<g id="edge1_Node000001_Node000002" class="edge">
<title>Node1&#45;&gt;Node2</title>
<g id="a_edge1_Node000001_Node000002"><a xlink:title=" ">
<path fill="none" stroke="#63b8ff" d="M257.86,-279.59C241.47,-271.32 217.34,-259.14 198.44,-249.6"/>
<polygon fill="#63b8ff" stroke="#63b8ff" points="200.14,-246.54 189.63,-245.16 196.99,-252.79 200.14,-246.54"/>
</a>
</g>
</g>
<!-- Node7 -->
<g id="Node000007" class="node">
<title>Node7</title>
<g id="a_Node000007"><a xlink:href="_mech_clock_8h.html" target="_top" xlink:title="Déclaration de la classe CMechClock.">
<polygon fill="white" stroke="#666666" points="313,-244 240,-244 240,-224 313,-224 313,-244"/>
<text text-anchor="middle" x="276.5" y="-230.5" font-family="Helvetica,sans-Serif" font-size="10.00">MechClock.h</text>
</a>
</g>
</g>
<!-- Node1&#45;&gt;Node7 -->
<g id="edge6_Node000001_Node000007" class="edge">
<title>Node1&#45;&gt;Node7</title>
<g id="a_edge6_Node000001_Node000007"><a xlink:title=" ">
<path fill="none" stroke="#63b8ff" d="M276.5,-279.59C276.5,-273.01 276.5,-263.96 276.5,-255.73"/>
<polygon fill="#63b8ff" stroke="#63b8ff" points="280,-255.81 276.5,-245.81 273,-255.81 280,-255.81"/>
</a>
</g>
</g>
<!-- Node17 -->
<g id="Node000017" class="node">
<title>Node17</title>
<g id="a_Node000017"><a xlink:title=" ">
<polygon fill="#e0e0e0" stroke="#999999" points="382.12,-244 330.88,-244 330.88,-224 382.12,-224 382.12,-244"/>
<text text-anchor="middle" x="356.5" y="-230.5" font-family="Helvetica,sans-Serif" font-size="10.00">sstream</text>
</a>
</g>
</g>
<!-- Node1&#45;&gt;Node17 -->
<g id="edge18_Node000001_Node000017" class="edge">
<title>Node1&#45;&gt;Node17</title>
<g id="a_edge18_Node000001_Node000017"><a xlink:title=" ">
<path fill="none" stroke="#63b8ff" d="M290.43,-279.59C302.18,-271.67 319.23,-260.16 333.07,-250.82"/>
<polygon fill="#63b8ff" stroke="#63b8ff" points="334.87,-253.82 341.2,-245.33 330.96,-248.02 334.87,-253.82"/>
</a>
</g>
</g>
<!-- Node3 -->
<g id="Node000003" class="node">
<title>Node3</title>
<g id="a_Node000003"><a xlink:title=" ">
<polygon fill="#e0e0e0" stroke="#999999" points="61,-188 0,-188 0,-168 61,-168 61,-188"/>
<text text-anchor="middle" x="30.5" y="-174.5" font-family="Helvetica,sans-Serif" font-size="10.00">windows.h</text>
</a>
</g>
</g>
<!-- Node2&#45;&gt;Node3 -->
<g id="edge2_Node000002_Node000003" class="edge">
<title>Node2&#45;&gt;Node3</title>
<g id="a_edge2_Node000002_Node000003"><a xlink:title=" ">
<path fill="none" stroke="#63b8ff" d="M145.29,-223.59C123.2,-215.01 90.3,-202.23 65.38,-192.55"/>
<polygon fill="#63b8ff" stroke="#63b8ff" points="66.9,-189.39 56.31,-189.03 64.37,-195.91 66.9,-189.39"/>
</a>
</g>
</g>
<!-- Node4 -->
<g id="Node000004" class="node">
<title>Node4</title>
<g id="a_Node000004"><a xlink:title=" ">
<polygon fill="#e0e0e0" stroke="#999999" points="126.25,-188 78.75,-188 78.75,-168 126.25,-168 126.25,-188"/>
<text text-anchor="middle" x="102.5" y="-174.5" font-family="Helvetica,sans-Serif" font-size="10.00">stdlib.h</text>
</a>
</g>
</g>
<!-- Node2&#45;&gt;Node4 -->
<g id="edge3_Node000002_Node000004" class="edge">
<title>Node2&#45;&gt;Node4</title>
<g id="a_edge3_Node000002_Node000004"><a xlink:title=" ">
<path fill="none" stroke="#63b8ff" d="M157.83,-223.59C148.22,-215.85 134.37,-204.69 122.93,-195.47"/>
<polygon fill="#63b8ff" stroke="#63b8ff" points="125.2,-192.8 115.22,-189.25 120.8,-198.25 125.2,-192.8"/>
</a>
</g>
</g>
<!-- Node5 -->
<g id="Node000005" class="node">
<title>Node5</title>
<g id="a_Node000005"><a xlink:title=" ">
<polygon fill="#e0e0e0" stroke="#999999" points="195.12,-188 143.88,-188 143.88,-168 195.12,-168 195.12,-188"/>
<text text-anchor="middle" x="169.5" y="-174.5" font-family="Helvetica,sans-Serif" font-size="10.00">crtdbg.h</text>
</a>
</g>
</g>
<!-- Node2&#45;&gt;Node5 -->
<g id="edge4_Node000002_Node000005" class="edge">
<title>Node2&#45;&gt;Node5</title>
<g id="a_edge4_Node000002_Node000005"><a xlink:title=" ">
<path fill="none" stroke="#63b8ff" d="M169.5,-223.59C169.5,-217.01 169.5,-207.96 169.5,-199.73"/>
<polygon fill="#63b8ff" stroke="#63b8ff" points="173,-199.81 169.5,-189.81 166,-199.81 173,-199.81"/>
</a>
</g>
</g>
<!-- Node6 -->
<g id="Node000006" class="node">
<title>Node6</title>
<g id="a_Node000006"><a xlink:title=" ">
<polygon fill="#e0e0e0" stroke="#999999" points="259.5,-188 213.5,-188 213.5,-168 259.5,-168 259.5,-188"/>
<text text-anchor="middle" x="236.5" y="-174.5" font-family="Helvetica,sans-Serif" font-size="10.00">tchar.h</text>
</a>
</g>
</g>
<!-- Node2&#45;&gt;Node6 -->
<g id="edge5_Node000002_Node000006" class="edge">
<title>Node2&#45;&gt;Node6</title>
<g id="a_edge5_Node000002_Node000006"><a xlink:title=" ">
<path fill="none" stroke="#63b8ff" d="M181.17,-223.59C190.78,-215.85 204.63,-204.69 216.07,-195.47"/>
<polygon fill="#63b8ff" stroke="#63b8ff" points="218.2,-198.25 223.78,-189.25 213.8,-192.8 218.2,-198.25"/>
</a>
</g>
</g>
<!-- Node8 -->
<g id="Node000008" class="node">
<title>Node8</title>
<g id="a_Node000008"><a xlink:href="_clock_8h.html" target="_top" xlink:title="Déclaration de la classe CClock.">
<polygon fill="white" stroke="#666666" points="327,-188 278,-188 278,-168 327,-168 327,-188"/>
<text text-anchor="middle" x="302.5" y="-174.5" font-family="Helvetica,sans-Serif" font-size="10.00">Clock.h</text>
</a>
</g>
</g>
<!-- Node7&#45;&gt;Node8 -->
<g id="edge7_Node000007_Node000008" class="edge">
<title>Node7&#45;&gt;Node8</title>
<g id="a_edge7_Node000007_Node000008"><a xlink:title=" ">
<path fill="none" stroke="#63b8ff" d="M281.03,-223.59C284.35,-216.7 288.97,-207.1 293.08,-198.57"/>
<polygon fill="#63b8ff" stroke="#63b8ff" points="296.18,-200.19 297.37,-189.66 289.87,-197.15 296.18,-200.19"/>
</a>
</g>
</g>
<!-- Node9 -->
<g id="Node000009" class="node">
<title>Node9</title>
<g id="a_Node000009"><a xlink:href="vecteur2_d_8h.html" target="_top" xlink:title="Déclaration de la classe CVecteur2D.">
<polygon fill="white" stroke="#666666" points="301,-76 234,-76 234,-56 301,-56 301,-76"/>
<text text-anchor="middle" x="267.5" y="-62.5" font-family="Helvetica,sans-Serif" font-size="10.00">vecteur2D.h</text>
</a>
</g>
</g>
<!-- Node8&#45;&gt;Node9 -->
<g id="edge8_Node000008_Node000009" class="edge">
<title>Node8&#45;&gt;Node9</title>
<g id="a_edge8_Node000008_Node000009"><a xlink:title=" ">
<path fill="none" stroke="#63b8ff" d="M294.91,-167.64C288.31,-158.96 279.12,-145.4 274.5,-132 269.56,-117.67 267.87,-100.61 267.38,-87.57"/>
<polygon fill="#63b8ff" stroke="#63b8ff" points="270.88,-87.57 267.24,-77.62 263.88,-87.67 270.88,-87.57"/>
</a>
</g>
</g>
<!-- Node10 -->
<g id="Node000010" class="node">
<title>Node10</title>
<g id="a_Node000010"><a xlink:title=" ">
<polygon fill="#e0e0e0" stroke="#999999" points="225.5,-20 185.5,-20 185.5,0 225.5,0 225.5,-20"/>
<text text-anchor="middle" x="205.5" y="-6.5" font-family="Helvetica,sans-Serif" font-size="10.00">string</text>
</a>
</g>
</g>
<!-- Node8&#45;&gt;Node10 -->
<g id="edge16_Node000008_Node000010" class="edge">
<title>Node8&#45;&gt;Node10</title>
<g id="a_edge16_Node000008_Node000010"><a xlink:title=" ">
<path fill="none" stroke="#63b8ff" d="M293.12,-167.56C276.82,-150.65 243.24,-113.45 224.5,-76 217.4,-61.82 212.51,-44.53 209.47,-31.36"/>
<polygon fill="#63b8ff" stroke="#63b8ff" points="212.92,-30.75 207.42,-21.69 206.07,-32.2 212.92,-30.75"/>
</a>
</g>
</g>
<!-- Node12 -->
<g id="Node000012" class="node">
<title>Node12</title>
<g id="a_Node000012"><a xlink:href="gui_8h.html" target="_top" xlink:title="Déclaration de la classe CGUI.">
<polygon fill="white" stroke="#666666" points="321,-132 284,-132 284,-112 321,-112 321,-132"/>
<text text-anchor="middle" x="302.5" y="-118.5" font-family="Helvetica,sans-Serif" font-size="10.00">gui.h</text>
</a>
</g>
</g>
<!-- Node8&#45;&gt;Node12 -->
<g id="edge11_Node000008_Node000012" class="edge">
<title>Node8&#45;&gt;Node12</title>
<g id="a_edge11_Node000008_Node000012"><a xlink:title=" ">
<path fill="none" stroke="#63b8ff" d="M302.5,-167.59C302.5,-161.01 302.5,-151.96 302.5,-143.73"/>
<polygon fill="#63b8ff" stroke="#63b8ff" points="306,-143.81 302.5,-133.81 299,-143.81 306,-143.81"/>
</a>
</g>
</g>
<!-- Node15 -->
<g id="Node000015" class="node">
<title>Node15</title>
<g id="a_Node000015"><a xlink:title=" ">
<polygon fill="#e0e0e0" stroke="#999999" points="390.12,-132 338.88,-132 338.88,-112 390.12,-112 390.12,-132"/>
<text text-anchor="middle" x="364.5" y="-118.5" font-family="Helvetica,sans-Serif" font-size="10.00">memory</text>
</a>
</g>
</g>
<!-- Node8&#45;&gt;Node15 -->
<g id="edge15_Node000008_Node000015" class="edge">
<title>Node8&#45;&gt;Node15</title>
<g id="a_edge15_Node000008_Node000015"><a xlink:title=" ">
<path fill="none" stroke="#63b8ff" d="M313.3,-167.59C322.1,-159.93 334.75,-148.91 345.27,-139.75"/>
<polygon fill="#63b8ff" stroke="#63b8ff" points="347.44,-142.5 352.68,-133.29 342.84,-137.22 347.44,-142.5"/>
</a>
</g>
</g>
<!-- Node16 -->
<g id="Node000016" class="node">
<title>Node16</title>
<g id="a_Node000016"><a xlink:title=" ">
<polygon fill="#e0e0e0" stroke="#999999" points="453.12,-132 407.88,-132 407.88,-112 453.12,-112 453.12,-132"/>
<text text-anchor="middle" x="430.5" y="-118.5" font-family="Helvetica,sans-Serif" font-size="10.00">chrono</text>
</a>
</g>
</g>
<!-- Node8&#45;&gt;Node16 -->
<g id="edge17_Node000008_Node000016" class="edge">
<title>Node8&#45;&gt;Node16</title>
<g id="a_edge17_Node000008_Node000016"><a xlink:title=" ">
<path fill="none" stroke="#63b8ff" d="M324.8,-167.59C344.86,-159.13 374.62,-146.58 397.45,-136.94"/>
<polygon fill="#63b8ff" stroke="#63b8ff" points="398.78,-140.18 406.64,-133.07 396.06,-133.73 398.78,-140.18"/>
</a>
</g>
</g>
<!-- Node9&#45;&gt;Node10 -->
<g id="edge9_Node000009_Node000010" class="edge">
<title>Node9&#45;&gt;Node10</title>
<g id="a_edge9_Node000009_Node000010"><a xlink:title=" ">
<path fill="none" stroke="#63b8ff" d="M256.7,-55.59C247.9,-47.93 235.25,-36.91 224.73,-27.75"/>
<polygon fill="#63b8ff" stroke="#63b8ff" points="227.16,-25.22 217.32,-21.29 222.56,-30.5 227.16,-25.22"/>
</a>
</g>
</g>
<!-- Node11 -->
<g id="Node000011" class="node">
<title>Node11</title>
<g id="a_Node000011"><a xlink:title=" ">
<polygon fill="#e0e0e0" stroke="#999999" points="297.25,-20 243.75,-20 243.75,0 297.25,0 297.25,-20"/>
<text text-anchor="middle" x="270.5" y="-6.5" font-family="Helvetica,sans-Serif" font-size="10.00">iostream</text>
</a>
</g>
</g>
<!-- Node9&#45;&gt;Node11 -->
<g id="edge10_Node000009_Node000011" class="edge">
<title>Node9&#45;&gt;Node11</title>
<g id="a_edge10_Node000009_Node000011"><a xlink:title=" ">
<path fill="none" stroke="#63b8ff" d="M268.02,-55.59C268.39,-49.01 268.89,-39.96 269.35,-31.73"/>
<polygon fill="#63b8ff" stroke="#63b8ff" points="272.84,-31.99 269.9,-21.81 265.85,-31.6 272.84,-31.99"/>
</a>
</g>
</g>
<!-- Node12&#45;&gt;Node9 -->
<g id="edge14_Node000012_Node000009" class="edge">
<title>Node12&#45;&gt;Node9</title>
<g id="a_edge14_Node000012_Node000009"><a xlink:title=" ">
<path fill="none" stroke="#63b8ff" d="M296.4,-111.59C291.79,-104.47 285.29,-94.45 279.63,-85.72"/>
<polygon fill="#63b8ff" stroke="#63b8ff" points="282.73,-84.06 274.35,-77.57 276.85,-87.86 282.73,-84.06"/>
</a>
</g>
</g>
<!-- Node13 -->
<g id="Node000013" class="node">
<title>Node13</title>
<g id="a_Node000013"><a xlink:href="inc_lib_graph2_8h.html" target="_top" xlink:title="Fichier d&#39;inclusion de la bibliothèque LibGraph2.">
<polygon fill="white" stroke="#666666" points="400.12,-76 318.88,-76 318.88,-56 400.12,-56 400.12,-76"/>
<text text-anchor="middle" x="359.5" y="-62.5" font-family="Helvetica,sans-Serif" font-size="10.00">incLibGraph2.h</text>
</a>
</g>
</g>
<!-- Node12&#45;&gt;Node13 -->
<g id="edge12_Node000012_Node000013" class="edge">
<title>Node12&#45;&gt;Node13</title>
<g id="a_edge12_Node000012_Node000013"><a xlink:title=" ">
<path fill="none" stroke="#63b8ff" d="M312.43,-111.59C320.44,-104.01 331.92,-93.13 341.53,-84.02"/>
<polygon fill="#63b8ff" stroke="#63b8ff" points="343.73,-86.76 348.59,-77.34 338.92,-81.68 343.73,-86.76"/>
</a>
</g>
</g>
<!-- Node14 -->
<g id="Node000014" class="node">
<title>Node14</title>
<g id="a_Node000014"><a xlink:title=" ">
<polygon fill="#e0e0e0" stroke="#999999" points="393.75,-20 325.25,-20 325.25,0 393.75,0 393.75,-20"/>
<text text-anchor="middle" x="359.5" y="-6.5" font-family="Helvetica,sans-Serif" font-size="10.00">LibGraph2.h</text>
</a>
</g>
</g>
<!-- Node13&#45;&gt;Node14 -->
<g id="edge13_Node000013_Node000014" class="edge">
<title>Node13&#45;&gt;Node14</title>
<g id="a_edge13_Node000013_Node000014"><a xlink:title=" ">
<path fill="none" stroke="#63b8ff" d="M359.5,-55.59C359.5,-49.01 359.5,-39.96 359.5,-31.73"/>
<polygon fill="#63b8ff" stroke="#63b8ff" points="363,-31.81 359.5,-21.81 356,-31.81 363,-31.81"/>
</a>
</g>
</g>
</g>
</svg>
</svg>

<style type='text/css'>
<![CDATA[
[data-mouse-over-selected='false'] { opacity: 0.7; }
[data-mouse-over-selected='true']  { opacity: 1.0; }
]]>
</style>
<script type="application/ecmascript"><![CDATA[
document.addEventListener('DOMContentLoaded', (event) => {
  highlightEdges();
  highlightAdjacentNodes();
});
]]></script>
</svg>
