<?xml version="1.0" encoding="UTF-8" standalone="no"?>
<!DOCTYPE svg PUBLIC "-//W3C//DTD SVG 1.1//EN"
 "http://www.w3.org/Graphics/SVG/1.1/DTD/svg11.dtd">
<!-- Generated by graphviz version 10.0.1 (20240210.2158)
 -->
<!-- Title: StdAfx.h Pages: 1 -->
<svg width="721pt" height="84pt"
 viewBox="0.00 0.00 720.62 84.00" xmlns="http://www.w3.org/2000/svg" xmlns:xlink="http://www.w3.org/1999/xlink">
<g id="graph0" class="graph" transform="scale(1 1) rotate(0) translate(4 80)">
<title>StdAfx.h</title>
<!-- Node1 -->
<g id="Node000001" class="node">
<title>Node1</title>
<g id="a_Node000001"><a xlink:title="Fichier de gestion des en&#45;têtes précompilées.">
<polygon fill="#999999" stroke="#666666" points="409.62,-76 356.12,-76 356.12,-56 409.62,-56 409.62,-76"/>
<text text-anchor="middle" x="382.88" y="-62.5" font-family="Helvetica,sans-Serif" font-size="10.00">StdAfx.h</text>
</a>
</g>
</g>
<!-- Node2 -->
<g id="Node000002" class="node">
<title>Node2</title>
<g id="a_Node000002"><a xlink:href="_auto_clock_8cpp.html" target="_top" xlink:title="Définition de la classe CAutoClock.">
<polygon fill="white" stroke="#666666" points="79.75,-20 0,-20 0,0 79.75,0 79.75,-20"/>
<text text-anchor="middle" x="39.88" y="-6.5" font-family="Helvetica,sans-Serif" font-size="10.00">AutoClock.cpp</text>
</a>
</g>
</g>
<!-- Node1&#45;&gt;Node2 -->
<g id="edge1_Node000001_Node000002" class="edge">
<title>Node1&#45;&gt;Node2</title>
<g id="a_edge1_Node000001_Node000002"><a xlink:title=" ">
<path fill="none" stroke="#63b8ff" d="M344.49,-59.5C288.3,-51.36 180.39,-35.4 88.88,-20 86.06,-19.53 83.16,-19.03 80.23,-18.51"/>
<polygon fill="#63b8ff" stroke="#63b8ff" points="343.78,-62.93 354.18,-60.9 344.78,-56 343.78,-62.93"/>
</a>
</g>
</g>
<!-- Node3 -->
<g id="Node000003" class="node">
<title>Node3</title>
<g id="a_Node000003"><a xlink:href="_clock_8cpp.html" target="_top" xlink:title="Définition de la classe CClock.">
<polygon fill="white" stroke="#666666" points="157.62,-20 98.12,-20 98.12,0 157.62,0 157.62,-20"/>
<text text-anchor="middle" x="127.88" y="-6.5" font-family="Helvetica,sans-Serif" font-size="10.00">Clock.cpp</text>
</a>
</g>
</g>
<!-- Node1&#45;&gt;Node3 -->
<g id="edge2_Node000001_Node000003" class="edge">
<title>Node1&#45;&gt;Node3</title>
<g id="a_edge2_Node000001_Node000003"><a xlink:title=" ">
<path fill="none" stroke="#63b8ff" d="M344.79,-57.32C301.59,-48.55 229.08,-33.66 166.88,-20 164.02,-19.37 161.06,-18.71 158.09,-18.04"/>
<polygon fill="#63b8ff" stroke="#63b8ff" points="343.92,-60.72 354.41,-59.27 345.31,-53.86 343.92,-60.72"/>
</a>
</g>
</g>
<!-- Node4 -->
<g id="Node000004" class="node">
<title>Node4</title>
<g id="a_Node000004"><a xlink:href="_mech_clock_8cpp.html" target="_top" xlink:title="Définition de la classe CMechClock.">
<polygon fill="white" stroke="#666666" points="259.62,-20 176.12,-20 176.12,0 259.62,0 259.62,-20"/>
<text text-anchor="middle" x="217.88" y="-6.5" font-family="Helvetica,sans-Serif" font-size="10.00">MechClock.cpp</text>
</a>
</g>
</g>
<!-- Node1&#45;&gt;Node4 -->
<g id="edge3_Node000001_Node000004" class="edge">
<title>Node1&#45;&gt;Node4</title>
<g id="a_edge3_Node000001_Node000004"><a xlink:title=" ">
<path fill="none" stroke="#63b8ff" d="M344.78,-52.53C314.93,-42.76 274.04,-29.38 246.83,-20.48"/>
<polygon fill="#63b8ff" stroke="#63b8ff" points="343.6,-55.83 354.19,-55.61 345.77,-49.18 343.6,-55.83"/>
</a>
</g>
</g>
<!-- Node5 -->
<g id="Node000005" class="node">
<title>Node5</title>
<g id="a_Node000005"><a xlink:href="_std_afx_8cpp.html" target="_top" xlink:title="Fichier de gestion des en&#45;têtes précompilées.">
<polygon fill="white" stroke="#666666" points="341.88,-20 277.88,-20 277.88,0 341.88,0 341.88,-20"/>
<text text-anchor="middle" x="309.88" y="-6.5" font-family="Helvetica,sans-Serif" font-size="10.00">StdAfx.cpp</text>
</a>
</g>
</g>
<!-- Node1&#45;&gt;Node5 -->
<g id="edge4_Node000001_Node000005" class="edge">
<title>Node1&#45;&gt;Node5</title>
<g id="a_edge4_Node000001_Node000005"><a xlink:title=" ">
<path fill="none" stroke="#63b8ff" d="M361.18,-48.95C348.56,-39.61 333.08,-28.16 322.44,-20.3"/>
<polygon fill="#63b8ff" stroke="#63b8ff" points="358.82,-51.56 368.94,-54.69 362.98,-45.93 358.82,-51.56"/>
</a>
</g>
</g>
<!-- Node6 -->
<g id="Node000006" class="node">
<title>Node6</title>
<g id="a_Node000006"><a xlink:href="_t_p_8cpp.html" target="_top" xlink:title="Définition de la classe CTP.">
<polygon fill="white" stroke="#666666" points="406.25,-20 359.5,-20 359.5,0 406.25,0 406.25,-20"/>
<text text-anchor="middle" x="382.88" y="-6.5" font-family="Helvetica,sans-Serif" font-size="10.00">TP.cpp</text>
</a>
</g>
</g>
<!-- Node1&#45;&gt;Node6 -->
<g id="edge5_Node000001_Node000006" class="edge">
<title>Node1&#45;&gt;Node6</title>
<g id="a_edge5_Node000001_Node000006"><a xlink:title=" ">
<path fill="none" stroke="#63b8ff" d="M382.88,-44.13C382.88,-35.9 382.88,-26.85 382.88,-20.3"/>
<polygon fill="#63b8ff" stroke="#63b8ff" points="379.38,-44.08 382.88,-54.08 386.38,-44.08 379.38,-44.08"/>
</a>
</g>
</g>
<!-- Node7 -->
<g id="Node000007" class="node">
<title>Node7</title>
<g id="a_Node000007"><a xlink:href="_wall_8cpp.html" target="_top" xlink:title="Définition de la classe CWall.">
<polygon fill="white" stroke="#666666" points="479,-20 424.75,-20 424.75,0 479,0 479,-20"/>
<text text-anchor="middle" x="451.88" y="-6.5" font-family="Helvetica,sans-Serif" font-size="10.00">Wall.cpp</text>
</a>
</g>
</g>
<!-- Node1&#45;&gt;Node7 -->
<g id="edge6_Node000001_Node000007" class="edge">
<title>Node1&#45;&gt;Node7</title>
<g id="a_edge6_Node000001_Node000007"><a xlink:title=" ">
<path fill="none" stroke="#63b8ff" d="M403.73,-48.68C415.6,-39.39 430.04,-28.09 439.99,-20.3"/>
<polygon fill="#63b8ff" stroke="#63b8ff" points="401.8,-45.74 396.09,-54.66 406.12,-51.25 401.8,-45.74"/>
</a>
</g>
</g>
<!-- Node8 -->
<g id="Node000008" class="node">
<title>Node8</title>
<g id="a_Node000008"><a xlink:href="gui_8cpp.html" target="_top" xlink:title="Définition de la classe CGUI.">
<polygon fill="white" stroke="#666666" points="544.62,-20 497.12,-20 497.12,0 544.62,0 544.62,-20"/>
<text text-anchor="middle" x="520.88" y="-6.5" font-family="Helvetica,sans-Serif" font-size="10.00">gui.cpp</text>
</a>
</g>
</g>
<!-- Node1&#45;&gt;Node8 -->
<g id="edge7_Node000001_Node000008" class="edge">
<title>Node1&#45;&gt;Node8</title>
<g id="a_edge7_Node000001_Node000008"><a xlink:title=" ">
<path fill="none" stroke="#63b8ff" d="M417.63,-51.4C442.28,-41.75 474.76,-29.05 496.65,-20.48"/>
<polygon fill="#63b8ff" stroke="#63b8ff" points="416.36,-48.14 408.32,-55.04 418.91,-54.66 416.36,-48.14"/>
</a>
</g>
</g>
<!-- Node9 -->
<g id="Node000009" class="node">
<title>Node9</title>
<g id="a_Node000009"><a xlink:href="prog_8cpp.html" target="_top" xlink:title="Programme principal.">
<polygon fill="white" stroke="#666666" points="616.62,-20 563.12,-20 563.12,0 616.62,0 616.62,-20"/>
<text text-anchor="middle" x="589.88" y="-6.5" font-family="Helvetica,sans-Serif" font-size="10.00">prog.cpp</text>
</a>
</g>
</g>
<!-- Node1&#45;&gt;Node9 -->
<g id="edge8_Node000001_Node000009" class="edge">
<title>Node1&#45;&gt;Node9</title>
<g id="a_edge8_Node000001_Node000009"><a xlink:title=" ">
<path fill="none" stroke="#63b8ff" d="M420.87,-55.09C461.99,-44.36 526.54,-27.52 562.81,-18.06"/>
<polygon fill="#63b8ff" stroke="#63b8ff" points="420.19,-51.65 411.4,-57.56 421.96,-58.42 420.19,-51.65"/>
</a>
</g>
</g>
<!-- Node10 -->
<g id="Node000010" class="node">
<title>Node10</title>
<g id="a_Node000010"><a xlink:href="vecteur2_d_8cpp.html" target="_top" xlink:title="Définition de la classe CVecteur2D.">
<polygon fill="white" stroke="#666666" points="712.62,-20 635.12,-20 635.12,0 712.62,0 712.62,-20"/>
<text text-anchor="middle" x="673.88" y="-6.5" font-family="Helvetica,sans-Serif" font-size="10.00">vecteur2D.cpp</text>
</a>
</g>
</g>
<!-- Node1&#45;&gt;Node10 -->
<g id="edge9_Node000001_Node000010" class="edge">
<title>Node1&#45;&gt;Node10</title>
<g id="a_edge9_Node000001_Node000010"><a xlink:title=" ">
<path fill="none" stroke="#63b8ff" d="M420.9,-57.99C468.74,-49.15 553.4,-33.51 625.88,-20 628.79,-19.46 631.81,-18.89 634.84,-18.33"/>
<polygon fill="#63b8ff" stroke="#63b8ff" points="420.53,-54.49 411.34,-59.75 421.81,-61.38 420.53,-54.49"/>
</a>
</g>
</g>
</g>
</svg>
