<?xml version="1.0" encoding="UTF-8" standalone="no"?>
<!DOCTYPE svg PUBLIC "-//W3C//DTD SVG 1.1//EN"
 "http://www.w3.org/Graphics/SVG/1.1/DTD/svg11.dtd">
<!-- Generated by graphviz version 10.0.1 (20240210.2158)
 -->
<!-- Title: TP.h Pages: 1 -->
<svg width="313pt" height="308pt"
 viewBox="0.00 0.00 313.18 308.00" xmlns="http://www.w3.org/2000/svg" xmlns:xlink="http://www.w3.org/1999/xlink">
<g id="graph0" class="graph" transform="scale(1 1) rotate(0) translate(4 304)">
<title>TP.h</title>
<!-- Node1 -->
<g id="Node000001" class="node">
<title>Node1</title>
<g id="a_Node000001"><a xlink:title="Déclaration de la classe CTP.">
<polygon fill="#999999" stroke="#666666" points="213.68,-300 177.43,-300 177.43,-280 213.68,-280 213.68,-300"/>
<text text-anchor="middle" x="195.56" y="-286.5" font-family="Helvetica,sans-Serif" font-size="10.00">TP.h</text>
</a>
</g>
</g>
<!-- Node2 -->
<g id="Node000002" class="node">
<title>Node2</title>
<g id="a_Node000002"><a xlink:href="vecteur2_d_8h.html" target="_top" xlink:title="Déclaration de la classe CVecteur2D.">
<polygon fill="white" stroke="#666666" points="164.06,-76 97.06,-76 97.06,-56 164.06,-56 164.06,-76"/>
<text text-anchor="middle" x="130.56" y="-62.5" font-family="Helvetica,sans-Serif" font-size="10.00">vecteur2D.h</text>
</a>
</g>
</g>
<!-- Node1&#45;&gt;Node2 -->
<g id="edge1_Node000001_Node000002" class="edge">
<title>Node1&#45;&gt;Node2</title>
<g id="a_edge1_Node000001_Node000002"><a xlink:title=" ">
<path fill="none" stroke="#63b8ff" d="M176.98,-286.94C136.66,-282.03 43.25,-268.25 24.56,-244 -0.82,-211.08 -28.07,-233.12 65.56,-112 74.94,-99.87 88.51,-89.76 100.83,-82.21"/>
<polygon fill="#63b8ff" stroke="#63b8ff" points="102.53,-85.27 109.45,-77.24 99.04,-79.2 102.53,-85.27"/>
</a>
</g>
</g>
<!-- Node5 -->
<g id="Node000005" class="node">
<title>Node5</title>
<g id="a_Node000005"><a xlink:href="_wall_8h.html" target="_top" xlink:title="Déclaration de la classe CWall.">
<polygon fill="white" stroke="#666666" points="255.43,-244 211.68,-244 211.68,-224 255.43,-224 255.43,-244"/>
<text text-anchor="middle" x="233.56" y="-230.5" font-family="Helvetica,sans-Serif" font-size="10.00">Wall.h</text>
</a>
</g>
</g>
<!-- Node1&#45;&gt;Node5 -->
<g id="edge4_Node000001_Node000005" class="edge">
<title>Node1&#45;&gt;Node5</title>
<g id="a_edge4_Node000001_Node000005"><a xlink:title=" ">
<path fill="none" stroke="#63b8ff" d="M202.18,-279.59C207.25,-272.39 214.39,-262.23 220.59,-253.43"/>
<polygon fill="#63b8ff" stroke="#63b8ff" points="223.25,-255.73 226.14,-245.54 217.53,-251.7 223.25,-255.73"/>
</a>
</g>
</g>
<!-- Node7 -->
<g id="Node000007" class="node">
<title>Node7</title>
<g id="a_Node000007"><a xlink:href="gui_8h.html" target="_top" xlink:title="Déclaration de la classe CGUI.">
<polygon fill="white" stroke="#666666" points="283.06,-132 246.06,-132 246.06,-112 283.06,-112 283.06,-132"/>
<text text-anchor="middle" x="264.56" y="-118.5" font-family="Helvetica,sans-Serif" font-size="10.00">gui.h</text>
</a>
</g>
</g>
<!-- Node1&#45;&gt;Node7 -->
<g id="edge21_Node000001_Node000007" class="edge">
<title>Node1&#45;&gt;Node7</title>
<g id="a_edge21_Node000001_Node000007"><a xlink:title=" ">
<path fill="none" stroke="#63b8ff" d="M214.02,-285.13C234.39,-279.76 266.18,-267.89 280.56,-244 299.61,-212.36 285.3,-167.71 274.23,-142.44"/>
<polygon fill="#63b8ff" stroke="#63b8ff" points="277.54,-141.26 270.14,-133.67 271.2,-144.22 277.54,-141.26"/>
</a>
</g>
</g>
<!-- Node10 -->
<g id="Node000010" class="node">
<title>Node10</title>
<g id="a_Node000010"><a xlink:title=" ">
<polygon fill="#e0e0e0" stroke="#999999" points="228.18,-132 176.93,-132 176.93,-112 228.18,-112 228.18,-132"/>
<text text-anchor="middle" x="202.56" y="-118.5" font-family="Helvetica,sans-Serif" font-size="10.00">memory</text>
</a>
</g>
</g>
<!-- Node1&#45;&gt;Node10 -->
<g id="edge22_Node000001_Node000010" class="edge">
<title>Node1&#45;&gt;Node10</title>
<g id="a_edge22_Node000001_Node000010"><a xlink:title=" ">
<path fill="none" stroke="#63b8ff" d="M214.05,-282.75C230.63,-276.04 253.93,-263.62 264.56,-244 284.38,-207.4 247.48,-163.81 222.59,-140.22"/>
<polygon fill="#63b8ff" stroke="#63b8ff" points="224.96,-137.65 215.21,-133.51 220.25,-142.83 224.96,-137.65"/>
</a>
</g>
</g>
<!-- Node13 -->
<g id="Node000013" class="node">
<title>Node13</title>
<g id="a_Node000013"><a xlink:href="_mech_clock_8h.html" target="_top" xlink:title="Déclaration de la classe CMechClock.">
<polygon fill="white" stroke="#666666" points="194.06,-244 121.06,-244 121.06,-224 194.06,-224 194.06,-244"/>
<text text-anchor="middle" x="157.56" y="-230.5" font-family="Helvetica,sans-Serif" font-size="10.00">MechClock.h</text>
</a>
</g>
</g>
<!-- Node1&#45;&gt;Node13 -->
<g id="edge17_Node000001_Node000013" class="edge">
<title>Node1&#45;&gt;Node13</title>
<g id="a_edge17_Node000001_Node000013"><a xlink:title=" ">
<path fill="none" stroke="#63b8ff" d="M188.94,-279.59C183.87,-272.39 176.72,-262.23 170.53,-253.43"/>
<polygon fill="#63b8ff" stroke="#63b8ff" points="173.59,-251.7 164.97,-245.54 167.87,-255.73 173.59,-251.7"/>
</a>
</g>
</g>
<!-- Node14 -->
<g id="Node000014" class="node">
<title>Node14</title>
<g id="a_Node000014"><a xlink:href="_auto_clock_8h.html" target="_top" xlink:title="Déclaration de la classe CAutoClock.">
<polygon fill="white" stroke="#666666" points="103.18,-244 33.93,-244 33.93,-224 103.18,-224 103.18,-244"/>
<text text-anchor="middle" x="68.56" y="-230.5" font-family="Helvetica,sans-Serif" font-size="10.00">AutoClock.h</text>
</a>
</g>
</g>
<!-- Node1&#45;&gt;Node14 -->
<g id="edge19_Node000001_Node000014" class="edge">
<title>Node1&#45;&gt;Node14</title>
<g id="a_edge19_Node000001_Node000014"><a xlink:title=" ">
<path fill="none" stroke="#63b8ff" d="M177.09,-281.15C157.29,-272.73 125.44,-259.18 101.35,-248.94"/>
<polygon fill="#63b8ff" stroke="#63b8ff" points="102.87,-245.78 92.29,-245.09 100.13,-252.23 102.87,-245.78"/>
</a>
</g>
</g>
<!-- Node3 -->
<g id="Node000003" class="node">
<title>Node3</title>
<g id="a_Node000003"><a xlink:title=" ">
<polygon fill="#e0e0e0" stroke="#999999" points="76.56,-20 36.56,-20 36.56,0 76.56,0 76.56,-20"/>
<text text-anchor="middle" x="56.56" y="-6.5" font-family="Helvetica,sans-Serif" font-size="10.00">string</text>
</a>
</g>
</g>
<!-- Node2&#45;&gt;Node3 -->
<g id="edge2_Node000002_Node000003" class="edge">
<title>Node2&#45;&gt;Node3</title>
<g id="a_edge2_Node000002_Node000003"><a xlink:title=" ">
<path fill="none" stroke="#63b8ff" d="M117.67,-55.59C106.85,-47.7 91.15,-36.24 78.37,-26.92"/>
<polygon fill="#63b8ff" stroke="#63b8ff" points="80.66,-24.26 70.52,-21.19 76.54,-29.91 80.66,-24.26"/>
</a>
</g>
</g>
<!-- Node4 -->
<g id="Node000004" class="node">
<title>Node4</title>
<g id="a_Node000004"><a xlink:title=" ">
<polygon fill="#e0e0e0" stroke="#999999" points="157.31,-20 103.81,-20 103.81,0 157.31,0 157.31,-20"/>
<text text-anchor="middle" x="130.56" y="-6.5" font-family="Helvetica,sans-Serif" font-size="10.00">iostream</text>
</a>
</g>
</g>
<!-- Node2&#45;&gt;Node4 -->
<g id="edge3_Node000002_Node000004" class="edge">
<title>Node2&#45;&gt;Node4</title>
<g id="a_edge3_Node000002_Node000004"><a xlink:title=" ">
<path fill="none" stroke="#63b8ff" d="M130.56,-55.59C130.56,-49.01 130.56,-39.96 130.56,-31.73"/>
<polygon fill="#63b8ff" stroke="#63b8ff" points="134.06,-31.81 130.56,-21.81 127.06,-31.81 134.06,-31.81"/>
</a>
</g>
</g>
<!-- Node6 -->
<g id="Node000006" class="node">
<title>Node6</title>
<g id="a_Node000006"><a xlink:href="_clock_8h.html" target="_top" xlink:title="Déclaration de la classe CClock.">
<polygon fill="white" stroke="#666666" points="124.06,-188 75.06,-188 75.06,-168 124.06,-168 124.06,-188"/>
<text text-anchor="middle" x="99.56" y="-174.5" font-family="Helvetica,sans-Serif" font-size="10.00">Clock.h</text>
</a>
</g>
</g>
<!-- Node5&#45;&gt;Node6 -->
<g id="edge5_Node000005_Node000006" class="edge">
<title>Node5&#45;&gt;Node6</title>
<g id="a_edge5_Node000005_Node000006"><a xlink:title=" ">
<path fill="none" stroke="#63b8ff" d="M211.43,-224.08C190.29,-215.56 158.11,-202.6 133.68,-192.75"/>
<polygon fill="#63b8ff" stroke="#63b8ff" points="135.06,-189.53 124.48,-189.04 132.44,-196.03 135.06,-189.53"/>
</a>
</g>
</g>
<!-- Node5&#45;&gt;Node7 -->
<g id="edge14_Node000005_Node000007" class="edge">
<title>Node5&#45;&gt;Node7</title>
<g id="a_edge14_Node000005_Node000007"><a xlink:title=" ">
<path fill="none" stroke="#63b8ff" d="M236.2,-223.62C241.19,-205.92 252.09,-167.24 258.83,-143.32"/>
<polygon fill="#63b8ff" stroke="#63b8ff" points="262.17,-144.39 261.51,-133.81 255.43,-142.49 262.17,-144.39"/>
</a>
</g>
</g>
<!-- Node5&#45;&gt;Node10 -->
<g id="edge16_Node000005_Node000010" class="edge">
<title>Node5&#45;&gt;Node10</title>
<g id="a_edge16_Node000005_Node000010"><a xlink:title=" ">
<path fill="none" stroke="#63b8ff" d="M230.92,-223.62C225.93,-205.92 215.03,-167.24 208.29,-143.32"/>
<polygon fill="#63b8ff" stroke="#63b8ff" points="211.69,-142.49 205.61,-133.81 204.95,-144.39 211.69,-142.49"/>
</a>
</g>
</g>
<!-- Node12 -->
<g id="Node000012" class="node">
<title>Node12</title>
<g id="a_Node000012"><a xlink:title=" ">
<polygon fill="#e0e0e0" stroke="#999999" points="179.43,-188 141.68,-188 141.68,-168 179.43,-168 179.43,-188"/>
<text text-anchor="middle" x="160.56" y="-174.5" font-family="Helvetica,sans-Serif" font-size="10.00">array</text>
</a>
</g>
</g>
<!-- Node5&#45;&gt;Node12 -->
<g id="edge15_Node000005_Node000012" class="edge">
<title>Node5&#45;&gt;Node12</title>
<g id="a_edge15_Node000005_Node000012"><a xlink:title=" ">
<path fill="none" stroke="#63b8ff" d="M220.84,-223.59C210.17,-215.7 194.68,-204.24 182.08,-194.92"/>
<polygon fill="#63b8ff" stroke="#63b8ff" points="184.47,-192.33 174.35,-189.2 180.3,-197.96 184.47,-192.33"/>
</a>
</g>
</g>
<!-- Node6&#45;&gt;Node2 -->
<g id="edge6_Node000006_Node000002" class="edge">
<title>Node6&#45;&gt;Node2</title>
<g id="a_edge6_Node000006_Node000002"><a xlink:title=" ">
<path fill="none" stroke="#63b8ff" d="M108.29,-167.5C115.54,-158.94 125.32,-145.63 129.56,-132 134.04,-117.61 134.12,-100.56 133.17,-87.52"/>
<polygon fill="#63b8ff" stroke="#63b8ff" points="136.65,-87.18 132.15,-77.59 129.69,-87.89 136.65,-87.18"/>
</a>
</g>
</g>
<!-- Node6&#45;&gt;Node3 -->
<g id="edge12_Node000006_Node000003" class="edge">
<title>Node6&#45;&gt;Node3</title>
<g id="a_edge12_Node000006_Node000003"><a xlink:title=" ">
<path fill="none" stroke="#63b8ff" d="M89.88,-167.65C81.81,-159.18 70.81,-145.93 65.56,-132 52.96,-98.6 53.1,-56.4 54.63,-31.68"/>
<polygon fill="#63b8ff" stroke="#63b8ff" points="58.1,-32.24 55.38,-22 51.12,-31.7 58.1,-32.24"/>
</a>
</g>
</g>
<!-- Node6&#45;&gt;Node7 -->
<g id="edge7_Node000006_Node000007" class="edge">
<title>Node6&#45;&gt;Node7</title>
<g id="a_edge7_Node000006_Node000007"><a xlink:title=" ">
<path fill="none" stroke="#63b8ff" d="M124.5,-168.92C150.05,-160.63 191.18,-147.26 234.84,-132.88"/>
<polygon fill="#63b8ff" stroke="#63b8ff" points="235.84,-136.24 244.24,-129.78 233.65,-129.59 235.84,-136.24"/>
</a>
</g>
</g>
<!-- Node6&#45;&gt;Node10 -->
<g id="edge11_Node000006_Node000010" class="edge">
<title>Node6&#45;&gt;Node10</title>
<g id="a_edge11_Node000006_Node000010"><a xlink:title=" ">
<path fill="none" stroke="#63b8ff" d="M117.5,-167.59C133.21,-159.36 156.29,-147.26 174.45,-137.74"/>
<polygon fill="#63b8ff" stroke="#63b8ff" points="175.91,-140.93 183.14,-133.18 172.66,-134.73 175.91,-140.93"/>
</a>
</g>
</g>
<!-- Node11 -->
<g id="Node000011" class="node">
<title>Node11</title>
<g id="a_Node000011"><a xlink:title=" ">
<polygon fill="#e0e0e0" stroke="#999999" points="120.18,-132 74.93,-132 74.93,-112 120.18,-112 120.18,-132"/>
<text text-anchor="middle" x="97.56" y="-118.5" font-family="Helvetica,sans-Serif" font-size="10.00">chrono</text>
</a>
</g>
</g>
<!-- Node6&#45;&gt;Node11 -->
<g id="edge13_Node000006_Node000011" class="edge">
<title>Node6&#45;&gt;Node11</title>
<g id="a_edge13_Node000006_Node000011"><a xlink:title=" ">
<path fill="none" stroke="#63b8ff" d="M99.21,-167.59C98.97,-161.01 98.63,-151.96 98.33,-143.73"/>
<polygon fill="#63b8ff" stroke="#63b8ff" points="101.83,-143.67 97.96,-133.81 94.83,-143.93 101.83,-143.67"/>
</a>
</g>
</g>
<!-- Node7&#45;&gt;Node2 -->
<g id="edge10_Node000007_Node000002" class="edge">
<title>Node7&#45;&gt;Node2</title>
<g id="a_edge10_Node000007_Node000002"><a xlink:title=" ">
<path fill="none" stroke="#63b8ff" d="M245.64,-113.38C224.56,-104.88 190.05,-90.97 164.31,-80.6"/>
<polygon fill="#63b8ff" stroke="#63b8ff" points="165.87,-77.46 155.28,-76.96 163.25,-83.95 165.87,-77.46"/>
</a>
</g>
</g>
<!-- Node8 -->
<g id="Node000008" class="node">
<title>Node8</title>
<g id="a_Node000008"><a xlink:href="inc_lib_graph2_8h.html" target="_top" xlink:title="Fichier d&#39;inclusion de la bibliothèque LibGraph2.">
<polygon fill="white" stroke="#666666" points="305.18,-76 223.93,-76 223.93,-56 305.18,-56 305.18,-76"/>
<text text-anchor="middle" x="264.56" y="-62.5" font-family="Helvetica,sans-Serif" font-size="10.00">incLibGraph2.h</text>
</a>
</g>
</g>
<!-- Node7&#45;&gt;Node8 -->
<g id="edge8_Node000007_Node000008" class="edge">
<title>Node7&#45;&gt;Node8</title>
<g id="a_edge8_Node000007_Node000008"><a xlink:title=" ">
<path fill="none" stroke="#63b8ff" d="M264.56,-111.59C264.56,-105.01 264.56,-95.96 264.56,-87.73"/>
<polygon fill="#63b8ff" stroke="#63b8ff" points="268.06,-87.81 264.56,-77.81 261.06,-87.81 268.06,-87.81"/>
</a>
</g>
</g>
<!-- Node9 -->
<g id="Node000009" class="node">
<title>Node9</title>
<g id="a_Node000009"><a xlink:title=" ">
<polygon fill="#e0e0e0" stroke="#999999" points="298.81,-20 230.31,-20 230.31,0 298.81,0 298.81,-20"/>
<text text-anchor="middle" x="264.56" y="-6.5" font-family="Helvetica,sans-Serif" font-size="10.00">LibGraph2.h</text>
</a>
</g>
</g>
<!-- Node8&#45;&gt;Node9 -->
<g id="edge9_Node000008_Node000009" class="edge">
<title>Node8&#45;&gt;Node9</title>
<g id="a_edge9_Node000008_Node000009"><a xlink:title=" ">
<path fill="none" stroke="#63b8ff" d="M264.56,-55.59C264.56,-49.01 264.56,-39.96 264.56,-31.73"/>
<polygon fill="#63b8ff" stroke="#63b8ff" points="268.06,-31.81 264.56,-21.81 261.06,-31.81 268.06,-31.81"/>
</a>
</g>
</g>
<!-- Node13&#45;&gt;Node6 -->
<g id="edge18_Node000013_Node000006" class="edge">
<title>Node13&#45;&gt;Node6</title>
<g id="a_edge18_Node000013_Node000006"><a xlink:title=" ">
<path fill="none" stroke="#63b8ff" d="M147.46,-223.59C139.31,-216.01 127.63,-205.13 117.84,-196.02"/>
<polygon fill="#63b8ff" stroke="#63b8ff" points="120.36,-193.58 110.65,-189.33 115.59,-198.71 120.36,-193.58"/>
</a>
</g>
</g>
<!-- Node14&#45;&gt;Node6 -->
<g id="edge20_Node000014_Node000006" class="edge">
<title>Node14&#45;&gt;Node6</title>
<g id="a_edge20_Node000014_Node000006"><a xlink:title=" ">
<path fill="none" stroke="#63b8ff" d="M73.96,-223.59C78,-216.55 83.67,-206.67 88.65,-198"/>
<polygon fill="#63b8ff" stroke="#63b8ff" points="91.52,-200.03 93.47,-189.61 85.45,-196.54 91.52,-200.03"/>
</a>
</g>
</g>
</g>
</svg>
