<?xml version="1.0" encoding="UTF-8" standalone="no"?>
<!DOCTYPE svg PUBLIC "-//W3C//DTD SVG 1.1//EN"
 "http://www.w3.org/Graphics/SVG/1.1/DTD/svg11.dtd">
<!-- Generated by graphviz version 10.0.1 (20240210.2158)
 -->
<!-- Title: TP.cpp Pages: 1 -->
<!--zoomable 364 -->

<svg id="main" version="1.1" xmlns="http://www.w3.org/2000/svg" xmlns:xlink="http://www.w3.org/1999/xlink" xml:space="preserve" onload="init(evt)">
<style type="text/css"><![CDATA[
.node, .edge {opacity: 0.7;}
.node.selected, .edge.selected {opacity: 1;}
.edge:hover path { stroke: red; }
.edge:hover polygon { stroke: red; fill: red; }
]]></style>

<defs>
  <circle id="rim" cx="0" cy="0" r="7"/>
  <circle id="rim2" cx="0" cy="0" r="3.5"/>
  <g id="zoomPlus">
    <use xlink:href="#rim" fill="#404040"><set attributeName="fill" to="#808080" begin="zoomplus.mouseover" end="zoomplus.mouseout"/></use>
    <path d="M-4,0h8M0,-4v8" fill="none" stroke="white" stroke-width="1.5" pointer-events="none"/>
  </g>
  <g id="zoomMin">
    <use xlink:href="#rim" fill="#404040"><set attributeName="fill" to="#808080" begin="zoomminus.mouseover" end="zoomminus.mouseout"/></use>
    <path d="M-4,0h8" fill="none" stroke="white" stroke-width="1.5" pointer-events="none"/>
  </g>
  <g id="arrowUp" transform="translate(30 24)">
    <use xlink:href="#rim"/>
    <path pointer-events="none" fill="none" stroke="white" stroke-width="1.5" d="M0,-3.0v7 M-2.5,-0.5L0,-3.0L2.5,-0.5"/>
  </g>
  <g id="arrowRight" transform="rotate(90) translate(36 -43)">
    <use xlink:href="#rim"/>
    <path pointer-events="none" fill="none" stroke="white" stroke-width="1.5" d="M0,-3.0v7 M-2.5,-0.5L0,-3.0L2.5,-0.5"/>
  </g>
  <g id="arrowDown" transform="rotate(180) translate(-30 -48)">
    <use xlink:href="#rim"/>
    <path pointer-events="none" fill="none" stroke="white" stroke-width="1.5" d="M0,-3.0v7 M-2.5,-0.5L0,-3.0L2.5,-0.5"/>
  </g>
  <g id="arrowLeft" transform="rotate(270) translate(-36 17)">
    <use xlink:href="#rim"/>
    <path pointer-events="none" fill="none" stroke="white" stroke-width="1.5" d="M0,-3.0v7 M-2.5,-0.5L0,-3.0L2.5,-0.5"/>
  </g>
  <g id="resetDef">
    <use xlink:href="#rim2" fill="#404040"><set attributeName="fill" to="#808080" begin="reset.mouseover" end="reset.mouseout"/></use>
  </g>
</defs>
<script type="application/ecmascript">
var viewWidth = 597;
var viewHeight = 364;
var sectionId = 'dynsection-0';
</script>
<script type="application/ecmascript" xlink:href="svg.min.js"/>
<svg id="graph" class="graph">
<g id="viewport">
<title>TP.cpp</title>
<!-- Node1 -->
<g id="Node000001" class="node">
<title>Node1</title>
<g id="a_Node000001"><a xlink:title="Définition de la classe CTP.">
<polygon fill="#999999" stroke="#666666" points="464.88,-356 418.12,-356 418.12,-336 464.88,-336 464.88,-356"/>
<text text-anchor="middle" x="441.5" y="-342.5" font-family="Helvetica,sans-Serif" font-size="10.00">TP.cpp</text>
</a>
</g>
</g>
<!-- Node2 -->
<g id="Node000002" class="node">
<title>Node2</title>
<g id="a_Node000002"><a xlink:href="_std_afx_8h.html" target="_top" xlink:title="Fichier de gestion des en&#45;têtes précompilées.">
<polygon fill="white" stroke="#666666" points="196.25,-300 142.75,-300 142.75,-280 196.25,-280 196.25,-300"/>
<text text-anchor="middle" x="169.5" y="-286.5" font-family="Helvetica,sans-Serif" font-size="10.00">StdAfx.h</text>
</a>
</g>
</g>
<!-- Node1&#45;&gt;Node2 -->
<g id="edge1_Node000001_Node000002" class="edge">
<title>Node1&#45;&gt;Node2</title>
<g id="a_edge1_Node000001_Node000002"><a xlink:title=" ">
<path fill="none" stroke="#63b8ff" d="M417.84,-340.3C370.68,-330.94 264.62,-309.88 207.56,-298.56"/>
<polygon fill="#63b8ff" stroke="#63b8ff" points="208.47,-295.17 197.98,-296.65 207.11,-302.03 208.47,-295.17"/>
</a>
</g>
</g>
<!-- Node7 -->
<g id="Node000007" class="node">
<title>Node7</title>
<g id="a_Node000007"><a xlink:href="_t_p_8h.html" target="_top" xlink:title="Déclaration de la classe CTP.">
<polygon fill="white" stroke="#666666" points="430.62,-300 394.38,-300 394.38,-280 430.62,-280 430.62,-300"/>
<text text-anchor="middle" x="412.5" y="-286.5" font-family="Helvetica,sans-Serif" font-size="10.00">TP.h</text>
</a>
</g>
</g>
<!-- Node1&#45;&gt;Node7 -->
<g id="edge6_Node000001_Node000007" class="edge">
<title>Node1&#45;&gt;Node7</title>
<g id="a_edge6_Node000001_Node000007"><a xlink:title=" ">
<path fill="none" stroke="#63b8ff" d="M436.45,-335.59C432.71,-328.63 427.48,-318.89 422.86,-310.29"/>
<polygon fill="#63b8ff" stroke="#63b8ff" points="426.02,-308.79 418.21,-301.63 419.86,-312.1 426.02,-308.79"/>
</a>
</g>
</g>
<!-- Node21 -->
<g id="Node000021" class="node">
<title>Node21</title>
<g id="a_Node000021"><a xlink:title=" ">
<polygon fill="#e0e0e0" stroke="#999999" points="492,-300 449,-300 449,-280 492,-280 492,-300"/>
<text text-anchor="middle" x="470.5" y="-286.5" font-family="Helvetica,sans-Serif" font-size="10.00">time.h</text>
</a>
</g>
</g>
<!-- Node1&#45;&gt;Node21 -->
<g id="edge29_Node000001_Node000021" class="edge">
<title>Node1&#45;&gt;Node21</title>
<g id="a_edge29_Node000001_Node000021"><a xlink:title=" ">
<path fill="none" stroke="#63b8ff" d="M446.55,-335.59C450.29,-328.63 455.52,-318.89 460.14,-310.29"/>
<polygon fill="#63b8ff" stroke="#63b8ff" points="463.14,-312.1 464.79,-301.63 456.98,-308.79 463.14,-312.1"/>
</a>
</g>
</g>
<!-- Node22 -->
<g id="Node000022" class="node">
<title>Node22</title>
<g id="a_Node000022"><a xlink:title=" ">
<polygon fill="#e0e0e0" stroke="#999999" points="550.5,-300 510.5,-300 510.5,-280 550.5,-280 550.5,-300"/>
<text text-anchor="middle" x="530.5" y="-286.5" font-family="Helvetica,sans-Serif" font-size="10.00">regex</text>
</a>
</g>
</g>
<!-- Node1&#45;&gt;Node22 -->
<g id="edge30_Node000001_Node000022" class="edge">
<title>Node1&#45;&gt;Node22</title>
<g id="a_edge30_Node000001_Node000022"><a xlink:title=" ">
<path fill="none" stroke="#63b8ff" d="M457,-335.59C470.32,-327.51 489.78,-315.71 505.33,-306.27"/>
<polygon fill="#63b8ff" stroke="#63b8ff" points="506.85,-309.44 513.58,-301.26 503.22,-303.46 506.85,-309.44"/>
</a>
</g>
</g>
<!-- Node3 -->
<g id="Node000003" class="node">
<title>Node3</title>
<g id="a_Node000003"><a xlink:title=" ">
<polygon fill="#e0e0e0" stroke="#999999" points="61,-244 0,-244 0,-224 61,-224 61,-244"/>
<text text-anchor="middle" x="30.5" y="-230.5" font-family="Helvetica,sans-Serif" font-size="10.00">windows.h</text>
</a>
</g>
</g>
<!-- Node2&#45;&gt;Node3 -->
<g id="edge2_Node000002_Node000003" class="edge">
<title>Node2&#45;&gt;Node3</title>
<g id="a_edge2_Node000002_Node000003"><a xlink:title=" ">
<path fill="none" stroke="#63b8ff" d="M145.29,-279.59C123.2,-271.01 90.3,-258.23 65.38,-248.55"/>
<polygon fill="#63b8ff" stroke="#63b8ff" points="66.9,-245.39 56.31,-245.03 64.37,-251.91 66.9,-245.39"/>
</a>
</g>
</g>
<!-- Node4 -->
<g id="Node000004" class="node">
<title>Node4</title>
<g id="a_Node000004"><a xlink:title=" ">
<polygon fill="#e0e0e0" stroke="#999999" points="126.25,-244 78.75,-244 78.75,-224 126.25,-224 126.25,-244"/>
<text text-anchor="middle" x="102.5" y="-230.5" font-family="Helvetica,sans-Serif" font-size="10.00">stdlib.h</text>
</a>
</g>
</g>
<!-- Node2&#45;&gt;Node4 -->
<g id="edge3_Node000002_Node000004" class="edge">
<title>Node2&#45;&gt;Node4</title>
<g id="a_edge3_Node000002_Node000004"><a xlink:title=" ">
<path fill="none" stroke="#63b8ff" d="M157.83,-279.59C148.22,-271.85 134.37,-260.69 122.93,-251.47"/>
<polygon fill="#63b8ff" stroke="#63b8ff" points="125.2,-248.8 115.22,-245.25 120.8,-254.25 125.2,-248.8"/>
</a>
</g>
</g>
<!-- Node5 -->
<g id="Node000005" class="node">
<title>Node5</title>
<g id="a_Node000005"><a xlink:title=" ">
<polygon fill="#e0e0e0" stroke="#999999" points="195.12,-244 143.88,-244 143.88,-224 195.12,-224 195.12,-244"/>
<text text-anchor="middle" x="169.5" y="-230.5" font-family="Helvetica,sans-Serif" font-size="10.00">crtdbg.h</text>
</a>
</g>
</g>
<!-- Node2&#45;&gt;Node5 -->
<g id="edge4_Node000002_Node000005" class="edge">
<title>Node2&#45;&gt;Node5</title>
<g id="a_edge4_Node000002_Node000005"><a xlink:title=" ">
<path fill="none" stroke="#63b8ff" d="M169.5,-279.59C169.5,-273.01 169.5,-263.96 169.5,-255.73"/>
<polygon fill="#63b8ff" stroke="#63b8ff" points="173,-255.81 169.5,-245.81 166,-255.81 173,-255.81"/>
</a>
</g>
</g>
<!-- Node6 -->
<g id="Node000006" class="node">
<title>Node6</title>
<g id="a_Node000006"><a xlink:title=" ">
<polygon fill="#e0e0e0" stroke="#999999" points="259.5,-244 213.5,-244 213.5,-224 259.5,-224 259.5,-244"/>
<text text-anchor="middle" x="236.5" y="-230.5" font-family="Helvetica,sans-Serif" font-size="10.00">tchar.h</text>
</a>
</g>
</g>
<!-- Node2&#45;&gt;Node6 -->
<g id="edge5_Node000002_Node000006" class="edge">
<title>Node2&#45;&gt;Node6</title>
<g id="a_edge5_Node000002_Node000006"><a xlink:title=" ">
<path fill="none" stroke="#63b8ff" d="M181.17,-279.59C190.78,-271.85 204.63,-260.69 216.07,-251.47"/>
<polygon fill="#63b8ff" stroke="#63b8ff" points="218.2,-254.25 223.78,-245.25 213.8,-248.8 218.2,-254.25"/>
</a>
</g>
</g>
<!-- Node8 -->
<g id="Node000008" class="node">
<title>Node8</title>
<g id="a_Node000008"><a xlink:href="vecteur2_d_8h.html" target="_top" xlink:title="Déclaration de la classe CVecteur2D.">
<polygon fill="white" stroke="#666666" points="531,-76 464,-76 464,-56 531,-56 531,-76"/>
<text text-anchor="middle" x="497.5" y="-62.5" font-family="Helvetica,sans-Serif" font-size="10.00">vecteur2D.h</text>
</a>
</g>
</g>
<!-- Node7&#45;&gt;Node8 -->
<g id="edge7_Node000007_Node000008" class="edge">
<title>Node7&#45;&gt;Node8</title>
<g id="a_edge7_Node000007_Node000008"><a xlink:title=" ">
<path fill="none" stroke="#63b8ff" d="M430.85,-283.01C434.06,-281.99 437.37,-280.95 440.5,-280 495.8,-263.15 530.32,-289.88 565.5,-244 601.21,-197.43 591.57,-162.98 562.5,-112 555.17,-99.15 542.48,-89.14 530.26,-81.86"/>
<polygon fill="#63b8ff" stroke="#63b8ff" points="532,-78.82 521.55,-77.11 528.65,-84.97 532,-78.82"/>
</a>
</g>
</g>
<!-- Node11 -->
<g id="Node000011" class="node">
<title>Node11</title>
<g id="a_Node000011"><a xlink:href="_wall_8h.html" target="_top" xlink:title="Déclaration de la classe CWall.">
<polygon fill="white" stroke="#666666" points="359.38,-244 315.62,-244 315.62,-224 359.38,-224 359.38,-244"/>
<text text-anchor="middle" x="337.5" y="-230.5" font-family="Helvetica,sans-Serif" font-size="10.00">Wall.h</text>
</a>
</g>
</g>
<!-- Node7&#45;&gt;Node11 -->
<g id="edge10_Node000007_Node000011" class="edge">
<title>Node7&#45;&gt;Node11</title>
<g id="a_edge10_Node000007_Node000011"><a xlink:title=" ">
<path fill="none" stroke="#63b8ff" d="M399.44,-279.59C388.53,-271.74 372.75,-260.38 359.84,-251.09"/>
<polygon fill="#63b8ff" stroke="#63b8ff" points="362.05,-248.37 351.89,-245.36 357.96,-254.05 362.05,-248.37"/>
</a>
</g>
</g>
<!-- Node13 -->
<g id="Node000013" class="node">
<title>Node13</title>
<g id="a_Node000013"><a xlink:href="gui_8h.html" target="_top" xlink:title="Déclaration de la classe CGUI.">
<polygon fill="white" stroke="#666666" points="344,-132 307,-132 307,-112 344,-112 344,-132"/>
<text text-anchor="middle" x="325.5" y="-118.5" font-family="Helvetica,sans-Serif" font-size="10.00">gui.h</text>
</a>
</g>
</g>
<!-- Node7&#45;&gt;Node13 -->
<g id="edge27_Node000007_Node000013" class="edge">
<title>Node7&#45;&gt;Node13</title>
<g id="a_edge27_Node000007_Node000013"><a xlink:title=" ">
<path fill="none" stroke="#63b8ff" d="M394.03,-287.22C369.23,-283.72 326.03,-273.51 306.5,-244 285.95,-212.95 302.4,-167.77 314.85,-142.32"/>
<polygon fill="#63b8ff" stroke="#63b8ff" points="317.79,-144.25 319.28,-133.76 311.57,-141.03 317.79,-144.25"/>
</a>
</g>
</g>
<!-- Node16 -->
<g id="Node000016" class="node">
<title>Node16</title>
<g id="a_Node000016"><a xlink:title=" ">
<polygon fill="#e0e0e0" stroke="#999999" points="553.12,-132 501.88,-132 501.88,-112 553.12,-112 553.12,-132"/>
<text text-anchor="middle" x="527.5" y="-118.5" font-family="Helvetica,sans-Serif" font-size="10.00">memory</text>
</a>
</g>
</g>
<!-- Node7&#45;&gt;Node16 -->
<g id="edge28_Node000007_Node000016" class="edge">
<title>Node7&#45;&gt;Node16</title>
<g id="a_edge28_Node000007_Node000016"><a xlink:title=" ">
<path fill="none" stroke="#63b8ff" d="M430.84,-283.04C467.55,-271.09 546.61,-245.23 547.5,-244 569.41,-213.61 551.75,-167.83 538.57,-142.17"/>
<polygon fill="#63b8ff" stroke="#63b8ff" points="541.73,-140.66 533.87,-133.55 535.58,-144.01 541.73,-140.66"/>
</a>
</g>
</g>
<!-- Node19 -->
<g id="Node000019" class="node">
<title>Node19</title>
<g id="a_Node000019"><a xlink:href="_mech_clock_8h.html" target="_top" xlink:title="Déclaration de la classe CMechClock.">
<polygon fill="white" stroke="#666666" points="538,-244 465,-244 465,-224 538,-224 538,-244"/>
<text text-anchor="middle" x="501.5" y="-230.5" font-family="Helvetica,sans-Serif" font-size="10.00">MechClock.h</text>
</a>
</g>
</g>
<!-- Node7&#45;&gt;Node19 -->
<g id="edge23_Node000007_Node000019" class="edge">
<title>Node7&#45;&gt;Node19</title>
<g id="a_edge23_Node000007_Node000019"><a xlink:title=" ">
<path fill="none" stroke="#63b8ff" d="M428,-279.59C441.32,-271.51 460.78,-259.71 476.33,-250.27"/>
<polygon fill="#63b8ff" stroke="#63b8ff" points="477.85,-253.44 484.58,-245.26 474.22,-247.46 477.85,-253.44"/>
</a>
</g>
</g>
<!-- Node20 -->
<g id="Node000020" class="node">
<title>Node20</title>
<g id="a_Node000020"><a xlink:href="_auto_clock_8h.html" target="_top" xlink:title="Déclaration de la classe CAutoClock.">
<polygon fill="white" stroke="#666666" points="447.12,-244 377.88,-244 377.88,-224 447.12,-224 447.12,-244"/>
<text text-anchor="middle" x="412.5" y="-230.5" font-family="Helvetica,sans-Serif" font-size="10.00">AutoClock.h</text>
</a>
</g>
</g>
<!-- Node7&#45;&gt;Node20 -->
<g id="edge25_Node000007_Node000020" class="edge">
<title>Node7&#45;&gt;Node20</title>
<g id="a_edge25_Node000007_Node000020"><a xlink:title=" ">
<path fill="none" stroke="#63b8ff" d="M412.5,-279.59C412.5,-273.01 412.5,-263.96 412.5,-255.73"/>
<polygon fill="#63b8ff" stroke="#63b8ff" points="416,-255.81 412.5,-245.81 409,-255.81 416,-255.81"/>
</a>
</g>
</g>
<!-- Node9 -->
<g id="Node000009" class="node">
<title>Node9</title>
<g id="a_Node000009"><a xlink:title=" ">
<polygon fill="#e0e0e0" stroke="#999999" points="455.5,-20 415.5,-20 415.5,0 455.5,0 455.5,-20"/>
<text text-anchor="middle" x="435.5" y="-6.5" font-family="Helvetica,sans-Serif" font-size="10.00">string</text>
</a>
</g>
</g>
<!-- Node8&#45;&gt;Node9 -->
<g id="edge8_Node000008_Node000009" class="edge">
<title>Node8&#45;&gt;Node9</title>
<g id="a_edge8_Node000008_Node000009"><a xlink:title=" ">
<path fill="none" stroke="#63b8ff" d="M486.7,-55.59C477.9,-47.93 465.25,-36.91 454.73,-27.75"/>
<polygon fill="#63b8ff" stroke="#63b8ff" points="457.16,-25.22 447.32,-21.29 452.56,-30.5 457.16,-25.22"/>
</a>
</g>
</g>
<!-- Node10 -->
<g id="Node000010" class="node">
<title>Node10</title>
<g id="a_Node000010"><a xlink:title=" ">
<polygon fill="#e0e0e0" stroke="#999999" points="527.25,-20 473.75,-20 473.75,0 527.25,0 527.25,-20"/>
<text text-anchor="middle" x="500.5" y="-6.5" font-family="Helvetica,sans-Serif" font-size="10.00">iostream</text>
</a>
</g>
</g>
<!-- Node8&#45;&gt;Node10 -->
<g id="edge9_Node000008_Node000010" class="edge">
<title>Node8&#45;&gt;Node10</title>
<g id="a_edge9_Node000008_Node000010"><a xlink:title=" ">
<path fill="none" stroke="#63b8ff" d="M498.02,-55.59C498.39,-49.01 498.89,-39.96 499.35,-31.73"/>
<polygon fill="#63b8ff" stroke="#63b8ff" points="502.84,-31.99 499.9,-21.81 495.85,-31.6 502.84,-31.99"/>
</a>
</g>
</g>
<!-- Node12 -->
<g id="Node000012" class="node">
<title>Node12</title>
<g id="a_Node000012"><a xlink:href="_clock_8h.html" target="_top" xlink:title="Déclaration de la classe CClock.">
<polygon fill="white" stroke="#666666" points="459,-188 410,-188 410,-168 459,-168 459,-188"/>
<text text-anchor="middle" x="434.5" y="-174.5" font-family="Helvetica,sans-Serif" font-size="10.00">Clock.h</text>
</a>
</g>
</g>
<!-- Node11&#45;&gt;Node12 -->
<g id="edge11_Node000011_Node000012" class="edge">
<title>Node11&#45;&gt;Node12</title>
<g id="a_edge11_Node000011_Node000012"><a xlink:title=" ">
<path fill="none" stroke="#63b8ff" d="M354.4,-223.59C369.05,-215.44 390.52,-203.48 407.55,-194"/>
<polygon fill="#63b8ff" stroke="#63b8ff" points="409.11,-197.14 416.15,-189.22 405.71,-191.02 409.11,-197.14"/>
</a>
</g>
</g>
<!-- Node11&#45;&gt;Node13 -->
<g id="edge20_Node000011_Node000013" class="edge">
<title>Node11&#45;&gt;Node13</title>
<g id="a_edge20_Node000011_Node000013"><a xlink:title=" ">
<path fill="none" stroke="#63b8ff" d="M336.48,-223.62C334.56,-206.01 330.36,-167.59 327.75,-143.65"/>
<polygon fill="#63b8ff" stroke="#63b8ff" points="331.25,-143.42 326.68,-133.86 324.29,-144.18 331.25,-143.42"/>
</a>
</g>
</g>
<!-- Node11&#45;&gt;Node16 -->
<g id="edge22_Node000011_Node000016" class="edge">
<title>Node11&#45;&gt;Node16</title>
<g id="a_edge22_Node000011_Node000016"><a xlink:title=" ">
<path fill="none" stroke="#63b8ff" d="M359.71,-226.04C394.59,-215.01 459.19,-194.13 468.5,-188 487.32,-175.61 504.09,-155.84 514.89,-141.36"/>
<polygon fill="#63b8ff" stroke="#63b8ff" points="517.5,-143.72 520.49,-133.56 511.81,-139.64 517.5,-143.72"/>
</a>
</g>
</g>
<!-- Node18 -->
<g id="Node000018" class="node">
<title>Node18</title>
<g id="a_Node000018"><a xlink:title=" ">
<polygon fill="#e0e0e0" stroke="#999999" points="391.38,-188 353.62,-188 353.62,-168 391.38,-168 391.38,-188"/>
<text text-anchor="middle" x="372.5" y="-174.5" font-family="Helvetica,sans-Serif" font-size="10.00">array</text>
</a>
</g>
</g>
<!-- Node11&#45;&gt;Node18 -->
<g id="edge21_Node000011_Node000018" class="edge">
<title>Node11&#45;&gt;Node18</title>
<g id="a_edge21_Node000011_Node000018"><a xlink:title=" ">
<path fill="none" stroke="#63b8ff" d="M343.6,-223.59C348.21,-216.47 354.71,-206.45 360.37,-197.72"/>
<polygon fill="#63b8ff" stroke="#63b8ff" points="363.15,-199.86 365.65,-189.57 357.27,-196.06 363.15,-199.86"/>
</a>
</g>
</g>
<!-- Node12&#45;&gt;Node8 -->
<g id="edge12_Node000012_Node000008" class="edge">
<title>Node12&#45;&gt;Node8</title>
<g id="a_edge12_Node000012_Node000008"><a xlink:title=" ">
<path fill="none" stroke="#63b8ff" d="M439.87,-167.62C450.19,-149.6 472.98,-109.81 486.6,-86.02"/>
<polygon fill="#63b8ff" stroke="#63b8ff" points="489.46,-88.09 491.39,-77.67 483.38,-84.61 489.46,-88.09"/>
</a>
</g>
</g>
<!-- Node12&#45;&gt;Node9 -->
<g id="edge18_Node000012_Node000009" class="edge">
<title>Node12&#45;&gt;Node9</title>
<g id="a_edge18_Node000012_Node000009"><a xlink:title=" ">
<path fill="none" stroke="#63b8ff" d="M434.56,-167.6C434.71,-141.46 435.16,-67.48 435.38,-31.36"/>
<polygon fill="#63b8ff" stroke="#63b8ff" points="438.87,-31.83 435.43,-21.81 431.87,-31.79 438.87,-31.83"/>
</a>
</g>
</g>
<!-- Node12&#45;&gt;Node13 -->
<g id="edge13_Node000012_Node000013" class="edge">
<title>Node12&#45;&gt;Node13</title>
<g id="a_edge13_Node000012_Node000013"><a xlink:title=" ">
<path fill="none" stroke="#63b8ff" d="M415.51,-167.59C398.63,-159.23 373.7,-146.88 354.36,-137.3"/>
<polygon fill="#63b8ff" stroke="#63b8ff" points="356.14,-134.27 345.63,-132.97 353.03,-140.55 356.14,-134.27"/>
</a>
</g>
</g>
<!-- Node12&#45;&gt;Node16 -->
<g id="edge17_Node000012_Node000016" class="edge">
<title>Node12&#45;&gt;Node16</title>
<g id="a_edge17_Node000012_Node000016"><a xlink:title=" ">
<path fill="none" stroke="#63b8ff" d="M450.7,-167.59C464.75,-159.44 485.33,-147.48 501.66,-138"/>
<polygon fill="#63b8ff" stroke="#63b8ff" points="502.97,-141.29 509.87,-133.24 499.46,-135.23 502.97,-141.29"/>
</a>
</g>
</g>
<!-- Node17 -->
<g id="Node000017" class="node">
<title>Node17</title>
<g id="a_Node000017"><a xlink:title=" ">
<polygon fill="#e0e0e0" stroke="#999999" points="407.12,-132 361.88,-132 361.88,-112 407.12,-112 407.12,-132"/>
<text text-anchor="middle" x="384.5" y="-118.5" font-family="Helvetica,sans-Serif" font-size="10.00">chrono</text>
</a>
</g>
</g>
<!-- Node12&#45;&gt;Node17 -->
<g id="edge19_Node000012_Node000017" class="edge">
<title>Node12&#45;&gt;Node17</title>
<g id="a_edge19_Node000012_Node000017"><a xlink:title=" ">
<path fill="none" stroke="#63b8ff" d="M425.79,-167.59C418.91,-160.16 409.11,-149.58 400.78,-140.58"/>
<polygon fill="#63b8ff" stroke="#63b8ff" points="403.5,-138.37 394.14,-133.41 398.36,-143.12 403.5,-138.37"/>
</a>
</g>
</g>
<!-- Node13&#45;&gt;Node8 -->
<g id="edge16_Node000013_Node000008" class="edge">
<title>Node13&#45;&gt;Node8</title>
<g id="a_edge16_Node000013_Node000008"><a xlink:title=" ">
<path fill="none" stroke="#63b8ff" d="M344.37,-114.66C347.09,-113.76 349.87,-112.85 352.5,-112 387.05,-100.88 426.39,-88.7 455.37,-79.82"/>
<polygon fill="#63b8ff" stroke="#63b8ff" points="456.34,-83.18 464.88,-76.91 454.29,-76.49 456.34,-83.18"/>
</a>
</g>
</g>
<!-- Node14 -->
<g id="Node000014" class="node">
<title>Node14</title>
<g id="a_Node000014"><a xlink:href="inc_lib_graph2_8h.html" target="_top" xlink:title="Fichier d&#39;inclusion de la bibliothèque LibGraph2.">
<polygon fill="white" stroke="#666666" points="366.12,-76 284.88,-76 284.88,-56 366.12,-56 366.12,-76"/>
<text text-anchor="middle" x="325.5" y="-62.5" font-family="Helvetica,sans-Serif" font-size="10.00">incLibGraph2.h</text>
</a>
</g>
</g>
<!-- Node13&#45;&gt;Node14 -->
<g id="edge14_Node000013_Node000014" class="edge">
<title>Node13&#45;&gt;Node14</title>
<g id="a_edge14_Node000013_Node000014"><a xlink:title=" ">
<path fill="none" stroke="#63b8ff" d="M325.5,-111.59C325.5,-105.01 325.5,-95.96 325.5,-87.73"/>
<polygon fill="#63b8ff" stroke="#63b8ff" points="329,-87.81 325.5,-77.81 322,-87.81 329,-87.81"/>
</a>
</g>
</g>
<!-- Node15 -->
<g id="Node000015" class="node">
<title>Node15</title>
<g id="a_Node000015"><a xlink:title=" ">
<polygon fill="#e0e0e0" stroke="#999999" points="359.75,-20 291.25,-20 291.25,0 359.75,0 359.75,-20"/>
<text text-anchor="middle" x="325.5" y="-6.5" font-family="Helvetica,sans-Serif" font-size="10.00">LibGraph2.h</text>
</a>
</g>
</g>
<!-- Node14&#45;&gt;Node15 -->
<g id="edge15_Node000014_Node000015" class="edge">
<title>Node14&#45;&gt;Node15</title>
<g id="a_edge15_Node000014_Node000015"><a xlink:title=" ">
<path fill="none" stroke="#63b8ff" d="M325.5,-55.59C325.5,-49.01 325.5,-39.96 325.5,-31.73"/>
<polygon fill="#63b8ff" stroke="#63b8ff" points="329,-31.81 325.5,-21.81 322,-31.81 329,-31.81"/>
</a>
</g>
</g>
<!-- Node19&#45;&gt;Node12 -->
<g id="edge24_Node000019_Node000012" class="edge">
<title>Node19&#45;&gt;Node12</title>
<g id="a_edge24_Node000019_Node000012"><a xlink:title=" ">
<path fill="none" stroke="#63b8ff" d="M489.83,-223.59C480.22,-215.85 466.37,-204.69 454.93,-195.47"/>
<polygon fill="#63b8ff" stroke="#63b8ff" points="457.2,-192.8 447.22,-189.25 452.8,-198.25 457.2,-192.8"/>
</a>
</g>
</g>
<!-- Node20&#45;&gt;Node12 -->
<g id="edge26_Node000020_Node000012" class="edge">
<title>Node20&#45;&gt;Node12</title>
<g id="a_edge26_Node000020_Node000012"><a xlink:title=" ">
<path fill="none" stroke="#63b8ff" d="M416.33,-223.59C419.11,-216.78 422.96,-207.32 426.41,-198.86"/>
<polygon fill="#63b8ff" stroke="#63b8ff" points="429.61,-200.28 430.14,-189.7 423.13,-197.64 429.61,-200.28"/>
</a>
</g>
</g>
</g>
</svg>

<g id="navigator" transform="translate(0 0)" fill="#404254">
  <rect fill="#f2f5e9" fill-opacity="0.5" stroke="#606060" stroke-width=".5" x="0" y="0" width="60" height="60"/>
  <use id="zoomplus" xlink:href="#zoomPlus" x="17" y="9" onmousedown="handleZoom(evt,'in')"/>
  <use id="zoomminus" xlink:href="#zoomMin" x="42" y="9" onmousedown="handleZoom(evt,'out')"/>
  <use id="reset" xlink:href="#resetDef" x="30" y="36" onmousedown="handleReset()"/>
   <use id="arrowup" xlink:href="#arrowUp" x="0" y="0" onmousedown="handlePan(0,-1)"/>
  <use id="arrowright" xlink:href="#arrowRight" x="0" y="0" onmousedown="handlePan(1,0)"/>
  <use id="arrowdown" xlink:href="#arrowDown" x="0" y="0" onmousedown="handlePan(0,1)"/>
  <use id="arrowleft" xlink:href="#arrowLeft" x="0" y="0" onmousedown="handlePan(-1,0)"/>
</g>
<svg viewBox="0 0 15 15" width="100%" height="30px" preserveAspectRatio="xMaxYMin meet">
 <g id="arrow_out" transform="scale(0.3 0.3)">
  <a xlink:href="_t_p_8cpp__incl_org.svg" target="_base">
   <rect id="button" ry="5" rx="5" y="6" x="6" height="38" width="38"
        fill="#f2f5e9" fill-opacity="0.5" stroke="#606060" stroke-width="1.0"/>
   <path id="arrow"
     d="M 11.500037,31.436501 C 11.940474,20.09759 22.043105,11.32322 32.158766,21.979434 L 37.068811,17.246167 C 37.068811,17.246167 37.088388,32 37.088388,32 L 22.160133,31.978069 C 22.160133,31.978069 26.997745,27.140456 26.997745,27.140456 C 18.528582,18.264221 13.291696,25.230495 11.500037,31.436501 z"
     style="fill:#404040;"/>
  </a>
 </g>
</svg>

<style type='text/css'>
<![CDATA[
[data-mouse-over-selected='false'] { opacity: 0.7; }
[data-mouse-over-selected='true']  { opacity: 1.0; }
]]>
</style>
<script type="application/ecmascript"><![CDATA[
document.addEventListener('DOMContentLoaded', (event) => {
  highlightEdges();
  highlightAdjacentNodes();
});
]]></script>
</svg>
