<?xml version="1.0" encoding="UTF-8" standalone="no"?>
<!DOCTYPE svg PUBLIC "-//W3C//DTD SVG 1.1//EN"
 "http://www.w3.org/Graphics/SVG/1.1/DTD/svg11.dtd">
<!-- Generated by graphviz version 10.0.1 (20240210.2158)
 -->
<!-- Title: TP.h Pages: 1 -->
<svg width="126pt" height="84pt"
 viewBox="0.00 0.00 126.12 84.00" xmlns="http://www.w3.org/2000/svg" xmlns:xlink="http://www.w3.org/1999/xlink">
<g id="graph0" class="graph" transform="scale(1 1) rotate(0) translate(4 80)">
<title>TP.h</title>
<!-- Node1 -->
<g id="Node000001" class="node">
<title>Node1</title>
<g id="a_Node000001"><a xlink:title="Déclaration de la classe CTP.">
<polygon fill="#999999" stroke="#666666" points="75.5,-76 39.25,-76 39.25,-56 75.5,-56 75.5,-76"/>
<text text-anchor="middle" x="57.38" y="-62.5" font-family="Helvetica,sans-Serif" font-size="10.00">TP.h</text>
</a>
</g>
</g>
<!-- Node2 -->
<g id="Node000002" class="node">
<title>Node2</title>
<g id="a_Node000002"><a xlink:href="_t_p_8cpp.html" target="_top" xlink:title="Définition de la classe CTP.">
<polygon fill="white" stroke="#666666" points="46.75,-20 0,-20 0,0 46.75,0 46.75,-20"/>
<text text-anchor="middle" x="23.38" y="-6.5" font-family="Helvetica,sans-Serif" font-size="10.00">TP.cpp</text>
</a>
</g>
</g>
<!-- Node1&#45;&gt;Node2 -->
<g id="edge1_Node000001_Node000002" class="edge">
<title>Node1&#45;&gt;Node2</title>
<g id="a_edge1_Node000001_Node000002"><a xlink:title=" ">
<path fill="none" stroke="#63b8ff" d="M45.33,-45.87C39.86,-37.19 33.65,-27.32 29.23,-20.3"/>
<polygon fill="#63b8ff" stroke="#63b8ff" points="42.36,-47.72 50.65,-54.31 48.28,-43.99 42.36,-47.72"/>
</a>
</g>
</g>
<!-- Node3 -->
<g id="Node000003" class="node">
<title>Node3</title>
<g id="a_Node000003"><a xlink:href="prog_8cpp.html" target="_top" xlink:title="Programme principal.">
<polygon fill="white" stroke="#666666" points="118.12,-20 64.62,-20 64.62,0 118.12,0 118.12,-20"/>
<text text-anchor="middle" x="91.38" y="-6.5" font-family="Helvetica,sans-Serif" font-size="10.00">prog.cpp</text>
</a>
</g>
</g>
<!-- Node1&#45;&gt;Node3 -->
<g id="edge2_Node000001_Node000003" class="edge">
<title>Node1&#45;&gt;Node3</title>
<g id="a_edge2_Node000001_Node000003"><a xlink:title=" ">
<path fill="none" stroke="#63b8ff" d="M69.42,-45.87C74.89,-37.19 81.1,-27.32 85.52,-20.3"/>
<polygon fill="#63b8ff" stroke="#63b8ff" points="66.47,-43.99 64.1,-54.31 72.39,-47.72 66.47,-43.99"/>
</a>
</g>
</g>
</g>
</svg>
