<?xml version="1.0" encoding="UTF-8" standalone="no"?>
<!DOCTYPE svg PUBLIC "-//W3C//DTD SVG 1.1//EN"
 "http://www.w3.org/Graphics/SVG/1.1/DTD/svg11.dtd">
<!-- Generated by graphviz version 10.0.1 (20240210.2158)
 -->
<!-- Title: Wall.h Pages: 1 -->
<svg width="283pt" height="252pt"
 viewBox="0.00 0.00 282.88 252.00" xmlns="http://www.w3.org/2000/svg" xmlns:xlink="http://www.w3.org/1999/xlink">
<g id="graph0" class="graph" transform="scale(1 1) rotate(0) translate(4 248)">
<title>Wall.h</title>
<!-- Node1 -->
<g id="Node000001" class="node">
<title>Node1</title>
<g id="a_Node000001"><a xlink:title="Déclaration de la classe CWall.">
<polygon fill="#999999" stroke="#666666" points="211.88,-244 168.12,-244 168.12,-224 211.88,-224 211.88,-244"/>
<text text-anchor="middle" x="190" y="-230.5" font-family="Helvetica,sans-Serif" font-size="10.00">Wall.h</text>
</a>
</g>
</g>
<!-- Node2 -->
<g id="Node000002" class="node">
<title>Node2</title>
<g id="a_Node000002"><a xlink:href="_clock_8h.html" target="_top" xlink:title="Déclaration de la classe CClock.">
<polygon fill="white" stroke="#666666" points="139.5,-188 90.5,-188 90.5,-168 139.5,-168 139.5,-188"/>
<text text-anchor="middle" x="115" y="-174.5" font-family="Helvetica,sans-Serif" font-size="10.00">Clock.h</text>
</a>
</g>
</g>
<!-- Node1&#45;&gt;Node2 -->
<g id="edge1_Node000001_Node000002" class="edge">
<title>Node1&#45;&gt;Node2</title>
<g id="a_edge1_Node000001_Node000002"><a xlink:title=" ">
<path fill="none" stroke="#63b8ff" d="M176.94,-223.59C166.03,-215.74 150.25,-204.38 137.34,-195.09"/>
<polygon fill="#63b8ff" stroke="#63b8ff" points="139.55,-192.37 129.39,-189.36 135.46,-198.05 139.55,-192.37"/>
</a>
</g>
</g>
<!-- Node6 -->
<g id="Node000006" class="node">
<title>Node6</title>
<g id="a_Node000006"><a xlink:href="gui_8h.html" target="_top" xlink:title="Déclaration de la classe CGUI.">
<polygon fill="white" stroke="#666666" points="189.5,-132 152.5,-132 152.5,-112 189.5,-112 189.5,-132"/>
<text text-anchor="middle" x="171" y="-118.5" font-family="Helvetica,sans-Serif" font-size="10.00">gui.h</text>
</a>
</g>
</g>
<!-- Node1&#45;&gt;Node6 -->
<g id="edge12_Node000001_Node000006" class="edge">
<title>Node1&#45;&gt;Node6</title>
<g id="a_edge12_Node000001_Node000006"><a xlink:title=" ">
<path fill="none" stroke="#63b8ff" d="M188.38,-223.62C185.34,-206.01 178.7,-167.59 174.57,-143.65"/>
<polygon fill="#63b8ff" stroke="#63b8ff" points="178.02,-143.1 172.87,-133.85 171.13,-144.3 178.02,-143.1"/>
</a>
</g>
</g>
<!-- Node9 -->
<g id="Node000009" class="node">
<title>Node9</title>
<g id="a_Node000009"><a xlink:title=" ">
<polygon fill="#e0e0e0" stroke="#999999" points="258.62,-132 207.38,-132 207.38,-112 258.62,-112 258.62,-132"/>
<text text-anchor="middle" x="233" y="-118.5" font-family="Helvetica,sans-Serif" font-size="10.00">memory</text>
</a>
</g>
</g>
<!-- Node1&#45;&gt;Node9 -->
<g id="edge14_Node000001_Node000009" class="edge">
<title>Node1&#45;&gt;Node9</title>
<g id="a_edge14_Node000001_Node000009"><a xlink:title=" ">
<path fill="none" stroke="#63b8ff" d="M193.67,-223.62C200.62,-205.84 215.85,-166.88 225.18,-143"/>
<polygon fill="#63b8ff" stroke="#63b8ff" points="228.41,-144.35 228.79,-133.76 221.89,-141.8 228.41,-144.35"/>
</a>
</g>
</g>
<!-- Node11 -->
<g id="Node000011" class="node">
<title>Node11</title>
<g id="a_Node000011"><a xlink:title=" ">
<polygon fill="#e0e0e0" stroke="#999999" points="274.88,-188 237.12,-188 237.12,-168 274.88,-168 274.88,-188"/>
<text text-anchor="middle" x="256" y="-174.5" font-family="Helvetica,sans-Serif" font-size="10.00">array</text>
</a>
</g>
</g>
<!-- Node1&#45;&gt;Node11 -->
<g id="edge13_Node000001_Node000011" class="edge">
<title>Node1&#45;&gt;Node11</title>
<g id="a_edge13_Node000001_Node000011"><a xlink:title=" ">
<path fill="none" stroke="#63b8ff" d="M201.5,-223.59C210.96,-215.85 224.6,-204.69 235.87,-195.47"/>
<polygon fill="#63b8ff" stroke="#63b8ff" points="237.94,-198.3 243.46,-189.26 233.51,-192.88 237.94,-198.3"/>
</a>
</g>
</g>
<!-- Node3 -->
<g id="Node000003" class="node">
<title>Node3</title>
<g id="a_Node000003"><a xlink:href="vecteur2_d_8h.html" target="_top" xlink:title="Déclaration de la classe CVecteur2D.">
<polygon fill="white" stroke="#666666" points="115.5,-76 48.5,-76 48.5,-56 115.5,-56 115.5,-76"/>
<text text-anchor="middle" x="82" y="-62.5" font-family="Helvetica,sans-Serif" font-size="10.00">vecteur2D.h</text>
</a>
</g>
</g>
<!-- Node2&#45;&gt;Node3 -->
<g id="edge2_Node000002_Node000003" class="edge">
<title>Node2&#45;&gt;Node3</title>
<g id="a_edge2_Node000002_Node000003"><a xlink:title=" ">
<path fill="none" stroke="#63b8ff" d="M104.78,-167.8C96.31,-159.43 84.88,-146.23 80,-132 75.06,-117.6 75.88,-100.32 77.76,-87.21"/>
<polygon fill="#63b8ff" stroke="#63b8ff" points="81.16,-88.08 79.47,-77.62 74.27,-86.85 81.16,-88.08"/>
</a>
</g>
</g>
<!-- Node4 -->
<g id="Node000004" class="node">
<title>Node4</title>
<g id="a_Node000004"><a xlink:title=" ">
<polygon fill="#e0e0e0" stroke="#999999" points="40,-20 0,-20 0,0 40,0 40,-20"/>
<text text-anchor="middle" x="20" y="-6.5" font-family="Helvetica,sans-Serif" font-size="10.00">string</text>
</a>
</g>
</g>
<!-- Node2&#45;&gt;Node4 -->
<g id="edge10_Node000002_Node000004" class="edge">
<title>Node2&#45;&gt;Node4</title>
<g id="a_edge10_Node000002_Node000004"><a xlink:title=" ">
<path fill="none" stroke="#63b8ff" d="M105.04,-167.51C96.12,-158.74 82.94,-145.12 73,-132 55.42,-108.79 50.74,-102.65 39,-76 32.61,-61.49 27.67,-44.22 24.44,-31.13"/>
<polygon fill="#63b8ff" stroke="#63b8ff" points="27.89,-30.51 22.21,-21.57 21.07,-32.1 27.89,-30.51"/>
</a>
</g>
</g>
<!-- Node2&#45;&gt;Node6 -->
<g id="edge5_Node000002_Node000006" class="edge">
<title>Node2&#45;&gt;Node6</title>
<g id="a_edge5_Node000002_Node000006"><a xlink:title=" ">
<path fill="none" stroke="#63b8ff" d="M124.75,-167.59C132.62,-160.01 143.9,-149.13 153.35,-140.02"/>
<polygon fill="#63b8ff" stroke="#63b8ff" points="155.5,-142.81 160.27,-133.35 150.64,-137.77 155.5,-142.81"/>
</a>
</g>
</g>
<!-- Node2&#45;&gt;Node9 -->
<g id="edge9_Node000002_Node000009" class="edge">
<title>Node2&#45;&gt;Node9</title>
<g id="a_edge9_Node000002_Node000009"><a xlink:title=" ">
<path fill="none" stroke="#63b8ff" d="M135.55,-167.59C153.88,-159.21 180.99,-146.8 201.96,-137.21"/>
<polygon fill="#63b8ff" stroke="#63b8ff" points="203.27,-140.45 210.91,-133.11 200.36,-134.09 203.27,-140.45"/>
</a>
</g>
</g>
<!-- Node10 -->
<g id="Node000010" class="node">
<title>Node10</title>
<g id="a_Node000010"><a xlink:title=" ">
<polygon fill="#e0e0e0" stroke="#999999" points="134.62,-132 89.38,-132 89.38,-112 134.62,-112 134.62,-132"/>
<text text-anchor="middle" x="112" y="-118.5" font-family="Helvetica,sans-Serif" font-size="10.00">chrono</text>
</a>
</g>
</g>
<!-- Node2&#45;&gt;Node10 -->
<g id="edge11_Node000002_Node000010" class="edge">
<title>Node2&#45;&gt;Node10</title>
<g id="a_edge11_Node000002_Node000010"><a xlink:title=" ">
<path fill="none" stroke="#63b8ff" d="M114.48,-167.59C114.11,-161.01 113.61,-151.96 113.15,-143.73"/>
<polygon fill="#63b8ff" stroke="#63b8ff" points="116.65,-143.6 112.6,-133.81 109.66,-143.99 116.65,-143.6"/>
</a>
</g>
</g>
<!-- Node3&#45;&gt;Node4 -->
<g id="edge3_Node000003_Node000004" class="edge">
<title>Node3&#45;&gt;Node4</title>
<g id="a_edge3_Node000003_Node000004"><a xlink:title=" ">
<path fill="none" stroke="#63b8ff" d="M71.2,-55.59C62.4,-47.93 49.75,-36.91 39.23,-27.75"/>
<polygon fill="#63b8ff" stroke="#63b8ff" points="41.66,-25.22 31.82,-21.29 37.06,-30.5 41.66,-25.22"/>
</a>
</g>
</g>
<!-- Node5 -->
<g id="Node000005" class="node">
<title>Node5</title>
<g id="a_Node000005"><a xlink:title=" ">
<polygon fill="#e0e0e0" stroke="#999999" points="111.75,-20 58.25,-20 58.25,0 111.75,0 111.75,-20"/>
<text text-anchor="middle" x="85" y="-6.5" font-family="Helvetica,sans-Serif" font-size="10.00">iostream</text>
</a>
</g>
</g>
<!-- Node3&#45;&gt;Node5 -->
<g id="edge4_Node000003_Node000005" class="edge">
<title>Node3&#45;&gt;Node5</title>
<g id="a_edge4_Node000003_Node000005"><a xlink:title=" ">
<path fill="none" stroke="#63b8ff" d="M82.52,-55.59C82.89,-49.01 83.39,-39.96 83.85,-31.73"/>
<polygon fill="#63b8ff" stroke="#63b8ff" points="87.34,-31.99 84.4,-21.81 80.35,-31.6 87.34,-31.99"/>
</a>
</g>
</g>
<!-- Node6&#45;&gt;Node3 -->
<g id="edge8_Node000006_Node000003" class="edge">
<title>Node6&#45;&gt;Node3</title>
<g id="a_edge8_Node000006_Node000003"><a xlink:title=" ">
<path fill="none" stroke="#63b8ff" d="M155.5,-111.59C142.18,-103.51 122.72,-91.71 107.17,-82.27"/>
<polygon fill="#63b8ff" stroke="#63b8ff" points="109.28,-79.46 98.92,-77.26 105.65,-85.44 109.28,-79.46"/>
</a>
</g>
</g>
<!-- Node7 -->
<g id="Node000007" class="node">
<title>Node7</title>
<g id="a_Node000007"><a xlink:href="inc_lib_graph2_8h.html" target="_top" xlink:title="Fichier d&#39;inclusion de la bibliothèque LibGraph2.">
<polygon fill="white" stroke="#666666" points="214.62,-76 133.38,-76 133.38,-56 214.62,-56 214.62,-76"/>
<text text-anchor="middle" x="174" y="-62.5" font-family="Helvetica,sans-Serif" font-size="10.00">incLibGraph2.h</text>
</a>
</g>
</g>
<!-- Node6&#45;&gt;Node7 -->
<g id="edge6_Node000006_Node000007" class="edge">
<title>Node6&#45;&gt;Node7</title>
<g id="a_edge6_Node000006_Node000007"><a xlink:title=" ">
<path fill="none" stroke="#63b8ff" d="M171.52,-111.59C171.89,-105.01 172.39,-95.96 172.85,-87.73"/>
<polygon fill="#63b8ff" stroke="#63b8ff" points="176.34,-87.99 173.4,-77.81 169.35,-87.6 176.34,-87.99"/>
</a>
</g>
</g>
<!-- Node8 -->
<g id="Node000008" class="node">
<title>Node8</title>
<g id="a_Node000008"><a xlink:title=" ">
<polygon fill="#e0e0e0" stroke="#999999" points="208.25,-20 139.75,-20 139.75,0 208.25,0 208.25,-20"/>
<text text-anchor="middle" x="174" y="-6.5" font-family="Helvetica,sans-Serif" font-size="10.00">LibGraph2.h</text>
</a>
</g>
</g>
<!-- Node7&#45;&gt;Node8 -->
<g id="edge7_Node000007_Node000008" class="edge">
<title>Node7&#45;&gt;Node8</title>
<g id="a_edge7_Node000007_Node000008"><a xlink:title=" ">
<path fill="none" stroke="#63b8ff" d="M174,-55.59C174,-49.01 174,-39.96 174,-31.73"/>
<polygon fill="#63b8ff" stroke="#63b8ff" points="177.5,-31.81 174,-21.81 170.5,-31.81 177.5,-31.81"/>
</a>
</g>
</g>
</g>
</svg>
