<?xml version="1.0" encoding="UTF-8" standalone="no"?>
<!DOCTYPE svg PUBLIC "-//W3C//DTD SVG 1.1//EN"
 "http://www.w3.org/Graphics/SVG/1.1/DTD/svg11.dtd">
<!-- Generated by graphviz version 10.0.1 (20240210.2158)
 -->
<!-- Title: Wall.cpp Pages: 1 -->
<svg width="467pt" height="308pt"
 viewBox="0.00 0.00 467.38 308.00" xmlns="http://www.w3.org/2000/svg" xmlns:xlink="http://www.w3.org/1999/xlink">
<g id="graph0" class="graph" transform="scale(1 1) rotate(0) translate(4 304)">
<title>Wall.cpp</title>
<!-- Node1 -->
<g id="Node000001" class="node">
<title>Node1</title>
<g id="a_Node000001"><a xlink:title="Définition de la classe CWall.">
<polygon fill="#999999" stroke="#666666" points="382.62,-300 328.38,-300 328.38,-280 382.62,-280 382.62,-300"/>
<text text-anchor="middle" x="355.5" y="-286.5" font-family="Helvetica,sans-Serif" font-size="10.00">Wall.cpp</text>
</a>
</g>
</g>
<!-- Node2 -->
<g id="Node000002" class="node">
<title>Node2</title>
<g id="a_Node000002"><a xlink:href="_std_afx_8h.html" target="_top" xlink:title="Fichier de gestion des en&#45;têtes précompilées.">
<polygon fill="white" stroke="#666666" points="196.25,-244 142.75,-244 142.75,-224 196.25,-224 196.25,-244"/>
<text text-anchor="middle" x="169.5" y="-230.5" font-family="Helvetica,sans-Serif" font-size="10.00">StdAfx.h</text>
</a>
</g>
</g>
<!-- Node1&#45;&gt;Node2 -->
<g id="edge1_Node000001_Node000002" class="edge">
<title>Node1&#45;&gt;Node2</title>
<g id="a_edge1_Node000001_Node000002"><a xlink:title=" ">
<path fill="none" stroke="#63b8ff" d="M328.06,-281.03C296.14,-271.77 243.27,-256.42 207.44,-246.01"/>
<polygon fill="#63b8ff" stroke="#63b8ff" points="208.49,-242.67 197.91,-243.25 206.53,-249.4 208.49,-242.67"/>
</a>
</g>
</g>
<!-- Node7 -->
<g id="Node000007" class="node">
<title>Node7</title>
<g id="a_Node000007"><a xlink:href="_wall_8h.html" target="_top" xlink:title="Déclaration de la classe CWall.">
<polygon fill="white" stroke="#666666" points="377.38,-244 333.62,-244 333.62,-224 377.38,-224 377.38,-244"/>
<text text-anchor="middle" x="355.5" y="-230.5" font-family="Helvetica,sans-Serif" font-size="10.00">Wall.h</text>
</a>
</g>
</g>
<!-- Node1&#45;&gt;Node7 -->
<g id="edge6_Node000001_Node000007" class="edge">
<title>Node1&#45;&gt;Node7</title>
<g id="a_edge6_Node000001_Node000007"><a xlink:title=" ">
<path fill="none" stroke="#63b8ff" d="M355.5,-279.59C355.5,-273.01 355.5,-263.96 355.5,-255.73"/>
<polygon fill="#63b8ff" stroke="#63b8ff" points="359,-255.81 355.5,-245.81 352,-255.81 359,-255.81"/>
</a>
</g>
</g>
<!-- Node18 -->
<g id="Node000018" class="node">
<title>Node18</title>
<g id="a_Node000018"><a xlink:title=" ">
<polygon fill="#e0e0e0" stroke="#999999" points="443.62,-244 395.38,-244 395.38,-224 443.62,-224 443.62,-244"/>
<text text-anchor="middle" x="419.5" y="-230.5" font-family="Helvetica,sans-Serif" font-size="10.00">cassert</text>
</a>
</g>
</g>
<!-- Node1&#45;&gt;Node18 -->
<g id="edge21_Node000001_Node000018" class="edge">
<title>Node1&#45;&gt;Node18</title>
<g id="a_edge21_Node000001_Node000018"><a xlink:title=" ">
<path fill="none" stroke="#63b8ff" d="M366.65,-279.59C375.83,-271.85 389.05,-260.69 399.98,-251.47"/>
<polygon fill="#63b8ff" stroke="#63b8ff" points="401.94,-254.4 407.32,-245.27 397.42,-249.05 401.94,-254.4"/>
</a>
</g>
</g>
<!-- Node3 -->
<g id="Node000003" class="node">
<title>Node3</title>
<g id="a_Node000003"><a xlink:title=" ">
<polygon fill="#e0e0e0" stroke="#999999" points="61,-188 0,-188 0,-168 61,-168 61,-188"/>
<text text-anchor="middle" x="30.5" y="-174.5" font-family="Helvetica,sans-Serif" font-size="10.00">windows.h</text>
</a>
</g>
</g>
<!-- Node2&#45;&gt;Node3 -->
<g id="edge2_Node000002_Node000003" class="edge">
<title>Node2&#45;&gt;Node3</title>
<g id="a_edge2_Node000002_Node000003"><a xlink:title=" ">
<path fill="none" stroke="#63b8ff" d="M145.29,-223.59C123.2,-215.01 90.3,-202.23 65.38,-192.55"/>
<polygon fill="#63b8ff" stroke="#63b8ff" points="66.9,-189.39 56.31,-189.03 64.37,-195.91 66.9,-189.39"/>
</a>
</g>
</g>
<!-- Node4 -->
<g id="Node000004" class="node">
<title>Node4</title>
<g id="a_Node000004"><a xlink:title=" ">
<polygon fill="#e0e0e0" stroke="#999999" points="126.25,-188 78.75,-188 78.75,-168 126.25,-168 126.25,-188"/>
<text text-anchor="middle" x="102.5" y="-174.5" font-family="Helvetica,sans-Serif" font-size="10.00">stdlib.h</text>
</a>
</g>
</g>
<!-- Node2&#45;&gt;Node4 -->
<g id="edge3_Node000002_Node000004" class="edge">
<title>Node2&#45;&gt;Node4</title>
<g id="a_edge3_Node000002_Node000004"><a xlink:title=" ">
<path fill="none" stroke="#63b8ff" d="M157.83,-223.59C148.22,-215.85 134.37,-204.69 122.93,-195.47"/>
<polygon fill="#63b8ff" stroke="#63b8ff" points="125.2,-192.8 115.22,-189.25 120.8,-198.25 125.2,-192.8"/>
</a>
</g>
</g>
<!-- Node5 -->
<g id="Node000005" class="node">
<title>Node5</title>
<g id="a_Node000005"><a xlink:title=" ">
<polygon fill="#e0e0e0" stroke="#999999" points="195.12,-188 143.88,-188 143.88,-168 195.12,-168 195.12,-188"/>
<text text-anchor="middle" x="169.5" y="-174.5" font-family="Helvetica,sans-Serif" font-size="10.00">crtdbg.h</text>
</a>
</g>
</g>
<!-- Node2&#45;&gt;Node5 -->
<g id="edge4_Node000002_Node000005" class="edge">
<title>Node2&#45;&gt;Node5</title>
<g id="a_edge4_Node000002_Node000005"><a xlink:title=" ">
<path fill="none" stroke="#63b8ff" d="M169.5,-223.59C169.5,-217.01 169.5,-207.96 169.5,-199.73"/>
<polygon fill="#63b8ff" stroke="#63b8ff" points="173,-199.81 169.5,-189.81 166,-199.81 173,-199.81"/>
</a>
</g>
</g>
<!-- Node6 -->
<g id="Node000006" class="node">
<title>Node6</title>
<g id="a_Node000006"><a xlink:title=" ">
<polygon fill="#e0e0e0" stroke="#999999" points="259.5,-188 213.5,-188 213.5,-168 259.5,-168 259.5,-188"/>
<text text-anchor="middle" x="236.5" y="-174.5" font-family="Helvetica,sans-Serif" font-size="10.00">tchar.h</text>
</a>
</g>
</g>
<!-- Node2&#45;&gt;Node6 -->
<g id="edge5_Node000002_Node000006" class="edge">
<title>Node2&#45;&gt;Node6</title>
<g id="a_edge5_Node000002_Node000006"><a xlink:title=" ">
<path fill="none" stroke="#63b8ff" d="M181.17,-223.59C190.78,-215.85 204.63,-204.69 216.07,-195.47"/>
<polygon fill="#63b8ff" stroke="#63b8ff" points="218.2,-198.25 223.78,-189.25 213.8,-192.8 218.2,-198.25"/>
</a>
</g>
</g>
<!-- Node8 -->
<g id="Node000008" class="node">
<title>Node8</title>
<g id="a_Node000008"><a xlink:href="_clock_8h.html" target="_top" xlink:title="Déclaration de la classe CClock.">
<polygon fill="white" stroke="#666666" points="327,-188 278,-188 278,-168 327,-168 327,-188"/>
<text text-anchor="middle" x="302.5" y="-174.5" font-family="Helvetica,sans-Serif" font-size="10.00">Clock.h</text>
</a>
</g>
</g>
<!-- Node7&#45;&gt;Node8 -->
<g id="edge7_Node000007_Node000008" class="edge">
<title>Node7&#45;&gt;Node8</title>
<g id="a_edge7_Node000007_Node000008"><a xlink:title=" ">
<path fill="none" stroke="#63b8ff" d="M346.27,-223.59C338.9,-216.08 328.37,-205.35 319.48,-196.3"/>
<polygon fill="#63b8ff" stroke="#63b8ff" points="322.19,-194.06 312.69,-189.38 317.19,-198.97 322.19,-194.06"/>
</a>
</g>
</g>
<!-- Node12 -->
<g id="Node000012" class="node">
<title>Node12</title>
<g id="a_Node000012"><a xlink:href="gui_8h.html" target="_top" xlink:title="Déclaration de la classe CGUI.">
<polygon fill="white" stroke="#666666" points="374,-132 337,-132 337,-112 374,-112 374,-132"/>
<text text-anchor="middle" x="355.5" y="-118.5" font-family="Helvetica,sans-Serif" font-size="10.00">gui.h</text>
</a>
</g>
</g>
<!-- Node7&#45;&gt;Node12 -->
<g id="edge18_Node000007_Node000012" class="edge">
<title>Node7&#45;&gt;Node12</title>
<g id="a_edge18_Node000007_Node000012"><a xlink:title=" ">
<path fill="none" stroke="#63b8ff" d="M355.5,-223.62C355.5,-206.01 355.5,-167.59 355.5,-143.65"/>
<polygon fill="#63b8ff" stroke="#63b8ff" points="359,-143.87 355.5,-133.87 352,-143.87 359,-143.87"/>
</a>
</g>
</g>
<!-- Node15 -->
<g id="Node000015" class="node">
<title>Node15</title>
<g id="a_Node000015"><a xlink:title=" ">
<polygon fill="#e0e0e0" stroke="#999999" points="443.12,-132 391.88,-132 391.88,-112 443.12,-112 443.12,-132"/>
<text text-anchor="middle" x="417.5" y="-118.5" font-family="Helvetica,sans-Serif" font-size="10.00">memory</text>
</a>
</g>
</g>
<!-- Node7&#45;&gt;Node15 -->
<g id="edge20_Node000007_Node000015" class="edge">
<title>Node7&#45;&gt;Node15</title>
<g id="a_edge20_Node000007_Node000015"><a xlink:title=" ">
<path fill="none" stroke="#63b8ff" d="M360.79,-223.62C370.9,-205.68 393.17,-166.17 406.6,-142.35"/>
<polygon fill="#63b8ff" stroke="#63b8ff" points="409.62,-144.1 411.48,-133.67 403.52,-140.67 409.62,-144.1"/>
</a>
</g>
</g>
<!-- Node17 -->
<g id="Node000017" class="node">
<title>Node17</title>
<g id="a_Node000017"><a xlink:title=" ">
<polygon fill="#e0e0e0" stroke="#999999" points="459.38,-188 421.62,-188 421.62,-168 459.38,-168 459.38,-188"/>
<text text-anchor="middle" x="440.5" y="-174.5" font-family="Helvetica,sans-Serif" font-size="10.00">array</text>
</a>
</g>
</g>
<!-- Node7&#45;&gt;Node17 -->
<g id="edge19_Node000007_Node000017" class="edge">
<title>Node7&#45;&gt;Node17</title>
<g id="a_edge19_Node000007_Node000017"><a xlink:title=" ">
<path fill="none" stroke="#63b8ff" d="M370.31,-223.59C382.9,-215.59 401.25,-203.93 416.03,-194.54"/>
<polygon fill="#63b8ff" stroke="#63b8ff" points="417.74,-197.61 424.3,-189.29 413.98,-191.7 417.74,-197.61"/>
</a>
</g>
</g>
<!-- Node9 -->
<g id="Node000009" class="node">
<title>Node9</title>
<g id="a_Node000009"><a xlink:href="vecteur2_d_8h.html" target="_top" xlink:title="Déclaration de la classe CVecteur2D.">
<polygon fill="white" stroke="#666666" points="300,-76 233,-76 233,-56 300,-56 300,-76"/>
<text text-anchor="middle" x="266.5" y="-62.5" font-family="Helvetica,sans-Serif" font-size="10.00">vecteur2D.h</text>
</a>
</g>
</g>
<!-- Node8&#45;&gt;Node9 -->
<g id="edge8_Node000008_Node000009" class="edge">
<title>Node8&#45;&gt;Node9</title>
<g id="a_edge8_Node000008_Node000009"><a xlink:title=" ">
<path fill="none" stroke="#63b8ff" d="M291.06,-167.65C281.91,-159.38 269.77,-146.4 264.5,-132 259.27,-117.7 260.11,-100.42 262.07,-87.28"/>
<polygon fill="#63b8ff" stroke="#63b8ff" points="265.47,-88.13 263.86,-77.66 258.59,-86.85 265.47,-88.13"/>
</a>
</g>
</g>
<!-- Node10 -->
<g id="Node000010" class="node">
<title>Node10</title>
<g id="a_Node000010"><a xlink:title=" ">
<polygon fill="#e0e0e0" stroke="#999999" points="224.5,-20 184.5,-20 184.5,0 224.5,0 224.5,-20"/>
<text text-anchor="middle" x="204.5" y="-6.5" font-family="Helvetica,sans-Serif" font-size="10.00">string</text>
</a>
</g>
</g>
<!-- Node8&#45;&gt;Node10 -->
<g id="edge16_Node000008_Node000010" class="edge">
<title>Node8&#45;&gt;Node10</title>
<g id="a_edge16_Node000008_Node000010"><a xlink:title=" ">
<path fill="none" stroke="#63b8ff" d="M291.76,-167.64C282.16,-158.95 268.01,-145.38 257.5,-132 239.52,-109.1 235.24,-102.65 223.5,-76 217.11,-61.49 212.17,-44.22 208.94,-31.13"/>
<polygon fill="#63b8ff" stroke="#63b8ff" points="212.39,-30.51 206.71,-21.57 205.57,-32.1 212.39,-30.51"/>
</a>
</g>
</g>
<!-- Node8&#45;&gt;Node12 -->
<g id="edge11_Node000008_Node000012" class="edge">
<title>Node8&#45;&gt;Node12</title>
<g id="a_edge11_Node000008_Node000012"><a xlink:title=" ">
<path fill="none" stroke="#63b8ff" d="M311.73,-167.59C319.1,-160.08 329.63,-149.35 338.52,-140.3"/>
<polygon fill="#63b8ff" stroke="#63b8ff" points="340.81,-142.97 345.31,-133.38 335.81,-138.06 340.81,-142.97"/>
</a>
</g>
</g>
<!-- Node8&#45;&gt;Node15 -->
<g id="edge15_Node000008_Node000015" class="edge">
<title>Node8&#45;&gt;Node15</title>
<g id="a_edge15_Node000008_Node000015"><a xlink:title=" ">
<path fill="none" stroke="#63b8ff" d="M322.53,-167.59C340.31,-159.24 366.57,-146.92 386.96,-137.34"/>
<polygon fill="#63b8ff" stroke="#63b8ff" points="388.38,-140.54 395.94,-133.12 385.4,-134.21 388.38,-140.54"/>
</a>
</g>
</g>
<!-- Node16 -->
<g id="Node000016" class="node">
<title>Node16</title>
<g id="a_Node000016"><a xlink:title=" ">
<polygon fill="#e0e0e0" stroke="#999999" points="319.12,-132 273.88,-132 273.88,-112 319.12,-112 319.12,-132"/>
<text text-anchor="middle" x="296.5" y="-118.5" font-family="Helvetica,sans-Serif" font-size="10.00">chrono</text>
</a>
</g>
</g>
<!-- Node8&#45;&gt;Node16 -->
<g id="edge17_Node000008_Node000016" class="edge">
<title>Node8&#45;&gt;Node16</title>
<g id="a_edge17_Node000008_Node000016"><a xlink:title=" ">
<path fill="none" stroke="#63b8ff" d="M301.45,-167.59C300.72,-161.01 299.72,-151.96 298.8,-143.73"/>
<polygon fill="#63b8ff" stroke="#63b8ff" points="302.28,-143.35 297.7,-133.8 295.33,-144.13 302.28,-143.35"/>
</a>
</g>
</g>
<!-- Node9&#45;&gt;Node10 -->
<g id="edge9_Node000009_Node000010" class="edge">
<title>Node9&#45;&gt;Node10</title>
<g id="a_edge9_Node000009_Node000010"><a xlink:title=" ">
<path fill="none" stroke="#63b8ff" d="M255.7,-55.59C246.9,-47.93 234.25,-36.91 223.73,-27.75"/>
<polygon fill="#63b8ff" stroke="#63b8ff" points="226.16,-25.22 216.32,-21.29 221.56,-30.5 226.16,-25.22"/>
</a>
</g>
</g>
<!-- Node11 -->
<g id="Node000011" class="node">
<title>Node11</title>
<g id="a_Node000011"><a xlink:title=" ">
<polygon fill="#e0e0e0" stroke="#999999" points="296.25,-20 242.75,-20 242.75,0 296.25,0 296.25,-20"/>
<text text-anchor="middle" x="269.5" y="-6.5" font-family="Helvetica,sans-Serif" font-size="10.00">iostream</text>
</a>
</g>
</g>
<!-- Node9&#45;&gt;Node11 -->
<g id="edge10_Node000009_Node000011" class="edge">
<title>Node9&#45;&gt;Node11</title>
<g id="a_edge10_Node000009_Node000011"><a xlink:title=" ">
<path fill="none" stroke="#63b8ff" d="M267.02,-55.59C267.39,-49.01 267.89,-39.96 268.35,-31.73"/>
<polygon fill="#63b8ff" stroke="#63b8ff" points="271.84,-31.99 268.9,-21.81 264.85,-31.6 271.84,-31.99"/>
</a>
</g>
</g>
<!-- Node12&#45;&gt;Node9 -->
<g id="edge14_Node000012_Node000009" class="edge">
<title>Node12&#45;&gt;Node9</title>
<g id="a_edge14_Node000012_Node000009"><a xlink:title=" ">
<path fill="none" stroke="#63b8ff" d="M340,-111.59C326.68,-103.51 307.22,-91.71 291.67,-82.27"/>
<polygon fill="#63b8ff" stroke="#63b8ff" points="293.78,-79.46 283.42,-77.26 290.15,-85.44 293.78,-79.46"/>
</a>
</g>
</g>
<!-- Node13 -->
<g id="Node000013" class="node">
<title>Node13</title>
<g id="a_Node000013"><a xlink:href="inc_lib_graph2_8h.html" target="_top" xlink:title="Fichier d&#39;inclusion de la bibliothèque LibGraph2.">
<polygon fill="white" stroke="#666666" points="399.12,-76 317.88,-76 317.88,-56 399.12,-56 399.12,-76"/>
<text text-anchor="middle" x="358.5" y="-62.5" font-family="Helvetica,sans-Serif" font-size="10.00">incLibGraph2.h</text>
</a>
</g>
</g>
<!-- Node12&#45;&gt;Node13 -->
<g id="edge12_Node000012_Node000013" class="edge">
<title>Node12&#45;&gt;Node13</title>
<g id="a_edge12_Node000012_Node000013"><a xlink:title=" ">
<path fill="none" stroke="#63b8ff" d="M356.02,-111.59C356.39,-105.01 356.89,-95.96 357.35,-87.73"/>
<polygon fill="#63b8ff" stroke="#63b8ff" points="360.84,-87.99 357.9,-77.81 353.85,-87.6 360.84,-87.99"/>
</a>
</g>
</g>
<!-- Node14 -->
<g id="Node000014" class="node">
<title>Node14</title>
<g id="a_Node000014"><a xlink:title=" ">
<polygon fill="#e0e0e0" stroke="#999999" points="392.75,-20 324.25,-20 324.25,0 392.75,0 392.75,-20"/>
<text text-anchor="middle" x="358.5" y="-6.5" font-family="Helvetica,sans-Serif" font-size="10.00">LibGraph2.h</text>
</a>
</g>
</g>
<!-- Node13&#45;&gt;Node14 -->
<g id="edge13_Node000013_Node000014" class="edge">
<title>Node13&#45;&gt;Node14</title>
<g id="a_edge13_Node000013_Node000014"><a xlink:title=" ">
<path fill="none" stroke="#63b8ff" d="M358.5,-55.59C358.5,-49.01 358.5,-39.96 358.5,-31.73"/>
<polygon fill="#63b8ff" stroke="#63b8ff" points="362,-31.81 358.5,-21.81 355,-31.81 362,-31.81"/>
</a>
</g>
</g>
</g>
</svg>
