<?xml version="1.0" encoding="UTF-8" standalone="no"?>
<!DOCTYPE svg PUBLIC "-//W3C//DTD SVG 1.1//EN"
 "http://www.w3.org/Graphics/SVG/1.1/DTD/svg11.dtd">
<!-- Generated by graphviz version 10.0.1 (20240210.2158)
 -->
<!-- Title: gui.h Pages: 1 -->
<svg width="496pt" height="252pt"
 viewBox="0.00 0.00 495.88 252.00" xmlns="http://www.w3.org/2000/svg" xmlns:xlink="http://www.w3.org/1999/xlink">

<svg id="main" version="1.1" xmlns="http://www.w3.org/2000/svg" xmlns:xlink="http://www.w3.org/1999/xlink" xml:space="preserve" onload="init(evt)">
<style type="text/css"><![CDATA[
.node, .edge {opacity: 0.7;}
.node.selected, .edge.selected {opacity: 1;}
.edge:hover path { stroke: red; }
.edge:hover polygon { stroke: red; fill: red; }
]]></style>
<script type="application/ecmascript" xlink:href="svg.min.js"/>
<svg id="graph" class="graph">
<g id="graph0" class="graph" transform="scale(1 1) rotate(0) translate(4 248)">
<title>gui.h</title>
<!-- Node1 -->
<g id="Node000001" class="node">
<title>Node1</title>
<g id="a_Node000001"><a xlink:title="Déclaration de la classe CGUI.">
<polygon fill="#999999" stroke="#666666" points="353.25,-244 316.25,-244 316.25,-224 353.25,-224 353.25,-244"/>
<text text-anchor="middle" x="334.75" y="-230.5" font-family="Helvetica,sans-Serif" font-size="10.00">gui.h</text>
</a>
</g>
</g>
<!-- Node2 -->
<g id="Node000002" class="node">
<title>Node2</title>
<g id="a_Node000002"><a xlink:href="_clock_8h.html" target="_top" xlink:title="Déclaration de la classe CClock.">
<polygon fill="white" stroke="#666666" points="328.25,-188 279.25,-188 279.25,-168 328.25,-168 328.25,-188"/>
<text text-anchor="middle" x="303.75" y="-174.5" font-family="Helvetica,sans-Serif" font-size="10.00">Clock.h</text>
</a>
</g>
</g>
<!-- Node1&#45;&gt;Node2 -->
<g id="edge1_Node000001_Node000002" class="edge">
<title>Node1&#45;&gt;Node2</title>
<g id="a_edge1_Node000001_Node000002"><a xlink:title=" ">
<path fill="none" stroke="#63b8ff" d="M323.77,-213.87C318.78,-205.19 313.12,-195.32 309.09,-188.3"/>
<polygon fill="#63b8ff" stroke="#63b8ff" points="320.58,-215.35 328.6,-222.28 326.65,-211.87 320.58,-215.35"/>
</a>
</g>
</g>
<!-- Node5 -->
<g id="Node000005" class="node">
<title>Node5</title>
<g id="a_Node000005"><a xlink:href="_t_p_8h.html" target="_top" xlink:title="Déclaration de la classe CTP.">
<polygon fill="white" stroke="#666666" points="377.88,-76 341.62,-76 341.62,-56 377.88,-56 377.88,-76"/>
<text text-anchor="middle" x="359.75" y="-62.5" font-family="Helvetica,sans-Serif" font-size="10.00">TP.h</text>
</a>
</g>
</g>
<!-- Node1&#45;&gt;Node5 -->
<g id="edge19_Node000001_Node000005" class="edge">
<title>Node1&#45;&gt;Node5</title>
<g id="a_edge19_Node000001_Node000005"><a xlink:title=" ">
<path fill="none" stroke="#63b8ff" d="M337.84,-212.5C343.29,-176.27 354.43,-102.31 358.35,-76.3"/>
<polygon fill="#63b8ff" stroke="#63b8ff" points="334.42,-211.69 336.39,-222.1 341.34,-212.74 334.42,-211.69"/>
</a>
</g>
</g>
<!-- Node8 -->
<g id="Node000008" class="node">
<title>Node8</title>
<g id="a_Node000008"><a xlink:href="gui_8cpp.html" target="_top" xlink:title="Définition de la classe CGUI.">
<polygon fill="white" stroke="#666666" points="187.5,-76 140,-76 140,-56 187.5,-56 187.5,-76"/>
<text text-anchor="middle" x="163.75" y="-62.5" font-family="Helvetica,sans-Serif" font-size="10.00">gui.cpp</text>
</a>
</g>
</g>
<!-- Node1&#45;&gt;Node8 -->
<g id="edge21_Node000001_Node000008" class="edge">
<title>Node1&#45;&gt;Node8</title>
<g id="a_edge21_Node000001_Node000008"><a xlink:title=" ">
<path fill="none" stroke="#63b8ff" d="M305.68,-221.18C271.29,-205.72 214.69,-175.41 182.75,-132 170.21,-114.95 165.91,-89.74 164.46,-76.28"/>
<polygon fill="#63b8ff" stroke="#63b8ff" points="304.05,-224.28 314.61,-225.07 306.84,-217.87 304.05,-224.28"/>
</a>
</g>
</g>
<!-- Node12 -->
<g id="Node000012" class="node">
<title>Node12</title>
<g id="a_Node000012"><a xlink:href="_wall_8h.html" target="_top" xlink:title="Déclaration de la classe CWall.">
<polygon fill="white" stroke="#666666" points="438.62,-132 394.88,-132 394.88,-112 438.62,-112 438.62,-132"/>
<text text-anchor="middle" x="416.75" y="-118.5" font-family="Helvetica,sans-Serif" font-size="10.00">Wall.h</text>
</a>
</g>
</g>
<!-- Node1&#45;&gt;Node12 -->
<g id="edge20_Node000001_Node000012" class="edge">
<title>Node1&#45;&gt;Node12</title>
<g id="a_edge20_Node000001_Node000012"><a xlink:title=" ">
<path fill="none" stroke="#63b8ff" d="M354.32,-216.24C363.01,-208.21 373.01,-198.16 380.75,-188 394.67,-169.74 406.63,-145.45 412.64,-132.34"/>
<polygon fill="#63b8ff" stroke="#63b8ff" points="352.13,-213.5 347,-222.77 356.79,-218.72 352.13,-213.5"/>
</a>
</g>
</g>
<!-- Node3 -->
<g id="Node000003" class="node">
<title>Node3</title>
<g id="a_Node000003"><a xlink:href="_auto_clock_8h.html" target="_top" xlink:title="Déclaration de la classe CAutoClock.">
<polygon fill="white" stroke="#666666" points="338.38,-132 269.12,-132 269.12,-112 338.38,-112 338.38,-132"/>
<text text-anchor="middle" x="303.75" y="-118.5" font-family="Helvetica,sans-Serif" font-size="10.00">AutoClock.h</text>
</a>
</g>
</g>
<!-- Node2&#45;&gt;Node3 -->
<g id="edge2_Node000002_Node000003" class="edge">
<title>Node2&#45;&gt;Node3</title>
<g id="a_edge2_Node000002_Node000003"><a xlink:title=" ">
<path fill="none" stroke="#63b8ff" d="M303.75,-156.13C303.75,-147.9 303.75,-138.85 303.75,-132.3"/>
<polygon fill="#63b8ff" stroke="#63b8ff" points="300.25,-156.08 303.75,-166.08 307.25,-156.08 300.25,-156.08"/>
</a>
</g>
</g>
<!-- Node9 -->
<g id="Node000009" class="node">
<title>Node9</title>
<g id="a_Node000009"><a xlink:href="_clock_8cpp.html" target="_top" xlink:title="Définition de la classe CClock.">
<polygon fill="white" stroke="#666666" points="251.5,-132 192,-132 192,-112 251.5,-112 251.5,-132"/>
<text text-anchor="middle" x="221.75" y="-118.5" font-family="Helvetica,sans-Serif" font-size="10.00">Clock.cpp</text>
</a>
</g>
</g>
<!-- Node2&#45;&gt;Node9 -->
<g id="edge9_Node000002_Node000009" class="edge">
<title>Node2&#45;&gt;Node9</title>
<g id="a_edge9_Node000002_Node000009"><a xlink:title=" ">
<path fill="none" stroke="#63b8ff" d="M279.86,-161.27C265.7,-151.94 248.22,-140.43 236.14,-132.48"/>
<polygon fill="#63b8ff" stroke="#63b8ff" points="277.93,-164.18 288.2,-166.76 281.78,-158.34 277.93,-164.18"/>
</a>
</g>
</g>
<!-- Node10 -->
<g id="Node000010" class="node">
<title>Node10</title>
<g id="a_Node000010"><a xlink:href="_mech_clock_8h.html" target="_top" xlink:title="Déclaration de la classe CMechClock.">
<polygon fill="white" stroke="#666666" points="135.25,-132 62.25,-132 62.25,-112 135.25,-112 135.25,-132"/>
<text text-anchor="middle" x="98.75" y="-118.5" font-family="Helvetica,sans-Serif" font-size="10.00">MechClock.h</text>
</a>
</g>
</g>
<!-- Node2&#45;&gt;Node10 -->
<g id="edge10_Node000002_Node000010" class="edge">
<title>Node2&#45;&gt;Node10</title>
<g id="a_edge10_Node000002_Node000010"><a xlink:title=" ">
<path fill="none" stroke="#63b8ff" d="M268.13,-167.62C230.68,-157.75 172.11,-142.32 134.59,-132.44"/>
<polygon fill="#63b8ff" stroke="#63b8ff" points="267,-170.94 277.56,-170.1 268.78,-164.17 267,-170.94"/>
</a>
</g>
</g>
<!-- Node2&#45;&gt;Node12 -->
<g id="edge15_Node000002_Node000012" class="edge">
<title>Node2&#45;&gt;Node12</title>
<g id="a_edge15_Node000002_Node000012"><a xlink:title=" ">
<path fill="none" stroke="#63b8ff" d="M333.58,-162.75C353.59,-153.18 379.39,-140.85 396.91,-132.48"/>
<polygon fill="#63b8ff" stroke="#63b8ff" points="332.31,-159.47 324.8,-166.94 335.33,-165.79 332.31,-159.47"/>
</a>
</g>
</g>
<!-- Node4 -->
<g id="Node000004" class="node">
<title>Node4</title>
<g id="a_Node000004"><a xlink:href="_auto_clock_8cpp.html" target="_top" xlink:title="Définition de la classe CAutoClock.">
<polygon fill="white" stroke="#666666" points="285.62,-76 205.88,-76 205.88,-56 285.62,-56 285.62,-76"/>
<text text-anchor="middle" x="245.75" y="-62.5" font-family="Helvetica,sans-Serif" font-size="10.00">AutoClock.cpp</text>
</a>
</g>
</g>
<!-- Node3&#45;&gt;Node4 -->
<g id="edge3_Node000003_Node000004" class="edge">
<title>Node3&#45;&gt;Node4</title>
<g id="a_edge3_Node000003_Node000004"><a xlink:title=" ">
<path fill="none" stroke="#63b8ff" d="M285.33,-103.85C275.52,-94.72 263.85,-83.86 255.74,-76.3"/>
<polygon fill="#63b8ff" stroke="#63b8ff" points="282.84,-106.31 292.54,-110.56 287.61,-101.19 282.84,-106.31"/>
</a>
</g>
</g>
<!-- Node3&#45;&gt;Node5 -->
<g id="edge4_Node000003_Node000005" class="edge">
<title>Node3&#45;&gt;Node5</title>
<g id="a_edge4_Node000003_Node000005"><a xlink:title=" ">
<path fill="none" stroke="#63b8ff" d="M321.54,-103.85C331,-94.72 342.27,-83.86 350.11,-76.3"/>
<polygon fill="#63b8ff" stroke="#63b8ff" points="319.36,-101.08 314.59,-110.54 324.22,-106.12 319.36,-101.08"/>
</a>
</g>
</g>
<!-- Node7 -->
<g id="Node000007" class="node">
<title>Node7</title>
<g id="a_Node000007"><a xlink:href="prog_8cpp.html" target="_top" xlink:title="Programme principal.">
<polygon fill="white" stroke="#666666" points="340.5,-20 287,-20 287,0 340.5,0 340.5,-20"/>
<text text-anchor="middle" x="313.75" y="-6.5" font-family="Helvetica,sans-Serif" font-size="10.00">prog.cpp</text>
</a>
</g>
</g>
<!-- Node3&#45;&gt;Node7 -->
<g id="edge8_Node000003_Node000007" class="edge">
<title>Node3&#45;&gt;Node7</title>
<g id="a_edge8_Node000003_Node000007"><a xlink:title=" ">
<path fill="none" stroke="#63b8ff" d="M305.63,-100.31C307.81,-76.36 311.3,-37.95 312.9,-20.35"/>
<polygon fill="#63b8ff" stroke="#63b8ff" points="302.16,-99.84 304.74,-110.11 309.13,-100.47 302.16,-99.84"/>
</a>
</g>
</g>
<!-- Node3&#45;&gt;Node8 -->
<g id="edge7_Node000003_Node000008" class="edge">
<title>Node3&#45;&gt;Node8</title>
<g id="a_edge7_Node000003_Node000008"><a xlink:title=" ">
<path fill="none" stroke="#63b8ff" d="M268.77,-107.51C243.54,-97.78 210.15,-84.9 187.86,-76.3"/>
<polygon fill="#63b8ff" stroke="#63b8ff" points="267.36,-110.72 277.95,-111.05 269.88,-104.18 267.36,-110.72"/>
</a>
</g>
</g>
<!-- Node6 -->
<g id="Node000006" class="node">
<title>Node6</title>
<g id="a_Node000006"><a xlink:href="_t_p_8cpp.html" target="_top" xlink:title="Définition de la classe CTP.">
<polygon fill="white" stroke="#666666" points="405.12,-20 358.38,-20 358.38,0 405.12,0 405.12,-20"/>
<text text-anchor="middle" x="381.75" y="-6.5" font-family="Helvetica,sans-Serif" font-size="10.00">TP.cpp</text>
</a>
</g>
</g>
<!-- Node5&#45;&gt;Node6 -->
<g id="edge5_Node000005_Node000006" class="edge">
<title>Node5&#45;&gt;Node6</title>
<g id="a_edge5_Node000005_Node000006"><a xlink:title=" ">
<path fill="none" stroke="#63b8ff" d="M367.9,-45C371.35,-36.54 375.2,-27.08 377.96,-20.3"/>
<polygon fill="#63b8ff" stroke="#63b8ff" points="364.68,-43.61 364.15,-54.19 371.17,-46.25 364.68,-43.61"/>
</a>
</g>
</g>
<!-- Node5&#45;&gt;Node7 -->
<g id="edge6_Node000005_Node000007" class="edge">
<title>Node5&#45;&gt;Node7</title>
<g id="a_edge6_Node000005_Node000007"><a xlink:title=" ">
<path fill="none" stroke="#63b8ff" d="M344.42,-47C336.8,-38.06 327.91,-27.62 321.67,-20.3"/>
<polygon fill="#63b8ff" stroke="#63b8ff" points="341.61,-49.1 350.76,-54.44 346.94,-44.56 341.61,-49.1"/>
</a>
</g>
</g>
<!-- Node10&#45;&gt;Node5 -->
<g id="edge12_Node000010_Node000005" class="edge">
<title>Node10&#45;&gt;Node5</title>
<g id="a_edge12_Node000010_Node000005"><a xlink:title=" ">
<path fill="none" stroke="#63b8ff" d="M146.76,-111.07C205.27,-98.96 301.25,-79.1 341.3,-70.82"/>
<polygon fill="#63b8ff" stroke="#63b8ff" points="146.16,-107.62 137.07,-113.07 147.58,-114.47 146.16,-107.62"/>
</a>
</g>
</g>
<!-- Node10&#45;&gt;Node7 -->
<g id="edge14_Node000010_Node000007" class="edge">
<title>Node10&#45;&gt;Node7</title>
<g id="a_edge14_Node000010_Node000007"><a xlink:title=" ">
<path fill="none" stroke="#63b8ff" d="M103.68,-101C108.3,-86.43 116.66,-67.33 130.75,-56 176.52,-19.2 248.07,-11.88 286.75,-10.8"/>
<polygon fill="#63b8ff" stroke="#63b8ff" points="100.36,-99.88 101.05,-110.45 107.11,-101.76 100.36,-99.88"/>
</a>
</g>
</g>
<!-- Node10&#45;&gt;Node8 -->
<g id="edge13_Node000010_Node000008" class="edge">
<title>Node10&#45;&gt;Node8</title>
<g id="a_edge13_Node000010_Node000008"><a xlink:title=" ">
<path fill="none" stroke="#63b8ff" d="M118.73,-104.4C129.85,-95.17 143.28,-84.01 152.56,-76.3"/>
<polygon fill="#63b8ff" stroke="#63b8ff" points="116.69,-101.54 111.24,-110.63 121.16,-106.93 116.69,-101.54"/>
</a>
</g>
</g>
<!-- Node11 -->
<g id="Node000011" class="node">
<title>Node11</title>
<g id="a_Node000011"><a xlink:href="_mech_clock_8cpp.html" target="_top" xlink:title="Définition de la classe CMechClock.">
<polygon fill="white" stroke="#666666" points="83.5,-76 0,-76 0,-56 83.5,-56 83.5,-76"/>
<text text-anchor="middle" x="41.75" y="-62.5" font-family="Helvetica,sans-Serif" font-size="10.00">MechClock.cpp</text>
</a>
</g>
</g>
<!-- Node10&#45;&gt;Node11 -->
<g id="edge11_Node000010_Node000011" class="edge">
<title>Node10&#45;&gt;Node11</title>
<g id="a_edge11_Node000010_Node000011"><a xlink:title=" ">
<path fill="none" stroke="#63b8ff" d="M80.64,-103.85C71.01,-94.72 59.54,-83.86 51.56,-76.3"/>
<polygon fill="#63b8ff" stroke="#63b8ff" points="78.06,-106.22 87.72,-110.55 82.87,-101.13 78.06,-106.22"/>
</a>
</g>
</g>
<!-- Node12&#45;&gt;Node5 -->
<g id="edge16_Node000012_Node000005" class="edge">
<title>Node12&#45;&gt;Node5</title>
<g id="a_edge16_Node000012_Node000005"><a xlink:title=" ">
<path fill="none" stroke="#63b8ff" d="M398.64,-103.85C389.01,-94.72 377.54,-83.86 369.56,-76.3"/>
<polygon fill="#63b8ff" stroke="#63b8ff" points="396.06,-106.22 405.72,-110.55 400.87,-101.13 396.06,-106.22"/>
</a>
</g>
</g>
<!-- Node12&#45;&gt;Node7 -->
<g id="edge18_Node000012_Node000007" class="edge">
<title>Node12&#45;&gt;Node7</title>
<g id="a_edge18_Node000012_Node000007"><a xlink:title=" ">
<path fill="none" stroke="#63b8ff" d="M410.88,-100.84C406.1,-87.04 398.23,-68.95 386.75,-56 372.72,-40.18 351.8,-28.07 335.94,-20.41"/>
<polygon fill="#63b8ff" stroke="#63b8ff" points="407.49,-101.73 413.85,-110.2 414.16,-99.61 407.49,-101.73"/>
</a>
</g>
</g>
<!-- Node13 -->
<g id="Node000013" class="node">
<title>Node13</title>
<g id="a_Node000013"><a xlink:href="_wall_8cpp.html" target="_top" xlink:title="Définition de la classe CWall.">
<polygon fill="white" stroke="#666666" points="487.88,-76 433.62,-76 433.62,-56 487.88,-56 487.88,-76"/>
<text text-anchor="middle" x="460.75" y="-62.5" font-family="Helvetica,sans-Serif" font-size="10.00">Wall.cpp</text>
</a>
</g>
</g>
<!-- Node12&#45;&gt;Node13 -->
<g id="edge17_Node000012_Node000013" class="edge">
<title>Node12&#45;&gt;Node13</title>
<g id="a_edge17_Node000012_Node000013"><a xlink:title=" ">
<path fill="none" stroke="#63b8ff" d="M431.64,-102.72C438.88,-93.84 447.27,-83.55 453.17,-76.3"/>
<polygon fill="#63b8ff" stroke="#63b8ff" points="428.97,-100.46 425.37,-110.42 434.4,-104.88 428.97,-100.46"/>
</a>
</g>
</g>
</g>
</svg>
</svg>

<style type='text/css'>
<![CDATA[
[data-mouse-over-selected='false'] { opacity: 0.7; }
[data-mouse-over-selected='true']  { opacity: 1.0; }
]]>
</style>
<script type="application/ecmascript"><![CDATA[
document.addEventListener('DOMContentLoaded', (event) => {
  highlightEdges();
  highlightAdjacentNodes();
});
]]></script>
</svg>
