<?xml version="1.0" encoding="UTF-8" standalone="no"?>
<!DOCTYPE svg PUBLIC "-//W3C//DTD SVG 1.1//EN"
 "http://www.w3.org/Graphics/SVG/1.1/DTD/svg11.dtd">
<!-- Generated by graphviz version 10.0.1 (20240210.2158)
 -->
<!-- Title: gui.h Pages: 1 -->
<svg width="222pt" height="140pt"
 viewBox="0.00 0.00 222.38 140.00" xmlns="http://www.w3.org/2000/svg" xmlns:xlink="http://www.w3.org/1999/xlink">
<g id="graph0" class="graph" transform="scale(1 1) rotate(0) translate(4 136)">
<title>gui.h</title>
<!-- Node1 -->
<g id="Node000001" class="node">
<title>Node1</title>
<g id="a_Node000001"><a xlink:title="Déclaration de la classe CGUI.">
<polygon fill="#999999" stroke="#666666" points="105.12,-132 68.12,-132 68.12,-112 105.12,-112 105.12,-132"/>
<text text-anchor="middle" x="86.62" y="-118.5" font-family="Helvetica,sans-Serif" font-size="10.00">gui.h</text>
</a>
</g>
</g>
<!-- Node2 -->
<g id="Node000002" class="node">
<title>Node2</title>
<g id="a_Node000002"><a xlink:href="inc_lib_graph2_8h.html" target="_top" xlink:title="Fichier d&#39;inclusion de la bibliothèque LibGraph2.">
<polygon fill="white" stroke="#666666" points="81.25,-76 0,-76 0,-56 81.25,-56 81.25,-76"/>
<text text-anchor="middle" x="40.62" y="-62.5" font-family="Helvetica,sans-Serif" font-size="10.00">incLibGraph2.h</text>
</a>
</g>
</g>
<!-- Node1&#45;&gt;Node2 -->
<g id="edge1_Node000001_Node000002" class="edge">
<title>Node1&#45;&gt;Node2</title>
<g id="a_edge1_Node000001_Node000002"><a xlink:title=" ">
<path fill="none" stroke="#63b8ff" d="M78.61,-111.59C72.35,-104.24 63.45,-93.8 55.84,-84.87"/>
<polygon fill="#63b8ff" stroke="#63b8ff" points="58.68,-82.79 49.53,-77.45 53.35,-87.33 58.68,-82.79"/>
</a>
</g>
</g>
<!-- Node4 -->
<g id="Node000004" class="node">
<title>Node4</title>
<g id="a_Node000004"><a xlink:href="vecteur2_d_8h.html" target="_top" xlink:title="Déclaration de la classe CVecteur2D.">
<polygon fill="white" stroke="#666666" points="166.12,-76 99.12,-76 99.12,-56 166.12,-56 166.12,-76"/>
<text text-anchor="middle" x="132.62" y="-62.5" font-family="Helvetica,sans-Serif" font-size="10.00">vecteur2D.h</text>
</a>
</g>
</g>
<!-- Node1&#45;&gt;Node4 -->
<g id="edge3_Node000001_Node000004" class="edge">
<title>Node1&#45;&gt;Node4</title>
<g id="a_edge3_Node000001_Node000004"><a xlink:title=" ">
<path fill="none" stroke="#63b8ff" d="M94.64,-111.59C100.9,-104.24 109.8,-93.8 117.41,-84.87"/>
<polygon fill="#63b8ff" stroke="#63b8ff" points="119.9,-87.33 123.72,-77.45 114.57,-82.79 119.9,-87.33"/>
</a>
</g>
</g>
<!-- Node3 -->
<g id="Node000003" class="node">
<title>Node3</title>
<g id="a_Node000003"><a xlink:title=" ">
<polygon fill="#e0e0e0" stroke="#999999" points="74.88,-20 6.38,-20 6.38,0 74.88,0 74.88,-20"/>
<text text-anchor="middle" x="40.62" y="-6.5" font-family="Helvetica,sans-Serif" font-size="10.00">LibGraph2.h</text>
</a>
</g>
</g>
<!-- Node2&#45;&gt;Node3 -->
<g id="edge2_Node000002_Node000003" class="edge">
<title>Node2&#45;&gt;Node3</title>
<g id="a_edge2_Node000002_Node000003"><a xlink:title=" ">
<path fill="none" stroke="#63b8ff" d="M40.62,-55.59C40.62,-49.01 40.62,-39.96 40.62,-31.73"/>
<polygon fill="#63b8ff" stroke="#63b8ff" points="44.13,-31.81 40.63,-21.81 37.13,-31.81 44.13,-31.81"/>
</a>
</g>
</g>
<!-- Node5 -->
<g id="Node000005" class="node">
<title>Node5</title>
<g id="a_Node000005"><a xlink:title=" ">
<polygon fill="#e0e0e0" stroke="#999999" points="142.62,-20 102.62,-20 102.62,0 142.62,0 142.62,-20"/>
<text text-anchor="middle" x="122.62" y="-6.5" font-family="Helvetica,sans-Serif" font-size="10.00">string</text>
</a>
</g>
</g>
<!-- Node4&#45;&gt;Node5 -->
<g id="edge4_Node000004_Node000005" class="edge">
<title>Node4&#45;&gt;Node5</title>
<g id="a_edge4_Node000004_Node000005"><a xlink:title=" ">
<path fill="none" stroke="#63b8ff" d="M130.88,-55.59C129.65,-48.93 127.95,-39.75 126.41,-31.44"/>
<polygon fill="#63b8ff" stroke="#63b8ff" points="129.88,-30.98 124.62,-21.79 123,-32.26 129.88,-30.98"/>
</a>
</g>
</g>
<!-- Node6 -->
<g id="Node000006" class="node">
<title>Node6</title>
<g id="a_Node000006"><a xlink:title=" ">
<polygon fill="#e0e0e0" stroke="#999999" points="214.38,-20 160.88,-20 160.88,0 214.38,0 214.38,-20"/>
<text text-anchor="middle" x="187.62" y="-6.5" font-family="Helvetica,sans-Serif" font-size="10.00">iostream</text>
</a>
</g>
</g>
<!-- Node4&#45;&gt;Node6 -->
<g id="edge5_Node000004_Node000006" class="edge">
<title>Node4&#45;&gt;Node6</title>
<g id="a_edge5_Node000004_Node000006"><a xlink:title=" ">
<path fill="none" stroke="#63b8ff" d="M142.21,-55.59C149.86,-48.08 160.78,-37.35 170,-28.3"/>
<polygon fill="#63b8ff" stroke="#63b8ff" points="172.39,-30.86 177.07,-21.36 167.49,-25.87 172.39,-30.86"/>
</a>
</g>
</g>
</g>
</svg>
