<?xml version="1.0" encoding="UTF-8" standalone="no"?>
<!DOCTYPE svg PUBLIC "-//W3C//DTD SVG 1.1//EN"
 "http://www.w3.org/Graphics/SVG/1.1/DTD/svg11.dtd">
<!-- Generated by graphviz version 10.0.1 (20240210.2158)
 -->
<!-- Title: incLibGraph2.h Pages: 1 -->
<svg width="525pt" height="308pt"
 viewBox="0.00 0.00 525.06 308.00" xmlns="http://www.w3.org/2000/svg" xmlns:xlink="http://www.w3.org/1999/xlink">
<g id="graph0" class="graph" transform="scale(1 1) rotate(0) translate(4 304)">
<title>incLibGraph2.h</title>
<!-- Node1 -->
<g id="Node000001" class="node">
<title>Node1</title>
<g id="a_Node000001"><a xlink:title="Fichier d&#39;inclusion de la bibliothèque LibGraph2.">
<polygon fill="#999999" stroke="#666666" points="438.75,-300 357.5,-300 357.5,-280 438.75,-280 438.75,-300"/>
<text text-anchor="middle" x="398.12" y="-286.5" font-family="Helvetica,sans-Serif" font-size="10.00">incLibGraph2.h</text>
</a>
</g>
</g>
<!-- Node2 -->
<g id="Node000002" class="node">
<title>Node2</title>
<g id="a_Node000002"><a xlink:href="gui_8h.html" target="_top" xlink:title="Déclaration de la classe CGUI.">
<polygon fill="white" stroke="#666666" points="255.62,-244 218.62,-244 218.62,-224 255.62,-224 255.62,-244"/>
<text text-anchor="middle" x="237.12" y="-230.5" font-family="Helvetica,sans-Serif" font-size="10.00">gui.h</text>
</a>
</g>
</g>
<!-- Node1&#45;&gt;Node2 -->
<g id="edge1_Node000001_Node000002" class="edge">
<title>Node1&#45;&gt;Node2</title>
<g id="a_edge1_Node000001_Node000002"><a xlink:title=" ">
<path fill="none" stroke="#63b8ff" d="M359.5,-276.05C326.71,-265.05 281.07,-249.74 255.81,-241.27"/>
<polygon fill="#63b8ff" stroke="#63b8ff" points="358.05,-279.25 368.65,-279.11 360.28,-272.61 358.05,-279.25"/>
</a>
</g>
</g>
<!-- Node8 -->
<g id="Node000008" class="node">
<title>Node8</title>
<g id="a_Node000008"><a xlink:href="prog_8cpp.html" target="_top" xlink:title="Programme principal.">
<polygon fill="white" stroke="#666666" points="211.88,-20 158.38,-20 158.38,0 211.88,0 211.88,-20"/>
<text text-anchor="middle" x="185.12" y="-6.5" font-family="Helvetica,sans-Serif" font-size="10.00">prog.cpp</text>
</a>
</g>
</g>
<!-- Node1&#45;&gt;Node8 -->
<g id="edge23_Node000001_Node000008" class="edge">
<title>Node1&#45;&gt;Node8</title>
<g id="a_edge23_Node000001_Node000008"><a xlink:title=" ">
<path fill="none" stroke="#63b8ff" d="M432.3,-274.68C467.14,-257.53 516.12,-225.19 516.12,-179 516.12,-179 516.12,-179 516.12,-121 516.12,-90.9 519.86,-75.73 497.12,-56 454.76,-19.23 280.18,-12.49 212.3,-11.27"/>
<polygon fill="#63b8ff" stroke="#63b8ff" points="430.94,-271.45 423.37,-278.87 433.91,-277.79 430.94,-271.45"/>
</a>
</g>
</g>
<!-- Node3 -->
<g id="Node000003" class="node">
<title>Node3</title>
<g id="a_Node000003"><a xlink:href="_clock_8h.html" target="_top" xlink:title="Déclaration de la classe CClock.">
<polygon fill="white" stroke="#666666" points="261.62,-188 212.62,-188 212.62,-168 261.62,-168 261.62,-188"/>
<text text-anchor="middle" x="237.12" y="-174.5" font-family="Helvetica,sans-Serif" font-size="10.00">Clock.h</text>
</a>
</g>
</g>
<!-- Node2&#45;&gt;Node3 -->
<g id="edge2_Node000002_Node000003" class="edge">
<title>Node2&#45;&gt;Node3</title>
<g id="a_edge2_Node000002_Node000003"><a xlink:title=" ">
<path fill="none" stroke="#63b8ff" d="M237.12,-212.13C237.12,-203.9 237.12,-194.85 237.12,-188.3"/>
<polygon fill="#63b8ff" stroke="#63b8ff" points="233.63,-212.08 237.13,-222.08 240.63,-212.08 233.63,-212.08"/>
</a>
</g>
</g>
<!-- Node6 -->
<g id="Node000006" class="node">
<title>Node6</title>
<g id="a_Node000006"><a xlink:href="_t_p_8h.html" target="_top" xlink:title="Déclaration de la classe CTP.">
<polygon fill="white" stroke="#666666" points="146.25,-76 110,-76 110,-56 146.25,-56 146.25,-76"/>
<text text-anchor="middle" x="128.12" y="-62.5" font-family="Helvetica,sans-Serif" font-size="10.00">TP.h</text>
</a>
</g>
</g>
<!-- Node2&#45;&gt;Node6 -->
<g id="edge20_Node000002_Node000006" class="edge">
<title>Node2&#45;&gt;Node6</title>
<g id="a_edge20_Node000002_Node000006"><a xlink:title=" ">
<path fill="none" stroke="#63b8ff" d="M218.75,-215.98C199.32,-197.1 168.93,-164.94 150.12,-132 139.61,-113.58 133.08,-89.35 130.08,-76.3"/>
<polygon fill="#63b8ff" stroke="#63b8ff" points="216.07,-218.26 225.73,-222.63 220.9,-213.2 216.07,-218.26"/>
</a>
</g>
</g>
<!-- Node9 -->
<g id="Node000009" class="node">
<title>Node9</title>
<g id="a_Node000009"><a xlink:href="gui_8cpp.html" target="_top" xlink:title="Définition de la classe CGUI.">
<polygon fill="white" stroke="#666666" points="351.88,-76 304.38,-76 304.38,-56 351.88,-56 351.88,-76"/>
<text text-anchor="middle" x="328.12" y="-62.5" font-family="Helvetica,sans-Serif" font-size="10.00">gui.cpp</text>
</a>
</g>
</g>
<!-- Node2&#45;&gt;Node9 -->
<g id="edge22_Node000002_Node000009" class="edge">
<title>Node2&#45;&gt;Node9</title>
<g id="a_edge22_Node000002_Node000009"><a xlink:title=" ">
<path fill="none" stroke="#63b8ff" d="M266.76,-225.07C306.49,-212.65 375.47,-184.44 405.12,-132 419.94,-105.81 380.09,-85.47 352.34,-74.94"/>
<polygon fill="#63b8ff" stroke="#63b8ff" points="265.95,-221.65 257.36,-227.86 267.95,-228.36 265.95,-221.65"/>
</a>
</g>
</g>
<!-- Node13 -->
<g id="Node000013" class="node">
<title>Node13</title>
<g id="a_Node000013"><a xlink:href="_wall_8h.html" target="_top" xlink:title="Déclaration de la classe CWall.">
<polygon fill="white" stroke="#666666" points="102,-132 58.25,-132 58.25,-112 102,-112 102,-132"/>
<text text-anchor="middle" x="80.12" y="-118.5" font-family="Helvetica,sans-Serif" font-size="10.00">Wall.h</text>
</a>
</g>
</g>
<!-- Node2&#45;&gt;Node13 -->
<g id="edge21_Node000002_Node000013" class="edge">
<title>Node2&#45;&gt;Node13</title>
<g id="a_edge21_Node000002_Node000013"><a xlink:title=" ">
<path fill="none" stroke="#63b8ff" d="M207,-227.93C180.51,-222.15 142.2,-210.44 116.12,-188 98.33,-172.69 87.64,-146.29 82.95,-132.32"/>
<polygon fill="#63b8ff" stroke="#63b8ff" points="206.28,-231.35 216.78,-229.88 207.66,-224.49 206.28,-231.35"/>
</a>
</g>
</g>
<!-- Node4 -->
<g id="Node000004" class="node">
<title>Node4</title>
<g id="a_Node000004"><a xlink:href="_auto_clock_8h.html" target="_top" xlink:title="Déclaration de la classe CAutoClock.">
<polygon fill="white" stroke="#666666" points="395.75,-132 326.5,-132 326.5,-112 395.75,-112 395.75,-132"/>
<text text-anchor="middle" x="361.12" y="-118.5" font-family="Helvetica,sans-Serif" font-size="10.00">AutoClock.h</text>
</a>
</g>
</g>
<!-- Node3&#45;&gt;Node4 -->
<g id="edge3_Node000003_Node000004" class="edge">
<title>Node3&#45;&gt;Node4</title>
<g id="a_edge3_Node000003_Node000004"><a xlink:title=" ">
<path fill="none" stroke="#63b8ff" d="M269.25,-163.01C291.29,-153.41 319.95,-140.93 339.36,-132.48"/>
<polygon fill="#63b8ff" stroke="#63b8ff" points="267.88,-159.79 260.11,-166.99 270.68,-166.21 267.88,-159.79"/>
</a>
</g>
</g>
<!-- Node10 -->
<g id="Node000010" class="node">
<title>Node10</title>
<g id="a_Node000010"><a xlink:href="_clock_8cpp.html" target="_top" xlink:title="Définition de la classe CClock.">
<polygon fill="white" stroke="#666666" points="308.88,-132 249.38,-132 249.38,-112 308.88,-112 308.88,-132"/>
<text text-anchor="middle" x="279.12" y="-118.5" font-family="Helvetica,sans-Serif" font-size="10.00">Clock.cpp</text>
</a>
</g>
</g>
<!-- Node3&#45;&gt;Node10 -->
<g id="edge10_Node000003_Node000010" class="edge">
<title>Node3&#45;&gt;Node10</title>
<g id="a_edge10_Node000003_Node000010"><a xlink:title=" ">
<path fill="none" stroke="#63b8ff" d="M251.34,-158.72C258.25,-149.84 266.26,-139.55 271.89,-132.3"/>
<polygon fill="#63b8ff" stroke="#63b8ff" points="248.75,-156.36 245.37,-166.4 254.27,-160.65 248.75,-156.36"/>
</a>
</g>
</g>
<!-- Node11 -->
<g id="Node000011" class="node">
<title>Node11</title>
<g id="a_Node000011"><a xlink:href="_mech_clock_8h.html" target="_top" xlink:title="Déclaration de la classe CMechClock.">
<polygon fill="white" stroke="#666666" points="231.62,-132 158.62,-132 158.62,-112 231.62,-112 231.62,-132"/>
<text text-anchor="middle" x="195.12" y="-118.5" font-family="Helvetica,sans-Serif" font-size="10.00">MechClock.h</text>
</a>
</g>
</g>
<!-- Node3&#45;&gt;Node11 -->
<g id="edge11_Node000003_Node000011" class="edge">
<title>Node3&#45;&gt;Node11</title>
<g id="a_edge11_Node000003_Node000011"><a xlink:title=" ">
<path fill="none" stroke="#63b8ff" d="M222.91,-158.72C216,-149.84 207.99,-139.55 202.36,-132.3"/>
<polygon fill="#63b8ff" stroke="#63b8ff" points="219.98,-160.65 228.88,-166.4 225.5,-156.36 219.98,-160.65"/>
</a>
</g>
</g>
<!-- Node3&#45;&gt;Node13 -->
<g id="edge16_Node000003_Node000013" class="edge">
<title>Node3&#45;&gt;Node13</title>
<g id="a_edge16_Node000003_Node000013"><a xlink:title=" ">
<path fill="none" stroke="#63b8ff" d="M201.64,-164.8C171.17,-154.31 128.18,-139.53 102.35,-130.64"/>
<polygon fill="#63b8ff" stroke="#63b8ff" points="200.22,-168.01 210.82,-167.95 202.5,-161.39 200.22,-168.01"/>
</a>
</g>
</g>
<!-- Node5 -->
<g id="Node000005" class="node">
<title>Node5</title>
<g id="a_Node000005"><a xlink:href="_auto_clock_8cpp.html" target="_top" xlink:title="Définition de la classe CAutoClock.">
<polygon fill="white" stroke="#666666" points="488,-76 408.25,-76 408.25,-56 488,-56 488,-76"/>
<text text-anchor="middle" x="448.12" y="-62.5" font-family="Helvetica,sans-Serif" font-size="10.00">AutoClock.cpp</text>
</a>
</g>
</g>
<!-- Node4&#45;&gt;Node5 -->
<g id="edge4_Node000004_Node000005" class="edge">
<title>Node4&#45;&gt;Node5</title>
<g id="a_edge4_Node000004_Node000005"><a xlink:title=" ">
<path fill="none" stroke="#63b8ff" d="M386.03,-105.54C401.13,-96.17 419.92,-84.51 432.85,-76.48"/>
<polygon fill="#63b8ff" stroke="#63b8ff" points="384.22,-102.55 377.57,-110.8 387.91,-108.5 384.22,-102.55"/>
</a>
</g>
</g>
<!-- Node4&#45;&gt;Node6 -->
<g id="edge5_Node000004_Node000006" class="edge">
<title>Node4&#45;&gt;Node6</title>
<g id="a_edge5_Node000004_Node000006"><a xlink:title=" ">
<path fill="none" stroke="#63b8ff" d="M315.1,-110.33C263.6,-98.4 182.68,-79.64 146.58,-71.28"/>
<polygon fill="#63b8ff" stroke="#63b8ff" points="314.24,-113.73 324.77,-112.57 315.82,-106.91 314.24,-113.73"/>
</a>
</g>
</g>
<!-- Node4&#45;&gt;Node8 -->
<g id="edge9_Node000004_Node000008" class="edge">
<title>Node4&#45;&gt;Node8</title>
<g id="a_edge9_Node000004_Node000008"><a xlink:title=" ">
<path fill="none" stroke="#63b8ff" d="M367.05,-100.97C369.9,-86.95 370.87,-68.55 361.12,-56 342.99,-32.65 257.01,-19.36 212.29,-13.93"/>
<polygon fill="#63b8ff" stroke="#63b8ff" points="363.71,-99.89 364.65,-110.45 370.5,-101.61 363.71,-99.89"/>
</a>
</g>
</g>
<!-- Node4&#45;&gt;Node9 -->
<g id="edge8_Node000004_Node000009" class="edge">
<title>Node4&#45;&gt;Node9</title>
<g id="a_edge8_Node000004_Node000009"><a xlink:title=" ">
<path fill="none" stroke="#63b8ff" d="M349.43,-101.87C344.13,-93.19 338.1,-83.32 333.81,-76.3"/>
<polygon fill="#63b8ff" stroke="#63b8ff" points="346.39,-103.59 354.59,-110.3 352.36,-99.94 346.39,-103.59"/>
</a>
</g>
</g>
<!-- Node7 -->
<g id="Node000007" class="node">
<title>Node7</title>
<g id="a_Node000007"><a xlink:href="_t_p_8cpp.html" target="_top" xlink:title="Définition de la classe CTP.">
<polygon fill="white" stroke="#666666" points="140.5,-20 93.75,-20 93.75,0 140.5,0 140.5,-20"/>
<text text-anchor="middle" x="117.12" y="-6.5" font-family="Helvetica,sans-Serif" font-size="10.00">TP.cpp</text>
</a>
</g>
</g>
<!-- Node6&#45;&gt;Node7 -->
<g id="edge6_Node000006_Node000007" class="edge">
<title>Node6&#45;&gt;Node7</title>
<g id="a_edge6_Node000006_Node000007"><a xlink:title=" ">
<path fill="none" stroke="#63b8ff" d="M123.93,-44.43C122.24,-36.11 120.37,-26.93 119.02,-20.3"/>
<polygon fill="#63b8ff" stroke="#63b8ff" points="120.48,-45.01 125.91,-54.11 127.34,-43.61 120.48,-45.01"/>
</a>
</g>
</g>
<!-- Node6&#45;&gt;Node8 -->
<g id="edge7_Node000006_Node000008" class="edge">
<title>Node6&#45;&gt;Node8</title>
<g id="a_edge7_Node000006_Node000008"><a xlink:title=" ">
<path fill="none" stroke="#63b8ff" d="M146.23,-47.85C155.86,-38.72 167.33,-27.86 175.31,-20.3"/>
<polygon fill="#63b8ff" stroke="#63b8ff" points="144,-45.13 139.15,-54.55 148.82,-50.22 144,-45.13"/>
</a>
</g>
</g>
<!-- Node11&#45;&gt;Node6 -->
<g id="edge13_Node000011_Node000006" class="edge">
<title>Node11&#45;&gt;Node6</title>
<g id="a_edge13_Node000011_Node000006"><a xlink:title=" ">
<path fill="none" stroke="#63b8ff" d="M174.53,-104.4C163.07,-95.17 149.23,-84.01 139.66,-76.3"/>
<polygon fill="#63b8ff" stroke="#63b8ff" points="172.29,-107.09 182.28,-110.64 176.69,-101.64 172.29,-107.09"/>
</a>
</g>
</g>
<!-- Node11&#45;&gt;Node8 -->
<g id="edge15_Node000011_Node000008" class="edge">
<title>Node11&#45;&gt;Node8</title>
<g id="a_edge15_Node000011_Node000008"><a xlink:title=" ">
<path fill="none" stroke="#63b8ff" d="M193.24,-100.31C191.07,-76.36 187.58,-37.95 185.98,-20.35"/>
<polygon fill="#63b8ff" stroke="#63b8ff" points="189.74,-100.47 194.14,-110.11 196.72,-99.84 189.74,-100.47"/>
</a>
</g>
</g>
<!-- Node11&#45;&gt;Node9 -->
<g id="edge14_Node000011_Node000009" class="edge">
<title>Node11&#45;&gt;Node9</title>
<g id="a_edge14_Node000011_Node000009"><a xlink:title=" ">
<path fill="none" stroke="#63b8ff" d="M228.94,-107.27C252.66,-97.64 283.77,-85.01 304.78,-76.48"/>
<polygon fill="#63b8ff" stroke="#63b8ff" points="227.64,-104.02 219.69,-111.02 230.28,-110.51 227.64,-104.02"/>
</a>
</g>
</g>
<!-- Node12 -->
<g id="Node000012" class="node">
<title>Node12</title>
<g id="a_Node000012"><a xlink:href="_mech_clock_8cpp.html" target="_top" xlink:title="Définition de la classe CMechClock.">
<polygon fill="white" stroke="#666666" points="285.88,-76 202.38,-76 202.38,-56 285.88,-56 285.88,-76"/>
<text text-anchor="middle" x="244.12" y="-62.5" font-family="Helvetica,sans-Serif" font-size="10.00">MechClock.cpp</text>
</a>
</g>
</g>
<!-- Node11&#45;&gt;Node12 -->
<g id="edge12_Node000011_Node000012" class="edge">
<title>Node11&#45;&gt;Node12</title>
<g id="a_edge12_Node000011_Node000012"><a xlink:title=" ">
<path fill="none" stroke="#63b8ff" d="M211.2,-103.29C219.37,-94.28 228.97,-83.7 235.69,-76.3"/>
<polygon fill="#63b8ff" stroke="#63b8ff" points="208.81,-100.72 204.68,-110.47 213.99,-105.42 208.81,-100.72"/>
</a>
</g>
</g>
<!-- Node13&#45;&gt;Node6 -->
<g id="edge17_Node000013_Node000006" class="edge">
<title>Node13&#45;&gt;Node6</title>
<g id="a_edge17_Node000013_Node000006"><a xlink:title=" ">
<path fill="none" stroke="#63b8ff" d="M96.12,-103C104.07,-94.06 113.35,-83.62 119.86,-76.3"/>
<polygon fill="#63b8ff" stroke="#63b8ff" points="93.52,-100.66 89.49,-110.46 98.75,-105.31 93.52,-100.66"/>
</a>
</g>
</g>
<!-- Node13&#45;&gt;Node8 -->
<g id="edge19_Node000013_Node000008" class="edge">
<title>Node13&#45;&gt;Node8</title>
<g id="a_edge19_Node000013_Node000008"><a xlink:title=" ">
<path fill="none" stroke="#63b8ff" d="M82.72,-100.25C85.37,-86.42 90.65,-68.54 101.12,-56 115.97,-38.22 139.7,-26.43 158.16,-19.39"/>
<polygon fill="#63b8ff" stroke="#63b8ff" points="79.28,-99.63 81.19,-110.05 86.19,-100.71 79.28,-99.63"/>
</a>
</g>
</g>
<!-- Node14 -->
<g id="Node000014" class="node">
<title>Node14</title>
<g id="a_Node000014"><a xlink:href="_wall_8cpp.html" target="_top" xlink:title="Définition de la classe CWall.">
<polygon fill="white" stroke="#666666" points="54.25,-76 0,-76 0,-56 54.25,-56 54.25,-76"/>
<text text-anchor="middle" x="27.12" y="-62.5" font-family="Helvetica,sans-Serif" font-size="10.00">Wall.cpp</text>
</a>
</g>
</g>
<!-- Node13&#45;&gt;Node14 -->
<g id="edge18_Node000013_Node000014" class="edge">
<title>Node13&#45;&gt;Node14</title>
<g id="a_edge18_Node000013_Node000014"><a xlink:title=" ">
<path fill="none" stroke="#63b8ff" d="M63.01,-103.57C54.11,-94.5 43.59,-83.78 36.25,-76.3"/>
<polygon fill="#63b8ff" stroke="#63b8ff" points="60.33,-105.83 69.83,-110.51 65.33,-100.93 60.33,-105.83"/>
</a>
</g>
</g>
</g>
</svg>
