<?xml version="1.0" encoding="UTF-8" standalone="no"?>
<!DOCTYPE svg PUBLIC "-//W3C//DTD SVG 1.1//EN"
 "http://www.w3.org/Graphics/SVG/1.1/DTD/svg11.dtd">
<!-- Generated by graphviz version 10.0.1 (20240210.2158)
 -->
<!-- Title: prog.cpp Pages: 1 -->
<!--zoomable 364 -->

<svg id="main" version="1.1" xmlns="http://www.w3.org/2000/svg" xmlns:xlink="http://www.w3.org/1999/xlink" xml:space="preserve" onload="init(evt)">
<style type="text/css"><![CDATA[
.node, .edge {opacity: 0.7;}
.node.selected, .edge.selected {opacity: 1;}
.edge:hover path { stroke: red; }
.edge:hover polygon { stroke: red; fill: red; }
]]></style>

<defs>
  <circle id="rim" cx="0" cy="0" r="7"/>
  <circle id="rim2" cx="0" cy="0" r="3.5"/>
  <g id="zoomPlus">
    <use xlink:href="#rim" fill="#404040"><set attributeName="fill" to="#808080" begin="zoomplus.mouseover" end="zoomplus.mouseout"/></use>
    <path d="M-4,0h8M0,-4v8" fill="none" stroke="white" stroke-width="1.5" pointer-events="none"/>
  </g>
  <g id="zoomMin">
    <use xlink:href="#rim" fill="#404040"><set attributeName="fill" to="#808080" begin="zoomminus.mouseover" end="zoomminus.mouseout"/></use>
    <path d="M-4,0h8" fill="none" stroke="white" stroke-width="1.5" pointer-events="none"/>
  </g>
  <g id="arrowUp" transform="translate(30 24)">
    <use xlink:href="#rim"/>
    <path pointer-events="none" fill="none" stroke="white" stroke-width="1.5" d="M0,-3.0v7 M-2.5,-0.5L0,-3.0L2.5,-0.5"/>
  </g>
  <g id="arrowRight" transform="rotate(90) translate(36 -43)">
    <use xlink:href="#rim"/>
    <path pointer-events="none" fill="none" stroke="white" stroke-width="1.5" d="M0,-3.0v7 M-2.5,-0.5L0,-3.0L2.5,-0.5"/>
  </g>
  <g id="arrowDown" transform="rotate(180) translate(-30 -48)">
    <use xlink:href="#rim"/>
    <path pointer-events="none" fill="none" stroke="white" stroke-width="1.5" d="M0,-3.0v7 M-2.5,-0.5L0,-3.0L2.5,-0.5"/>
  </g>
  <g id="arrowLeft" transform="rotate(270) translate(-36 17)">
    <use xlink:href="#rim"/>
    <path pointer-events="none" fill="none" stroke="white" stroke-width="1.5" d="M0,-3.0v7 M-2.5,-0.5L0,-3.0L2.5,-0.5"/>
  </g>
  <g id="resetDef">
    <use xlink:href="#rim2" fill="#404040"><set attributeName="fill" to="#808080" begin="reset.mouseover" end="reset.mouseout"/></use>
  </g>
</defs>
<script type="application/ecmascript">
var viewWidth = 795;
var viewHeight = 364;
var sectionId = 'dynsection-0';
</script>
<script type="application/ecmascript" xlink:href="svg.min.js"/>
<svg id="graph" class="graph">
<g id="viewport">
<title>prog.cpp</title>
<!-- Node1 -->
<g id="Node000001" class="node">
<title>Node1</title>
<g id="a_Node000001"><a xlink:title="Programme principal.">
<polygon fill="#999999" stroke="#666666" points="508.5,-356 455,-356 455,-336 508.5,-336 508.5,-356"/>
<text text-anchor="middle" x="481.75" y="-342.5" font-family="Helvetica,sans-Serif" font-size="10.00">prog.cpp</text>
</a>
</g>
</g>
<!-- Node2 -->
<g id="Node000002" class="node">
<title>Node2</title>
<g id="a_Node000002"><a xlink:href="_std_afx_8h.html" target="_top" xlink:title="Fichier de gestion des en&#45;têtes précompilées.">
<polygon fill="white" stroke="#666666" points="184.5,-300 131,-300 131,-280 184.5,-280 184.5,-300"/>
<text text-anchor="middle" x="157.75" y="-286.5" font-family="Helvetica,sans-Serif" font-size="10.00">StdAfx.h</text>
</a>
</g>
</g>
<!-- Node1&#45;&gt;Node2 -->
<g id="edge1_Node000001_Node000002" class="edge">
<title>Node1&#45;&gt;Node2</title>
<g id="a_edge1_Node000001_Node000002"><a xlink:title=" ">
<path fill="none" stroke="#63b8ff" d="M454.68,-340.49C397.15,-330.9 262.54,-308.47 196.16,-297.4"/>
<polygon fill="#63b8ff" stroke="#63b8ff" points="196.9,-293.98 186.46,-295.79 195.75,-300.88 196.9,-293.98"/>
</a>
</g>
</g>
<!-- Node7 -->
<g id="Node000007" class="node">
<title>Node7</title>
<g id="a_Node000007"><a xlink:href="vecteur2_d_8h.html" target="_top" xlink:title="Déclaration de la classe CVecteur2D.">
<polygon fill="white" stroke="#666666" points="482.25,-76 415.25,-76 415.25,-56 482.25,-56 482.25,-76"/>
<text text-anchor="middle" x="448.75" y="-62.5" font-family="Helvetica,sans-Serif" font-size="10.00">vecteur2D.h</text>
</a>
</g>
</g>
<!-- Node1&#45;&gt;Node7 -->
<g id="edge6_Node000001_Node000007" class="edge">
<title>Node1&#45;&gt;Node7</title>
<g id="a_edge6_Node000001_Node000007"><a xlink:title=" ">
<path fill="none" stroke="#63b8ff" d="M454.51,-342.11C401.31,-334.79 288.75,-310.4 288.75,-235 288.75,-235 288.75,-235 288.75,-177 288.75,-120.83 356.55,-91.17 403.88,-77.32"/>
<polygon fill="#63b8ff" stroke="#63b8ff" points="404.66,-80.73 413.36,-74.69 402.79,-73.99 404.66,-80.73"/>
</a>
</g>
</g>
<!-- Node10 -->
<g id="Node000010" class="node">
<title>Node10</title>
<g id="a_Node000010"><a xlink:href="_t_p_8h.html" target="_top" xlink:title="Déclaration de la classe CTP.">
<polygon fill="white" stroke="#666666" points="523.88,-300 487.62,-300 487.62,-280 523.88,-280 523.88,-300"/>
<text text-anchor="middle" x="505.75" y="-286.5" font-family="Helvetica,sans-Serif" font-size="10.00">TP.h</text>
</a>
</g>
</g>
<!-- Node1&#45;&gt;Node10 -->
<g id="edge9_Node000001_Node000010" class="edge">
<title>Node1&#45;&gt;Node10</title>
<g id="a_edge9_Node000001_Node000010"><a xlink:title=" ">
<path fill="none" stroke="#63b8ff" d="M485.93,-335.59C488.99,-328.7 493.26,-319.1 497.05,-310.57"/>
<polygon fill="#63b8ff" stroke="#63b8ff" points="500.14,-312.24 501,-301.68 493.74,-309.4 500.14,-312.24"/>
</a>
</g>
</g>
<!-- Node11 -->
<g id="Node000011" class="node">
<title>Node11</title>
<g id="a_Node000011"><a xlink:href="_wall_8h.html" target="_top" xlink:title="Déclaration de la classe CWall.">
<polygon fill="white" stroke="#666666" points="615.62,-244 571.88,-244 571.88,-224 615.62,-224 615.62,-244"/>
<text text-anchor="middle" x="593.75" y="-230.5" font-family="Helvetica,sans-Serif" font-size="10.00">Wall.h</text>
</a>
</g>
</g>
<!-- Node1&#45;&gt;Node11 -->
<g id="edge30_Node000001_Node000011" class="edge">
<title>Node1&#45;&gt;Node11</title>
<g id="a_edge30_Node000001_Node000011"><a xlink:title=" ">
<path fill="none" stroke="#63b8ff" d="M492.96,-335.64C503.48,-326.73 519.53,-312.82 532.75,-300 548.82,-284.42 566.2,-265.7 578.28,-252.36"/>
<polygon fill="#63b8ff" stroke="#63b8ff" points="580.62,-254.99 584.71,-245.21 575.42,-250.31 580.62,-254.99"/>
</a>
</g>
</g>
<!-- Node14 -->
<g id="Node000014" class="node">
<title>Node14</title>
<g id="a_Node000014"><a xlink:href="inc_lib_graph2_8h.html" target="_top" xlink:title="Fichier d&#39;inclusion de la bibliothèque LibGraph2.">
<polygon fill="white" stroke="#666666" points="708.38,-76 627.12,-76 627.12,-56 708.38,-56 708.38,-76"/>
<text text-anchor="middle" x="667.75" y="-62.5" font-family="Helvetica,sans-Serif" font-size="10.00">incLibGraph2.h</text>
</a>
</g>
</g>
<!-- Node1&#45;&gt;Node14 -->
<g id="edge33_Node000001_Node000014" class="edge">
<title>Node1&#45;&gt;Node14</title>
<g id="a_edge33_Node000001_Node000014"><a xlink:title=" ">
<path fill="none" stroke="#63b8ff" d="M508.82,-341.19C583.46,-329.92 786.75,-293.82 786.75,-235 786.75,-235 786.75,-235 786.75,-177 786.75,-130.6 737.35,-98.33 702.21,-81.24"/>
<polygon fill="#63b8ff" stroke="#63b8ff" points="703.75,-78.09 693.2,-77.06 700.8,-84.44 703.75,-78.09"/>
</a>
</g>
</g>
<!-- Node16 -->
<g id="Node000016" class="node">
<title>Node16</title>
<g id="a_Node000016"><a xlink:title=" ">
<polygon fill="#e0e0e0" stroke="#999999" points="717.38,-132 666.12,-132 666.12,-112 717.38,-112 717.38,-132"/>
<text text-anchor="middle" x="691.75" y="-118.5" font-family="Helvetica,sans-Serif" font-size="10.00">memory</text>
</a>
</g>
</g>
<!-- Node1&#45;&gt;Node16 -->
<g id="edge34_Node000001_Node000016" class="edge">
<title>Node1&#45;&gt;Node16</title>
<g id="a_edge34_Node000001_Node000016"><a xlink:title=" ">
<path fill="none" stroke="#63b8ff" d="M503.24,-335.51C537.15,-319.85 604.01,-286.08 650.75,-244 673.87,-223.18 682.91,-217.51 692.75,-188 697.56,-173.56 697.03,-156.29 695.44,-143.18"/>
<polygon fill="#63b8ff" stroke="#63b8ff" points="698.95,-142.97 693.97,-133.61 692.03,-144.03 698.95,-142.97"/>
</a>
</g>
</g>
<!-- Node19 -->
<g id="Node000019" class="node">
<title>Node19</title>
<g id="a_Node000019"><a xlink:href="_mech_clock_8h.html" target="_top" xlink:title="Déclaration de la classe CMechClock.">
<polygon fill="white" stroke="#666666" points="390.25,-244 317.25,-244 317.25,-224 390.25,-224 390.25,-244"/>
<text text-anchor="middle" x="353.75" y="-230.5" font-family="Helvetica,sans-Serif" font-size="10.00">MechClock.h</text>
</a>
</g>
</g>
<!-- Node1&#45;&gt;Node19 -->
<g id="edge32_Node000001_Node000019" class="edge">
<title>Node1&#45;&gt;Node19</title>
<g id="a_edge32_Node000001_Node000019"><a xlink:title=" ">
<path fill="none" stroke="#63b8ff" d="M470.84,-335.62C449.2,-317.03 400.62,-275.28 373.32,-251.82"/>
<polygon fill="#63b8ff" stroke="#63b8ff" points="375.65,-249.2 365.78,-245.34 371.09,-254.51 375.65,-249.2"/>
</a>
</g>
</g>
<!-- Node20 -->
<g id="Node000020" class="node">
<title>Node20</title>
<g id="a_Node000020"><a xlink:href="_auto_clock_8h.html" target="_top" xlink:title="Déclaration de la classe CAutoClock.">
<polygon fill="white" stroke="#666666" points="477.38,-244 408.12,-244 408.12,-224 477.38,-224 477.38,-244"/>
<text text-anchor="middle" x="442.75" y="-230.5" font-family="Helvetica,sans-Serif" font-size="10.00">AutoClock.h</text>
</a>
</g>
</g>
<!-- Node1&#45;&gt;Node20 -->
<g id="edge31_Node000001_Node000020" class="edge">
<title>Node1&#45;&gt;Node20</title>
<g id="a_edge31_Node000001_Node000020"><a xlink:title=" ">
<path fill="none" stroke="#63b8ff" d="M478.42,-335.62C472.12,-317.84 458.31,-278.88 449.84,-255"/>
<polygon fill="#63b8ff" stroke="#63b8ff" points="453.21,-254.04 446.57,-245.78 446.62,-256.38 453.21,-254.04"/>
</a>
</g>
</g>
<!-- Node3 -->
<g id="Node000003" class="node">
<title>Node3</title>
<g id="a_Node000003"><a xlink:title=" ">
<polygon fill="#e0e0e0" stroke="#999999" points="260.25,-244 199.25,-244 199.25,-224 260.25,-224 260.25,-244"/>
<text text-anchor="middle" x="229.75" y="-230.5" font-family="Helvetica,sans-Serif" font-size="10.00">windows.h</text>
</a>
</g>
</g>
<!-- Node2&#45;&gt;Node3 -->
<g id="edge2_Node000002_Node000003" class="edge">
<title>Node2&#45;&gt;Node3</title>
<g id="a_edge2_Node000002_Node000003"><a xlink:title=" ">
<path fill="none" stroke="#63b8ff" d="M170.29,-279.59C180.72,-271.77 195.8,-260.46 208.16,-251.19"/>
<polygon fill="#63b8ff" stroke="#63b8ff" points="210.24,-254.01 216.14,-245.21 206.04,-248.41 210.24,-254.01"/>
</a>
</g>
</g>
<!-- Node4 -->
<g id="Node000004" class="node">
<title>Node4</title>
<g id="a_Node000004"><a xlink:title=" ">
<polygon fill="#e0e0e0" stroke="#999999" points="47.5,-244 0,-244 0,-224 47.5,-224 47.5,-244"/>
<text text-anchor="middle" x="23.75" y="-230.5" font-family="Helvetica,sans-Serif" font-size="10.00">stdlib.h</text>
</a>
</g>
</g>
<!-- Node2&#45;&gt;Node4 -->
<g id="edge3_Node000002_Node000004" class="edge">
<title>Node2&#45;&gt;Node4</title>
<g id="a_edge3_Node000002_Node000004"><a xlink:title=" ">
<path fill="none" stroke="#63b8ff" d="M134.41,-279.59C113.21,-271.05 81.68,-258.35 57.7,-248.68"/>
<polygon fill="#63b8ff" stroke="#63b8ff" points="59.26,-245.54 48.68,-245.05 56.64,-252.03 59.26,-245.54"/>
</a>
</g>
</g>
<!-- Node5 -->
<g id="Node000005" class="node">
<title>Node5</title>
<g id="a_Node000005"><a xlink:title=" ">
<polygon fill="#e0e0e0" stroke="#999999" points="116.38,-244 65.12,-244 65.12,-224 116.38,-224 116.38,-244"/>
<text text-anchor="middle" x="90.75" y="-230.5" font-family="Helvetica,sans-Serif" font-size="10.00">crtdbg.h</text>
</a>
</g>
</g>
<!-- Node2&#45;&gt;Node5 -->
<g id="edge4_Node000002_Node000005" class="edge">
<title>Node2&#45;&gt;Node5</title>
<g id="a_edge4_Node000002_Node000005"><a xlink:title=" ">
<path fill="none" stroke="#63b8ff" d="M146.08,-279.59C136.47,-271.85 122.62,-260.69 111.18,-251.47"/>
<polygon fill="#63b8ff" stroke="#63b8ff" points="113.45,-248.8 103.47,-245.25 109.05,-254.25 113.45,-248.8"/>
</a>
</g>
</g>
<!-- Node6 -->
<g id="Node000006" class="node">
<title>Node6</title>
<g id="a_Node000006"><a xlink:title=" ">
<polygon fill="#e0e0e0" stroke="#999999" points="180.75,-244 134.75,-244 134.75,-224 180.75,-224 180.75,-244"/>
<text text-anchor="middle" x="157.75" y="-230.5" font-family="Helvetica,sans-Serif" font-size="10.00">tchar.h</text>
</a>
</g>
</g>
<!-- Node2&#45;&gt;Node6 -->
<g id="edge5_Node000002_Node000006" class="edge">
<title>Node2&#45;&gt;Node6</title>
<g id="a_edge5_Node000002_Node000006"><a xlink:title=" ">
<path fill="none" stroke="#63b8ff" d="M157.75,-279.59C157.75,-273.01 157.75,-263.96 157.75,-255.73"/>
<polygon fill="#63b8ff" stroke="#63b8ff" points="161.25,-255.81 157.75,-245.81 154.25,-255.81 161.25,-255.81"/>
</a>
</g>
</g>
<!-- Node8 -->
<g id="Node000008" class="node">
<title>Node8</title>
<g id="a_Node000008"><a xlink:title=" ">
<polygon fill="#e0e0e0" stroke="#999999" points="340.75,-20 300.75,-20 300.75,0 340.75,0 340.75,-20"/>
<text text-anchor="middle" x="320.75" y="-6.5" font-family="Helvetica,sans-Serif" font-size="10.00">string</text>
</a>
</g>
</g>
<!-- Node7&#45;&gt;Node8 -->
<g id="edge7_Node000007_Node000008" class="edge">
<title>Node7&#45;&gt;Node8</title>
<g id="a_edge7_Node000007_Node000008"><a xlink:title=" ">
<path fill="none" stroke="#63b8ff" d="M426.45,-55.59C405.68,-46.83 374.52,-33.68 351.4,-23.93"/>
<polygon fill="#63b8ff" stroke="#63b8ff" points="353.07,-20.84 342.5,-20.17 350.35,-27.29 353.07,-20.84"/>
</a>
</g>
</g>
<!-- Node9 -->
<g id="Node000009" class="node">
<title>Node9</title>
<g id="a_Node000009"><a xlink:title=" ">
<polygon fill="#e0e0e0" stroke="#999999" points="475.5,-20 422,-20 422,0 475.5,0 475.5,-20"/>
<text text-anchor="middle" x="448.75" y="-6.5" font-family="Helvetica,sans-Serif" font-size="10.00">iostream</text>
</a>
</g>
</g>
<!-- Node7&#45;&gt;Node9 -->
<g id="edge8_Node000007_Node000009" class="edge">
<title>Node7&#45;&gt;Node9</title>
<g id="a_edge8_Node000007_Node000009"><a xlink:title=" ">
<path fill="none" stroke="#63b8ff" d="M448.75,-55.59C448.75,-49.01 448.75,-39.96 448.75,-31.73"/>
<polygon fill="#63b8ff" stroke="#63b8ff" points="452.25,-31.81 448.75,-21.81 445.25,-31.81 452.25,-31.81"/>
</a>
</g>
</g>
<!-- Node10&#45;&gt;Node7 -->
<g id="edge10_Node000010_Node000007" class="edge">
<title>Node10&#45;&gt;Node7</title>
<g id="a_edge10_Node000010_Node000007"><a xlink:title=" ">
<path fill="none" stroke="#63b8ff" d="M503.74,-279.55C499.35,-259.11 488.46,-209.33 477.75,-168 470.48,-139.92 461.05,-107.76 454.95,-87.42"/>
<polygon fill="#63b8ff" stroke="#63b8ff" points="458.31,-86.44 452.07,-77.87 451.61,-88.46 458.31,-86.44"/>
</a>
</g>
</g>
<!-- Node10&#45;&gt;Node11 -->
<g id="edge11_Node000010_Node000011" class="edge">
<title>Node10&#45;&gt;Node11</title>
<g id="a_edge11_Node000010_Node000011"><a xlink:title=" ">
<path fill="none" stroke="#63b8ff" d="M521.08,-279.59C534.25,-271.51 553.48,-259.71 568.86,-250.27"/>
<polygon fill="#63b8ff" stroke="#63b8ff" points="570.32,-253.48 577.01,-245.27 566.66,-247.52 570.32,-253.48"/>
</a>
</g>
</g>
<!-- Node13 -->
<g id="Node000013" class="node">
<title>Node13</title>
<g id="a_Node000013"><a xlink:href="gui_8h.html" target="_top" xlink:title="Déclaration de la classe CGUI.">
<polygon fill="white" stroke="#666666" points="568.25,-132 531.25,-132 531.25,-112 568.25,-112 568.25,-132"/>
<text text-anchor="middle" x="549.75" y="-118.5" font-family="Helvetica,sans-Serif" font-size="10.00">gui.h</text>
</a>
</g>
</g>
<!-- Node10&#45;&gt;Node13 -->
<g id="edge28_Node000010_Node000013" class="edge">
<title>Node10&#45;&gt;Node13</title>
<g id="a_edge28_Node000010_Node000013"><a xlink:title=" ">
<path fill="none" stroke="#63b8ff" d="M508.81,-279.74C511.75,-270.67 516.27,-256.45 519.75,-244 529.57,-208.85 539.47,-167.51 545.08,-143.39"/>
<polygon fill="#63b8ff" stroke="#63b8ff" points="548.42,-144.47 547.26,-133.94 541.6,-142.89 548.42,-144.47"/>
</a>
</g>
</g>
<!-- Node10&#45;&gt;Node16 -->
<g id="edge29_Node000010_Node000016" class="edge">
<title>Node10&#45;&gt;Node16</title>
<g id="a_edge29_Node000010_Node000016"><a xlink:title=" ">
<path fill="none" stroke="#63b8ff" d="M523.96,-285.01C548.48,-279.02 592.7,-266.01 624.75,-244 652.26,-225.11 658.98,-217.4 674.75,-188 682.19,-174.13 686.51,-156.83 688.93,-143.57"/>
<polygon fill="#63b8ff" stroke="#63b8ff" points="692.36,-144.25 690.47,-133.82 685.45,-143.15 692.36,-144.25"/>
</a>
</g>
</g>
<!-- Node10&#45;&gt;Node19 -->
<g id="edge24_Node000010_Node000019" class="edge">
<title>Node10&#45;&gt;Node19</title>
<g id="a_edge24_Node000010_Node000019"><a xlink:title=" ">
<path fill="none" stroke="#63b8ff" d="M487.42,-282.49C463.65,-274.04 421.62,-259.11 391.02,-248.24"/>
<polygon fill="#63b8ff" stroke="#63b8ff" points="392.34,-245 381.75,-244.95 390,-251.59 392.34,-245"/>
</a>
</g>
</g>
<!-- Node10&#45;&gt;Node20 -->
<g id="edge26_Node000010_Node000020" class="edge">
<title>Node10&#45;&gt;Node20</title>
<g id="a_edge26_Node000010_Node000020"><a xlink:title=" ">
<path fill="none" stroke="#63b8ff" d="M494.78,-279.59C485.83,-271.93 472.98,-260.91 462.29,-251.75"/>
<polygon fill="#63b8ff" stroke="#63b8ff" points="464.62,-249.13 454.75,-245.28 460.06,-254.45 464.62,-249.13"/>
</a>
</g>
</g>
<!-- Node12 -->
<g id="Node000012" class="node">
<title>Node12</title>
<g id="a_Node000012"><a xlink:href="_clock_8h.html" target="_top" xlink:title="Déclaration de la classe CClock.">
<polygon fill="white" stroke="#666666" points="469.25,-188 420.25,-188 420.25,-168 469.25,-168 469.25,-188"/>
<text text-anchor="middle" x="444.75" y="-174.5" font-family="Helvetica,sans-Serif" font-size="10.00">Clock.h</text>
</a>
</g>
</g>
<!-- Node11&#45;&gt;Node12 -->
<g id="edge12_Node000011_Node000012" class="edge">
<title>Node11&#45;&gt;Node12</title>
<g id="a_edge12_Node000011_Node000012"><a xlink:title=" ">
<path fill="none" stroke="#63b8ff" d="M571.44,-224.92C547.36,-216.19 508.66,-202.16 480.36,-191.91"/>
<polygon fill="#63b8ff" stroke="#63b8ff" points="481.72,-188.67 471.12,-188.56 479.33,-195.26 481.72,-188.67"/>
</a>
</g>
</g>
<!-- Node11&#45;&gt;Node13 -->
<g id="edge21_Node000011_Node000013" class="edge">
<title>Node11&#45;&gt;Node13</title>
<g id="a_edge21_Node000011_Node000013"><a xlink:title=" ">
<path fill="none" stroke="#63b8ff" d="M590,-223.62C582.89,-205.84 567.3,-166.88 557.75,-143"/>
<polygon fill="#63b8ff" stroke="#63b8ff" points="561.02,-141.74 554.05,-133.76 554.52,-144.34 561.02,-141.74"/>
</a>
</g>
</g>
<!-- Node11&#45;&gt;Node16 -->
<g id="edge23_Node000011_Node000016" class="edge">
<title>Node11&#45;&gt;Node16</title>
<g id="a_edge23_Node000011_Node000016"><a xlink:title=" ">
<path fill="none" stroke="#63b8ff" d="M609.67,-223.58C622.63,-215.35 640.84,-202.48 653.75,-188 665.98,-174.28 676.24,-156.02 683.01,-142.35"/>
<polygon fill="#63b8ff" stroke="#63b8ff" points="686.07,-144.05 687.18,-133.51 679.75,-141.05 686.07,-144.05"/>
</a>
</g>
</g>
<!-- Node18 -->
<g id="Node000018" class="node">
<title>Node18</title>
<g id="a_Node000018"><a xlink:title=" ">
<polygon fill="#e0e0e0" stroke="#999999" points="644.62,-188 606.88,-188 606.88,-168 644.62,-168 644.62,-188"/>
<text text-anchor="middle" x="625.75" y="-174.5" font-family="Helvetica,sans-Serif" font-size="10.00">array</text>
</a>
</g>
</g>
<!-- Node11&#45;&gt;Node18 -->
<g id="edge22_Node000011_Node000018" class="edge">
<title>Node11&#45;&gt;Node18</title>
<g id="a_edge22_Node000011_Node000018"><a xlink:title=" ">
<path fill="none" stroke="#63b8ff" d="M599.32,-223.59C603.5,-216.55 609.35,-206.67 614.49,-198"/>
<polygon fill="#63b8ff" stroke="#63b8ff" points="617.38,-199.99 619.47,-189.6 611.36,-196.42 617.38,-199.99"/>
</a>
</g>
</g>
<!-- Node12&#45;&gt;Node7 -->
<g id="edge13_Node000012_Node000007" class="edge">
<title>Node12&#45;&gt;Node7</title>
<g id="a_edge13_Node000012_Node000007"><a xlink:title=" ">
<path fill="none" stroke="#63b8ff" d="M445.09,-167.62C445.73,-150.01 447.13,-111.59 448,-87.65"/>
<polygon fill="#63b8ff" stroke="#63b8ff" points="451.49,-87.99 448.35,-77.87 444.49,-87.73 451.49,-87.99"/>
</a>
</g>
</g>
<!-- Node12&#45;&gt;Node8 -->
<g id="edge19_Node000012_Node000008" class="edge">
<title>Node12&#45;&gt;Node8</title>
<g id="a_edge19_Node000012_Node000008"><a xlink:title=" ">
<path fill="none" stroke="#63b8ff" d="M419.97,-168.18C402.67,-160.89 380.16,-148.96 365.75,-132 340.55,-102.36 328.83,-57.28 323.9,-31.33"/>
<polygon fill="#63b8ff" stroke="#63b8ff" points="327.4,-31.03 322.26,-21.77 320.51,-32.22 327.4,-31.03"/>
</a>
</g>
</g>
<!-- Node12&#45;&gt;Node13 -->
<g id="edge14_Node000012_Node000013" class="edge">
<title>Node12&#45;&gt;Node13</title>
<g id="a_edge14_Node000012_Node000013"><a xlink:title=" ">
<path fill="none" stroke="#63b8ff" d="M463.04,-167.59C479.05,-159.36 502.58,-147.26 521.09,-137.74"/>
<polygon fill="#63b8ff" stroke="#63b8ff" points="522.68,-140.86 529.97,-133.17 519.48,-134.63 522.68,-140.86"/>
</a>
</g>
</g>
<!-- Node12&#45;&gt;Node16 -->
<g id="edge18_Node000012_Node000016" class="edge">
<title>Node12&#45;&gt;Node16</title>
<g id="a_edge18_Node000012_Node000016"><a xlink:title=" ">
<path fill="none" stroke="#63b8ff" d="M469.34,-171.62C512.81,-162.12 603.46,-142.3 654.6,-131.12"/>
<polygon fill="#63b8ff" stroke="#63b8ff" points="655.28,-134.56 664.3,-129 653.79,-127.72 655.28,-134.56"/>
</a>
</g>
</g>
<!-- Node17 -->
<g id="Node000017" class="node">
<title>Node17</title>
<g id="a_Node000017"><a xlink:title=" ">
<polygon fill="#e0e0e0" stroke="#999999" points="420.38,-132 375.12,-132 375.12,-112 420.38,-112 420.38,-132"/>
<text text-anchor="middle" x="397.75" y="-118.5" font-family="Helvetica,sans-Serif" font-size="10.00">chrono</text>
</a>
</g>
</g>
<!-- Node12&#45;&gt;Node17 -->
<g id="edge20_Node000012_Node000017" class="edge">
<title>Node12&#45;&gt;Node17</title>
<g id="a_edge20_Node000012_Node000017"><a xlink:title=" ">
<path fill="none" stroke="#63b8ff" d="M436.56,-167.59C430.16,-160.24 421.07,-149.8 413.3,-140.87"/>
<polygon fill="#63b8ff" stroke="#63b8ff" points="416.04,-138.69 406.84,-133.44 410.76,-143.28 416.04,-138.69"/>
</a>
</g>
</g>
<!-- Node13&#45;&gt;Node7 -->
<g id="edge17_Node000013_Node000007" class="edge">
<title>Node13&#45;&gt;Node7</title>
<g id="a_edge17_Node000013_Node000007"><a xlink:title=" ">
<path fill="none" stroke="#63b8ff" d="M532.16,-111.59C516.83,-103.4 494.33,-91.37 476.56,-81.87"/>
<polygon fill="#63b8ff" stroke="#63b8ff" points="478.28,-78.82 467.81,-77.19 474.98,-84.99 478.28,-78.82"/>
</a>
</g>
</g>
<!-- Node13&#45;&gt;Node14 -->
<g id="edge15_Node000013_Node000014" class="edge">
<title>Node13&#45;&gt;Node14</title>
<g id="a_edge15_Node000013_Node000014"><a xlink:title=" ">
<path fill="none" stroke="#63b8ff" d="M568.71,-112.32C587.1,-103.91 615.32,-90.99 636.94,-81.1"/>
<polygon fill="#63b8ff" stroke="#63b8ff" points="638.24,-84.35 645.88,-77.01 635.33,-77.99 638.24,-84.35"/>
</a>
</g>
</g>
<!-- Node15 -->
<g id="Node000015" class="node">
<title>Node15</title>
<g id="a_Node000015"><a xlink:title=" ">
<polygon fill="#e0e0e0" stroke="#999999" points="702,-20 633.5,-20 633.5,0 702,0 702,-20"/>
<text text-anchor="middle" x="667.75" y="-6.5" font-family="Helvetica,sans-Serif" font-size="10.00">LibGraph2.h</text>
</a>
</g>
</g>
<!-- Node14&#45;&gt;Node15 -->
<g id="edge16_Node000014_Node000015" class="edge">
<title>Node14&#45;&gt;Node15</title>
<g id="a_edge16_Node000014_Node000015"><a xlink:title=" ">
<path fill="none" stroke="#63b8ff" d="M667.75,-55.59C667.75,-49.01 667.75,-39.96 667.75,-31.73"/>
<polygon fill="#63b8ff" stroke="#63b8ff" points="671.25,-31.81 667.75,-21.81 664.25,-31.81 671.25,-31.81"/>
</a>
</g>
</g>
<!-- Node19&#45;&gt;Node12 -->
<g id="edge25_Node000019_Node000012" class="edge">
<title>Node19&#45;&gt;Node12</title>
<g id="a_edge25_Node000019_Node000012"><a xlink:title=" ">
<path fill="none" stroke="#63b8ff" d="M369.6,-223.59C383.22,-215.51 403.11,-203.71 419.01,-194.27"/>
<polygon fill="#63b8ff" stroke="#63b8ff" points="420.66,-197.37 427.47,-189.25 417.09,-191.35 420.66,-197.37"/>
</a>
</g>
</g>
<!-- Node20&#45;&gt;Node12 -->
<g id="edge27_Node000020_Node000012" class="edge">
<title>Node20&#45;&gt;Node12</title>
<g id="a_edge27_Node000020_Node000012"><a xlink:title=" ">
<path fill="none" stroke="#63b8ff" d="M443.1,-223.59C443.34,-217.01 443.68,-207.96 443.98,-199.73"/>
<polygon fill="#63b8ff" stroke="#63b8ff" points="447.48,-199.93 444.35,-189.81 440.48,-199.67 447.48,-199.93"/>
</a>
</g>
</g>
</g>
</svg>

<g id="navigator" transform="translate(0 0)" fill="#404254">
  <rect fill="#f2f5e9" fill-opacity="0.5" stroke="#606060" stroke-width=".5" x="0" y="0" width="60" height="60"/>
  <use id="zoomplus" xlink:href="#zoomPlus" x="17" y="9" onmousedown="handleZoom(evt,'in')"/>
  <use id="zoomminus" xlink:href="#zoomMin" x="42" y="9" onmousedown="handleZoom(evt,'out')"/>
  <use id="reset" xlink:href="#resetDef" x="30" y="36" onmousedown="handleReset()"/>
   <use id="arrowup" xlink:href="#arrowUp" x="0" y="0" onmousedown="handlePan(0,-1)"/>
  <use id="arrowright" xlink:href="#arrowRight" x="0" y="0" onmousedown="handlePan(1,0)"/>
  <use id="arrowdown" xlink:href="#arrowDown" x="0" y="0" onmousedown="handlePan(0,1)"/>
  <use id="arrowleft" xlink:href="#arrowLeft" x="0" y="0" onmousedown="handlePan(-1,0)"/>
</g>
<svg viewBox="0 0 15 15" width="100%" height="30px" preserveAspectRatio="xMaxYMin meet">
 <g id="arrow_out" transform="scale(0.3 0.3)">
  <a xlink:href="prog_8cpp__incl_org.svg" target="_base">
   <rect id="button" ry="5" rx="5" y="6" x="6" height="38" width="38"
        fill="#f2f5e9" fill-opacity="0.5" stroke="#606060" stroke-width="1.0"/>
   <path id="arrow"
     d="M 11.500037,31.436501 C 11.940474,20.09759 22.043105,11.32322 32.158766,21.979434 L 37.068811,17.246167 C 37.068811,17.246167 37.088388,32 37.088388,32 L 22.160133,31.978069 C 22.160133,31.978069 26.997745,27.140456 26.997745,27.140456 C 18.528582,18.264221 13.291696,25.230495 11.500037,31.436501 z"
     style="fill:#404040;"/>
  </a>
 </g>
</svg>

<style type='text/css'>
<![CDATA[
[data-mouse-over-selected='false'] { opacity: 0.7; }
[data-mouse-over-selected='true']  { opacity: 1.0; }
]]>
</style>
<script type="application/ecmascript"><![CDATA[
document.addEventListener('DOMContentLoaded', (event) => {
  highlightEdges();
  highlightAdjacentNodes();
});
]]></script>
</svg>
