<?xml version="1.0" encoding="UTF-8" standalone="no"?>
<!DOCTYPE svg PUBLIC "-//W3C//DTD SVG 1.1//EN"
 "http://www.w3.org/Graphics/SVG/1.1/DTD/svg11.dtd">
<!-- Generated by graphviz version 10.0.1 (20240210.2158)
 -->
<!-- Title: vecteur2D.cpp Pages: 1 -->
<svg width="443pt" height="140pt"
 viewBox="0.00 0.00 442.50 140.00" xmlns="http://www.w3.org/2000/svg" xmlns:xlink="http://www.w3.org/1999/xlink">
<g id="graph0" class="graph" transform="scale(1 1) rotate(0) translate(4 136)">
<title>vecteur2D.cpp</title>
<!-- Node1 -->
<g id="Node000001" class="node">
<title>Node1</title>
<g id="a_Node000001"><a xlink:title="Définition de la classe CVecteur2D.">
<polygon fill="#999999" stroke="#666666" points="368.25,-132 290.75,-132 290.75,-112 368.25,-112 368.25,-132"/>
<text text-anchor="middle" x="329.5" y="-118.5" font-family="Helvetica,sans-Serif" font-size="10.00">vecteur2D.cpp</text>
</a>
</g>
</g>
<!-- Node2 -->
<g id="Node000002" class="node">
<title>Node2</title>
<g id="a_Node000002"><a xlink:href="_std_afx_8h.html" target="_top" xlink:title="Fichier de gestion des en&#45;têtes précompilées.">
<polygon fill="white" stroke="#666666" points="196.25,-76 142.75,-76 142.75,-56 196.25,-56 196.25,-76"/>
<text text-anchor="middle" x="169.5" y="-62.5" font-family="Helvetica,sans-Serif" font-size="10.00">StdAfx.h</text>
</a>
</g>
</g>
<!-- Node1&#45;&gt;Node2 -->
<g id="edge1_Node000001_Node000002" class="edge">
<title>Node1&#45;&gt;Node2</title>
<g id="a_edge1_Node000001_Node000002"><a xlink:title=" ">
<path fill="none" stroke="#63b8ff" d="M301.63,-111.59C275.43,-102.75 236.02,-89.45 207.06,-79.68"/>
<polygon fill="#63b8ff" stroke="#63b8ff" points="208.55,-76.48 197.95,-76.6 206.31,-83.12 208.55,-76.48"/>
</a>
</g>
</g>
<!-- Node7 -->
<g id="Node000007" class="node">
<title>Node7</title>
<g id="a_Node000007"><a xlink:href="vecteur2_d_8h.html" target="_top" xlink:title="Déclaration de la classe CVecteur2D.">
<polygon fill="white" stroke="#666666" points="332,-76 265,-76 265,-56 332,-56 332,-76"/>
<text text-anchor="middle" x="298.5" y="-62.5" font-family="Helvetica,sans-Serif" font-size="10.00">vecteur2D.h</text>
</a>
</g>
</g>
<!-- Node1&#45;&gt;Node7 -->
<g id="edge6_Node000001_Node000007" class="edge">
<title>Node1&#45;&gt;Node7</title>
<g id="a_edge6_Node000001_Node000007"><a xlink:title=" ">
<path fill="none" stroke="#63b8ff" d="M324.1,-111.59C320.06,-104.55 314.38,-94.67 309.41,-86"/>
<polygon fill="#63b8ff" stroke="#63b8ff" points="312.61,-84.54 304.59,-77.61 306.53,-88.03 312.61,-84.54"/>
</a>
</g>
</g>
<!-- Node9 -->
<g id="Node000009" class="node">
<title>Node9</title>
<g id="a_Node000009"><a xlink:title=" ">
<polygon fill="#e0e0e0" stroke="#999999" points="389.25,-20 335.75,-20 335.75,0 389.25,0 389.25,-20"/>
<text text-anchor="middle" x="362.5" y="-6.5" font-family="Helvetica,sans-Serif" font-size="10.00">iostream</text>
</a>
</g>
</g>
<!-- Node1&#45;&gt;Node9 -->
<g id="edge10_Node000001_Node000009" class="edge">
<title>Node1&#45;&gt;Node9</title>
<g id="a_edge10_Node000001_Node000009"><a xlink:title=" ">
<path fill="none" stroke="#63b8ff" d="M332.31,-111.62C337.62,-93.92 349.23,-55.24 356.4,-31.32"/>
<polygon fill="#63b8ff" stroke="#63b8ff" points="359.74,-32.39 359.26,-21.8 353.03,-30.38 359.74,-32.39"/>
</a>
</g>
</g>
<!-- Node10 -->
<g id="Node000010" class="node">
<title>Node10</title>
<g id="a_Node000010"><a xlink:title=" ">
<polygon fill="#e0e0e0" stroke="#999999" points="434.5,-76 388.5,-76 388.5,-56 434.5,-56 434.5,-76"/>
<text text-anchor="middle" x="411.5" y="-62.5" font-family="Helvetica,sans-Serif" font-size="10.00">math.h</text>
</a>
</g>
</g>
<!-- Node1&#45;&gt;Node10 -->
<g id="edge9_Node000001_Node000010" class="edge">
<title>Node1&#45;&gt;Node10</title>
<g id="a_edge9_Node000001_Node000010"><a xlink:title=" ">
<path fill="none" stroke="#63b8ff" d="M343.78,-111.59C355.94,-103.59 373.64,-91.93 387.9,-82.54"/>
<polygon fill="#63b8ff" stroke="#63b8ff" points="389.41,-85.73 395.84,-77.31 385.56,-79.89 389.41,-85.73"/>
</a>
</g>
</g>
<!-- Node3 -->
<g id="Node000003" class="node">
<title>Node3</title>
<g id="a_Node000003"><a xlink:title=" ">
<polygon fill="#e0e0e0" stroke="#999999" points="61,-20 0,-20 0,0 61,0 61,-20"/>
<text text-anchor="middle" x="30.5" y="-6.5" font-family="Helvetica,sans-Serif" font-size="10.00">windows.h</text>
</a>
</g>
</g>
<!-- Node2&#45;&gt;Node3 -->
<g id="edge2_Node000002_Node000003" class="edge">
<title>Node2&#45;&gt;Node3</title>
<g id="a_edge2_Node000002_Node000003"><a xlink:title=" ">
<path fill="none" stroke="#63b8ff" d="M145.29,-55.59C123.2,-47.01 90.3,-34.23 65.38,-24.55"/>
<polygon fill="#63b8ff" stroke="#63b8ff" points="66.9,-21.39 56.31,-21.03 64.37,-27.91 66.9,-21.39"/>
</a>
</g>
</g>
<!-- Node4 -->
<g id="Node000004" class="node">
<title>Node4</title>
<g id="a_Node000004"><a xlink:title=" ">
<polygon fill="#e0e0e0" stroke="#999999" points="126.25,-20 78.75,-20 78.75,0 126.25,0 126.25,-20"/>
<text text-anchor="middle" x="102.5" y="-6.5" font-family="Helvetica,sans-Serif" font-size="10.00">stdlib.h</text>
</a>
</g>
</g>
<!-- Node2&#45;&gt;Node4 -->
<g id="edge3_Node000002_Node000004" class="edge">
<title>Node2&#45;&gt;Node4</title>
<g id="a_edge3_Node000002_Node000004"><a xlink:title=" ">
<path fill="none" stroke="#63b8ff" d="M157.83,-55.59C148.22,-47.85 134.37,-36.69 122.93,-27.47"/>
<polygon fill="#63b8ff" stroke="#63b8ff" points="125.2,-24.8 115.22,-21.25 120.8,-30.25 125.2,-24.8"/>
</a>
</g>
</g>
<!-- Node5 -->
<g id="Node000005" class="node">
<title>Node5</title>
<g id="a_Node000005"><a xlink:title=" ">
<polygon fill="#e0e0e0" stroke="#999999" points="195.12,-20 143.88,-20 143.88,0 195.12,0 195.12,-20"/>
<text text-anchor="middle" x="169.5" y="-6.5" font-family="Helvetica,sans-Serif" font-size="10.00">crtdbg.h</text>
</a>
</g>
</g>
<!-- Node2&#45;&gt;Node5 -->
<g id="edge4_Node000002_Node000005" class="edge">
<title>Node2&#45;&gt;Node5</title>
<g id="a_edge4_Node000002_Node000005"><a xlink:title=" ">
<path fill="none" stroke="#63b8ff" d="M169.5,-55.59C169.5,-49.01 169.5,-39.96 169.5,-31.73"/>
<polygon fill="#63b8ff" stroke="#63b8ff" points="173,-31.81 169.5,-21.81 166,-31.81 173,-31.81"/>
</a>
</g>
</g>
<!-- Node6 -->
<g id="Node000006" class="node">
<title>Node6</title>
<g id="a_Node000006"><a xlink:title=" ">
<polygon fill="#e0e0e0" stroke="#999999" points="259.5,-20 213.5,-20 213.5,0 259.5,0 259.5,-20"/>
<text text-anchor="middle" x="236.5" y="-6.5" font-family="Helvetica,sans-Serif" font-size="10.00">tchar.h</text>
</a>
</g>
</g>
<!-- Node2&#45;&gt;Node6 -->
<g id="edge5_Node000002_Node000006" class="edge">
<title>Node2&#45;&gt;Node6</title>
<g id="a_edge5_Node000002_Node000006"><a xlink:title=" ">
<path fill="none" stroke="#63b8ff" d="M181.17,-55.59C190.78,-47.85 204.63,-36.69 216.07,-27.47"/>
<polygon fill="#63b8ff" stroke="#63b8ff" points="218.2,-30.25 223.78,-21.25 213.8,-24.8 218.2,-30.25"/>
</a>
</g>
</g>
<!-- Node8 -->
<g id="Node000008" class="node">
<title>Node8</title>
<g id="a_Node000008"><a xlink:title=" ">
<polygon fill="#e0e0e0" stroke="#999999" points="317.5,-20 277.5,-20 277.5,0 317.5,0 317.5,-20"/>
<text text-anchor="middle" x="297.5" y="-6.5" font-family="Helvetica,sans-Serif" font-size="10.00">string</text>
</a>
</g>
</g>
<!-- Node7&#45;&gt;Node8 -->
<g id="edge7_Node000007_Node000008" class="edge">
<title>Node7&#45;&gt;Node8</title>
<g id="a_edge7_Node000007_Node000008"><a xlink:title=" ">
<path fill="none" stroke="#63b8ff" d="M298.33,-55.59C298.2,-49.01 298.04,-39.96 297.88,-31.73"/>
<polygon fill="#63b8ff" stroke="#63b8ff" points="301.38,-31.75 297.7,-21.81 294.39,-31.87 301.38,-31.75"/>
</a>
</g>
</g>
<!-- Node7&#45;&gt;Node9 -->
<g id="edge8_Node000007_Node000009" class="edge">
<title>Node7&#45;&gt;Node9</title>
<g id="a_edge8_Node000007_Node000009"><a xlink:title=" ">
<path fill="none" stroke="#63b8ff" d="M309.65,-55.59C318.83,-47.85 332.05,-36.69 342.98,-27.47"/>
<polygon fill="#63b8ff" stroke="#63b8ff" points="344.94,-30.4 350.32,-21.27 340.42,-25.05 344.94,-30.4"/>
</a>
</g>
</g>
</g>
</svg>
