<?xml version="1.0" encoding="UTF-8" standalone="no"?>
<!DOCTYPE svg PUBLIC "-//W3C//DTD SVG 1.1//EN"
 "http://www.w3.org/Graphics/SVG/1.1/DTD/svg11.dtd">
<!-- Generated by graphviz version 10.0.1 (20240210.2158)
 -->
<!-- Title: vecteur2D.h Pages: 1 -->
<!--zoomable 308 -->

<svg id="main" version="1.1" xmlns="http://www.w3.org/2000/svg" xmlns:xlink="http://www.w3.org/1999/xlink" xml:space="preserve" onload="init(evt)">
<style type="text/css"><![CDATA[
.node, .edge {opacity: 0.7;}
.node.selected, .edge.selected {opacity: 1;}
.edge:hover path { stroke: red; }
.edge:hover polygon { stroke: red; fill: red; }
]]></style>

<defs>
  <circle id="rim" cx="0" cy="0" r="7"/>
  <circle id="rim2" cx="0" cy="0" r="3.5"/>
  <g id="zoomPlus">
    <use xlink:href="#rim" fill="#404040"><set attributeName="fill" to="#808080" begin="zoomplus.mouseover" end="zoomplus.mouseout"/></use>
    <path d="M-4,0h8M0,-4v8" fill="none" stroke="white" stroke-width="1.5" pointer-events="none"/>
  </g>
  <g id="zoomMin">
    <use xlink:href="#rim" fill="#404040"><set attributeName="fill" to="#808080" begin="zoomminus.mouseover" end="zoomminus.mouseout"/></use>
    <path d="M-4,0h8" fill="none" stroke="white" stroke-width="1.5" pointer-events="none"/>
  </g>
  <g id="arrowUp" transform="translate(30 24)">
    <use xlink:href="#rim"/>
    <path pointer-events="none" fill="none" stroke="white" stroke-width="1.5" d="M0,-3.0v7 M-2.5,-0.5L0,-3.0L2.5,-0.5"/>
  </g>
  <g id="arrowRight" transform="rotate(90) translate(36 -43)">
    <use xlink:href="#rim"/>
    <path pointer-events="none" fill="none" stroke="white" stroke-width="1.5" d="M0,-3.0v7 M-2.5,-0.5L0,-3.0L2.5,-0.5"/>
  </g>
  <g id="arrowDown" transform="rotate(180) translate(-30 -48)">
    <use xlink:href="#rim"/>
    <path pointer-events="none" fill="none" stroke="white" stroke-width="1.5" d="M0,-3.0v7 M-2.5,-0.5L0,-3.0L2.5,-0.5"/>
  </g>
  <g id="arrowLeft" transform="rotate(270) translate(-36 17)">
    <use xlink:href="#rim"/>
    <path pointer-events="none" fill="none" stroke="white" stroke-width="1.5" d="M0,-3.0v7 M-2.5,-0.5L0,-3.0L2.5,-0.5"/>
  </g>
  <g id="resetDef">
    <use xlink:href="#rim2" fill="#404040"><set attributeName="fill" to="#808080" begin="reset.mouseover" end="reset.mouseout"/></use>
  </g>
</defs>
<script type="application/ecmascript">
var viewWidth = 635;
var viewHeight = 308;
var sectionId = 'dynsection-1';
</script>
<script type="application/ecmascript" xlink:href="svg.min.js"/>
<svg id="graph" class="graph">
<g id="viewport">
<title>vecteur2D.h</title>
<!-- Node1 -->
<g id="Node000001" class="node">
<title>Node1</title>
<g id="a_Node000001"><a xlink:title="Déclaration de la classe CVecteur2D.">
<polygon fill="#999999" stroke="#666666" points="357.88,-300 290.88,-300 290.88,-280 357.88,-280 357.88,-300"/>
<text text-anchor="middle" x="324.38" y="-286.5" font-family="Helvetica,sans-Serif" font-size="10.00">vecteur2D.h</text>
</a>
</g>
</g>
<!-- Node2 -->
<g id="Node000002" class="node">
<title>Node2</title>
<g id="a_Node000002"><a xlink:href="_clock_8h.html" target="_top" xlink:title="Déclaration de la classe CClock.">
<polygon fill="white" stroke="#666666" points="294.88,-188 245.88,-188 245.88,-168 294.88,-168 294.88,-188"/>
<text text-anchor="middle" x="270.38" y="-174.5" font-family="Helvetica,sans-Serif" font-size="10.00">Clock.h</text>
</a>
</g>
</g>
<!-- Node1&#45;&gt;Node2 -->
<g id="edge1_Node000001_Node000002" class="edge">
<title>Node1&#45;&gt;Node2</title>
<g id="a_edge1_Node000001_Node000002"><a xlink:title=" ">
<path fill="none" stroke="#63b8ff" d="M312.08,-269.91C307.23,-262.04 301.77,-252.72 297.38,-244 287.69,-224.8 278.56,-201.28 273.8,-188.45"/>
<polygon fill="#63b8ff" stroke="#63b8ff" points="309.06,-271.7 317.36,-278.29 314.99,-267.97 309.06,-271.7"/>
</a>
</g>
</g>
<!-- Node5 -->
<g id="Node000005" class="node">
<title>Node5</title>
<g id="a_Node000005"><a xlink:href="_t_p_8h.html" target="_top" xlink:title="Déclaration de la classe CTP.">
<polygon fill="white" stroke="#666666" points="41.5,-76 5.25,-76 5.25,-56 41.5,-56 41.5,-76"/>
<text text-anchor="middle" x="23.38" y="-62.5" font-family="Helvetica,sans-Serif" font-size="10.00">TP.h</text>
</a>
</g>
</g>
<!-- Node1&#45;&gt;Node5 -->
<g id="edge19_Node000001_Node000005" class="edge">
<title>Node1&#45;&gt;Node5</title>
<g id="a_edge19_Node000001_Node000005"><a xlink:title=" ">
<path fill="none" stroke="#63b8ff" d="M287.91,-275.54C243.08,-258.26 165.42,-225.94 104.38,-188 70.83,-167.15 55.54,-165.96 35.38,-132 24.83,-114.24 23.18,-89.32 23.13,-76.09"/>
<polygon fill="#63b8ff" stroke="#63b8ff" points="286.57,-278.77 297.16,-279.06 289.06,-272.23 286.57,-278.77"/>
</a>
</g>
</g>
<!-- Node7 -->
<g id="Node000007" class="node">
<title>Node7</title>
<g id="a_Node000007"><a xlink:href="prog_8cpp.html" target="_top" xlink:title="Programme principal.">
<polygon fill="white" stroke="#666666" points="298.12,-20 244.62,-20 244.62,0 298.12,0 298.12,-20"/>
<text text-anchor="middle" x="271.38" y="-6.5" font-family="Helvetica,sans-Serif" font-size="10.00">prog.cpp</text>
</a>
</g>
</g>
<!-- Node1&#45;&gt;Node7 -->
<g id="edge25_Node000001_Node000007" class="edge">
<title>Node1&#45;&gt;Node7</title>
<g id="a_edge25_Node000001_Node000007"><a xlink:title=" ">
<path fill="none" stroke="#63b8ff" d="M369.35,-283.8C427.5,-274.29 521.38,-248.22 521.38,-179 521.38,-179 521.38,-179 521.38,-121 521.38,-90.9 524.61,-76.28 502.38,-56 472.79,-29.02 353.1,-16.97 298.62,-12.81"/>
<polygon fill="#63b8ff" stroke="#63b8ff" points="369.1,-280.3 359.74,-285.26 370.15,-287.22 369.1,-280.3"/>
</a>
</g>
</g>
<!-- Node14 -->
<g id="Node000014" class="node">
<title>Node14</title>
<g id="a_Node000014"><a xlink:href="gui_8h.html" target="_top" xlink:title="Déclaration de la classe CGUI.">
<polygon fill="white" stroke="#666666" points="342.88,-244 305.88,-244 305.88,-224 342.88,-224 342.88,-244"/>
<text text-anchor="middle" x="324.38" y="-230.5" font-family="Helvetica,sans-Serif" font-size="10.00">gui.h</text>
</a>
</g>
</g>
<!-- Node1&#45;&gt;Node14 -->
<g id="edge20_Node000001_Node000014" class="edge">
<title>Node1&#45;&gt;Node14</title>
<g id="a_edge20_Node000001_Node000014"><a xlink:title=" ">
<path fill="none" stroke="#63b8ff" d="M324.38,-268.13C324.38,-259.9 324.38,-250.85 324.38,-244.3"/>
<polygon fill="#63b8ff" stroke="#63b8ff" points="320.88,-268.08 324.38,-278.08 327.88,-268.08 320.88,-268.08"/>
</a>
</g>
</g>
<!-- Node15 -->
<g id="Node000015" class="node">
<title>Node15</title>
<g id="a_Node000015"><a xlink:href="vecteur2_d_8cpp.html" target="_top" xlink:title="Définition de la classe CVecteur2D.">
<polygon fill="white" stroke="#666666" points="627.12,-244 549.62,-244 549.62,-224 627.12,-224 627.12,-244"/>
<text text-anchor="middle" x="588.38" y="-230.5" font-family="Helvetica,sans-Serif" font-size="10.00">vecteur2D.cpp</text>
</a>
</g>
</g>
<!-- Node1&#45;&gt;Node15 -->
<g id="edge26_Node000001_Node000015" class="edge">
<title>Node1&#45;&gt;Node15</title>
<g id="a_edge26_Node000001_Node000015"><a xlink:title=" ">
<path fill="none" stroke="#63b8ff" d="M369.59,-279.75C420.22,-269.39 501.44,-252.78 549.39,-242.98"/>
<polygon fill="#63b8ff" stroke="#63b8ff" points="368.93,-276.31 359.83,-281.75 370.33,-283.17 368.93,-276.31"/>
</a>
</g>
</g>
<!-- Node3 -->
<g id="Node000003" class="node">
<title>Node3</title>
<g id="a_Node000003"><a xlink:href="_auto_clock_8h.html" target="_top" xlink:title="Déclaration de la classe CAutoClock.">
<polygon fill="white" stroke="#666666" points="210,-132 140.75,-132 140.75,-112 210,-112 210,-132"/>
<text text-anchor="middle" x="175.38" y="-118.5" font-family="Helvetica,sans-Serif" font-size="10.00">AutoClock.h</text>
</a>
</g>
</g>
<!-- Node2&#45;&gt;Node3 -->
<g id="edge2_Node000002_Node000003" class="edge">
<title>Node2&#45;&gt;Node3</title>
<g id="a_edge2_Node000002_Node000003"><a xlink:title=" ">
<path fill="none" stroke="#63b8ff" d="M244.13,-162.08C227.48,-152.62 206.44,-140.66 192.05,-132.48"/>
<polygon fill="#63b8ff" stroke="#63b8ff" points="242.09,-164.95 252.51,-166.85 245.55,-158.86 242.09,-164.95"/>
</a>
</g>
</g>
<!-- Node9 -->
<g id="Node000009" class="node">
<title>Node9</title>
<g id="a_Node000009"><a xlink:href="_clock_8cpp.html" target="_top" xlink:title="Définition de la classe CClock.">
<polygon fill="white" stroke="#666666" points="123.12,-132 63.62,-132 63.62,-112 123.12,-112 123.12,-132"/>
<text text-anchor="middle" x="93.38" y="-118.5" font-family="Helvetica,sans-Serif" font-size="10.00">Clock.cpp</text>
</a>
</g>
</g>
<!-- Node2&#45;&gt;Node9 -->
<g id="edge9_Node000002_Node000009" class="edge">
<title>Node2&#45;&gt;Node9</title>
<g id="a_edge9_Node000002_Node000009"><a xlink:title=" ">
<path fill="none" stroke="#63b8ff" d="M234.53,-166.06C201.91,-156.11 154.29,-141.58 123.56,-132.21"/>
<polygon fill="#63b8ff" stroke="#63b8ff" points="233.36,-169.37 243.94,-168.94 235.4,-162.67 233.36,-169.37"/>
</a>
</g>
</g>
<!-- Node10 -->
<g id="Node000010" class="node">
<title>Node10</title>
<g id="a_Node000010"><a xlink:href="_mech_clock_8h.html" target="_top" xlink:title="Déclaration de la classe CMechClock.">
<polygon fill="white" stroke="#666666" points="300.88,-132 227.88,-132 227.88,-112 300.88,-112 300.88,-132"/>
<text text-anchor="middle" x="264.38" y="-118.5" font-family="Helvetica,sans-Serif" font-size="10.00">MechClock.h</text>
</a>
</g>
</g>
<!-- Node2&#45;&gt;Node10 -->
<g id="edge10_Node000002_Node000010" class="edge">
<title>Node2&#45;&gt;Node10</title>
<g id="a_edge10_Node000002_Node000010"><a xlink:title=" ">
<path fill="none" stroke="#63b8ff" d="M268.09,-156.43C267.16,-148.11 266.15,-138.93 265.41,-132.3"/>
<polygon fill="#63b8ff" stroke="#63b8ff" points="264.58,-156.54 269.16,-166.09 271.54,-155.76 264.58,-156.54"/>
</a>
</g>
</g>
<!-- Node12 -->
<g id="Node000012" class="node">
<title>Node12</title>
<g id="a_Node000012"><a xlink:href="_wall_8h.html" target="_top" xlink:title="Déclaration de la classe CWall.">
<polygon fill="white" stroke="#666666" points="401.25,-132 357.5,-132 357.5,-112 401.25,-112 401.25,-132"/>
<text text-anchor="middle" x="379.38" y="-118.5" font-family="Helvetica,sans-Serif" font-size="10.00">Wall.h</text>
</a>
</g>
</g>
<!-- Node2&#45;&gt;Node12 -->
<g id="edge15_Node000002_Node000012" class="edge">
<title>Node2&#45;&gt;Node12</title>
<g id="a_edge15_Node000002_Node000012"><a xlink:title=" ">
<path fill="none" stroke="#63b8ff" d="M299.42,-162.61C318.68,-153.07 343.42,-140.81 360.24,-132.48"/>
<polygon fill="#63b8ff" stroke="#63b8ff" points="298.12,-159.35 290.72,-166.92 301.23,-165.62 298.12,-159.35"/>
</a>
</g>
</g>
<!-- Node4 -->
<g id="Node000004" class="node">
<title>Node4</title>
<g id="a_Node000004"><a xlink:href="_auto_clock_8cpp.html" target="_top" xlink:title="Définition de la classe CAutoClock.">
<polygon fill="white" stroke="#666666" points="139.25,-76 59.5,-76 59.5,-56 139.25,-56 139.25,-76"/>
<text text-anchor="middle" x="99.38" y="-62.5" font-family="Helvetica,sans-Serif" font-size="10.00">AutoClock.cpp</text>
</a>
</g>
</g>
<!-- Node3&#45;&gt;Node4 -->
<g id="edge3_Node000003_Node000004" class="edge">
<title>Node3&#45;&gt;Node4</title>
<g id="a_edge3_Node000003_Node000004"><a xlink:title=" ">
<path fill="none" stroke="#63b8ff" d="M152.85,-105C139.8,-95.72 123.8,-84.35 112.72,-76.48"/>
<polygon fill="#63b8ff" stroke="#63b8ff" points="150.72,-107.78 160.9,-110.72 154.78,-102.07 150.72,-107.78"/>
</a>
</g>
</g>
<!-- Node3&#45;&gt;Node5 -->
<g id="edge4_Node000003_Node000005" class="edge">
<title>Node3&#45;&gt;Node5</title>
<g id="a_edge4_Node000003_Node000005"><a xlink:title=" ">
<path fill="none" stroke="#63b8ff" d="M138.22,-107.8C107.7,-96.96 65.73,-82.05 41.9,-73.58"/>
<polygon fill="#63b8ff" stroke="#63b8ff" points="136.88,-111.04 147.47,-111.09 139.22,-104.44 136.88,-111.04"/>
</a>
</g>
</g>
<!-- Node3&#45;&gt;Node7 -->
<g id="edge8_Node000003_Node000007" class="edge">
<title>Node3&#45;&gt;Node7</title>
<g id="a_edge8_Node000003_Node000007"><a xlink:title=" ">
<path fill="none" stroke="#63b8ff" d="M174.34,-100.4C174.66,-86.64 177.14,-68.78 186.38,-56 200.36,-36.65 225.24,-24.87 244.49,-18.25"/>
<polygon fill="#63b8ff" stroke="#63b8ff" points="170.83,-100.17 174.49,-110.12 177.83,-100.06 170.83,-100.17"/>
</a>
</g>
</g>
<!-- Node8 -->
<g id="Node000008" class="node">
<title>Node8</title>
<g id="a_Node000008"><a xlink:href="gui_8cpp.html" target="_top" xlink:title="Définition de la classe CGUI.">
<polygon fill="white" stroke="#666666" points="243.12,-76 195.62,-76 195.62,-56 243.12,-56 243.12,-76"/>
<text text-anchor="middle" x="219.38" y="-62.5" font-family="Helvetica,sans-Serif" font-size="10.00">gui.cpp</text>
</a>
</g>
</g>
<!-- Node3&#45;&gt;Node8 -->
<g id="edge7_Node000003_Node000008" class="edge">
<title>Node3&#45;&gt;Node8</title>
<g id="a_edge7_Node000003_Node000008"><a xlink:title=" ">
<path fill="none" stroke="#63b8ff" d="M190.27,-102.72C197.51,-93.84 205.89,-83.55 211.8,-76.3"/>
<polygon fill="#63b8ff" stroke="#63b8ff" points="187.6,-100.46 184,-110.42 193.03,-104.88 187.6,-100.46"/>
</a>
</g>
</g>
<!-- Node6 -->
<g id="Node000006" class="node">
<title>Node6</title>
<g id="a_Node000006"><a xlink:href="_t_p_8cpp.html" target="_top" xlink:title="Définition de la classe CTP.">
<polygon fill="white" stroke="#666666" points="46.75,-20 0,-20 0,0 46.75,0 46.75,-20"/>
<text text-anchor="middle" x="23.38" y="-6.5" font-family="Helvetica,sans-Serif" font-size="10.00">TP.cpp</text>
</a>
</g>
</g>
<!-- Node5&#45;&gt;Node6 -->
<g id="edge5_Node000005_Node000006" class="edge">
<title>Node5&#45;&gt;Node6</title>
<g id="a_edge5_Node000005_Node000006"><a xlink:title=" ">
<path fill="none" stroke="#63b8ff" d="M23.38,-44.13C23.38,-35.9 23.38,-26.85 23.38,-20.3"/>
<polygon fill="#63b8ff" stroke="#63b8ff" points="19.88,-44.08 23.38,-54.08 26.88,-44.08 19.88,-44.08"/>
</a>
</g>
</g>
<!-- Node5&#45;&gt;Node7 -->
<g id="edge6_Node000005_Node000007" class="edge">
<title>Node5&#45;&gt;Node7</title>
<g id="a_edge6_Node000005_Node000007"><a xlink:title=" ">
<path fill="none" stroke="#63b8ff" d="M52.81,-55.6C127.09,-36.15 204.3,-22.2 244.25,-15.43"/>
<polygon fill="#63b8ff" stroke="#63b8ff" points="52.1,-52.16 43.34,-58.12 53.9,-58.93 52.1,-52.16"/>
</a>
</g>
</g>
<!-- Node10&#45;&gt;Node5 -->
<g id="edge12_Node000010_Node000005" class="edge">
<title>Node10&#45;&gt;Node5</title>
<g id="a_edge12_Node000010_Node000005"><a xlink:title=" ">
<path fill="none" stroke="#63b8ff" d="M216.44,-111.22C158.35,-99.33 66.22,-80.29 50.38,-76 47.61,-75.25 44.71,-74.38 41.88,-73.48"/>
<polygon fill="#63b8ff" stroke="#63b8ff" points="215.59,-114.62 226.09,-113.2 217,-107.76 215.59,-114.62"/>
</a>
</g>
</g>
<!-- Node10&#45;&gt;Node7 -->
<g id="edge14_Node000010_Node000007" class="edge">
<title>Node10&#45;&gt;Node7</title>
<g id="a_edge14_Node000010_Node000007"><a xlink:title=" ">
<path fill="none" stroke="#63b8ff" d="M265.69,-100.31C267.22,-76.36 269.66,-37.95 270.78,-20.35"/>
<polygon fill="#63b8ff" stroke="#63b8ff" points="262.21,-99.91 265.07,-110.11 269.2,-100.35 262.21,-99.91"/>
</a>
</g>
</g>
<!-- Node10&#45;&gt;Node8 -->
<g id="edge13_Node000010_Node000008" class="edge">
<title>Node10&#45;&gt;Node8</title>
<g id="a_edge13_Node000010_Node000008"><a xlink:title=" ">
<path fill="none" stroke="#63b8ff" d="M249.38,-103C241.92,-94.06 233.23,-83.62 227.12,-76.3"/>
<polygon fill="#63b8ff" stroke="#63b8ff" points="246.48,-104.99 255.57,-110.43 251.85,-100.51 246.48,-104.99"/>
</a>
</g>
</g>
<!-- Node11 -->
<g id="Node000011" class="node">
<title>Node11</title>
<g id="a_Node000011"><a xlink:href="_mech_clock_8cpp.html" target="_top" xlink:title="Définition de la classe CMechClock.">
<polygon fill="white" stroke="#666666" points="383.12,-76 299.62,-76 299.62,-56 383.12,-56 383.12,-76"/>
<text text-anchor="middle" x="341.38" y="-62.5" font-family="Helvetica,sans-Serif" font-size="10.00">MechClock.cpp</text>
</a>
</g>
</g>
<!-- Node10&#45;&gt;Node11 -->
<g id="edge11_Node000010_Node000011" class="edge">
<title>Node10&#45;&gt;Node11</title>
<g id="a_edge11_Node000010_Node000011"><a xlink:title=" ">
<path fill="none" stroke="#63b8ff" d="M287.19,-105C300.42,-95.72 316.63,-84.35 327.86,-76.48"/>
<polygon fill="#63b8ff" stroke="#63b8ff" points="285.2,-102.12 279.03,-110.72 289.22,-107.85 285.2,-102.12"/>
</a>
</g>
</g>
<!-- Node12&#45;&gt;Node5 -->
<g id="edge16_Node000012_Node000005" class="edge">
<title>Node12&#45;&gt;Node5</title>
<g id="a_edge16_Node000012_Node000005"><a xlink:title=" ">
<path fill="none" stroke="#63b8ff" d="M346.47,-116.67C265.99,-106.05 64.72,-79.34 50.38,-76 47.58,-75.35 44.67,-74.53 41.84,-73.66"/>
<polygon fill="#63b8ff" stroke="#63b8ff" points="345.55,-120.08 355.93,-117.91 346.47,-113.14 345.55,-120.08"/>
</a>
</g>
</g>
<!-- Node12&#45;&gt;Node7 -->
<g id="edge18_Node000012_Node000007" class="edge">
<title>Node12&#45;&gt;Node7</title>
<g id="a_edge18_Node000012_Node000007"><a xlink:title=" ">
<path fill="none" stroke="#63b8ff" d="M390.36,-101.8C396.68,-87.96 401.7,-69.42 392.38,-56 371.27,-25.63 327.1,-15.72 298.37,-12.5"/>
<polygon fill="#63b8ff" stroke="#63b8ff" points="387.41,-99.87 385.95,-110.37 393.64,-103.08 387.41,-99.87"/>
</a>
</g>
</g>
<!-- Node13 -->
<g id="Node000013" class="node">
<title>Node13</title>
<g id="a_Node000013"><a xlink:href="_wall_8cpp.html" target="_top" xlink:title="Définition de la classe CWall.">
<polygon fill="white" stroke="#666666" points="493.5,-76 439.25,-76 439.25,-56 493.5,-56 493.5,-76"/>
<text text-anchor="middle" x="466.38" y="-62.5" font-family="Helvetica,sans-Serif" font-size="10.00">Wall.cpp</text>
</a>
</g>
</g>
<!-- Node12&#45;&gt;Node13 -->
<g id="edge17_Node000012_Node000013" class="edge">
<title>Node12&#45;&gt;Node13</title>
<g id="a_edge17_Node000012_Node000013"><a xlink:title=" ">
<path fill="none" stroke="#63b8ff" d="M404.28,-105.54C419.38,-96.17 438.17,-84.51 451.1,-76.48"/>
<polygon fill="#63b8ff" stroke="#63b8ff" points="402.47,-102.55 395.82,-110.8 406.16,-108.5 402.47,-102.55"/>
</a>
</g>
</g>
<!-- Node14&#45;&gt;Node2 -->
<g id="edge21_Node000014_Node000002" class="edge">
<title>Node14&#45;&gt;Node2</title>
<g id="a_edge21_Node000014_Node000002"><a xlink:title=" ">
<path fill="none" stroke="#63b8ff" d="M306.94,-215.57C297.87,-206.5 287.15,-195.78 279.67,-188.3"/>
<polygon fill="#63b8ff" stroke="#63b8ff" points="304.35,-217.93 313.9,-222.52 309.3,-212.98 304.35,-217.93"/>
</a>
</g>
</g>
<!-- Node14&#45;&gt;Node5 -->
<g id="edge22_Node000014_Node000005" class="edge">
<title>Node14&#45;&gt;Node5</title>
<g id="a_edge22_Node000014_Node000005"><a xlink:title=" ">
<path fill="none" stroke="#63b8ff" d="M294.27,-229.21C239.96,-220.91 124.69,-196.45 54.38,-132 37.6,-116.63 29.01,-90.26 25.44,-76.3"/>
<polygon fill="#63b8ff" stroke="#63b8ff" points="293.61,-232.65 304,-230.61 294.6,-225.72 293.61,-232.65"/>
</a>
</g>
</g>
<!-- Node14&#45;&gt;Node8 -->
<g id="edge24_Node000014_Node000008" class="edge">
<title>Node14&#45;&gt;Node8</title>
<g id="a_edge24_Node000014_Node000008"><a xlink:title=" ">
<path fill="none" stroke="#63b8ff" d="M327.57,-212.44C330.43,-186.56 331.41,-141.88 310.38,-112 294.65,-89.66 264.61,-77.88 243.35,-72.06"/>
<polygon fill="#63b8ff" stroke="#63b8ff" points="324.1,-211.91 326.25,-222.28 331.04,-212.83 324.1,-211.91"/>
</a>
</g>
</g>
<!-- Node14&#45;&gt;Node12 -->
<g id="edge23_Node000014_Node000012" class="edge">
<title>Node14&#45;&gt;Node12</title>
<g id="a_edge23_Node000014_Node000012"><a xlink:title=" ">
<path fill="none" stroke="#63b8ff" d="M334.06,-213.62C345.98,-189.78 365.74,-150.28 374.7,-132.35"/>
<polygon fill="#63b8ff" stroke="#63b8ff" points="331.08,-211.76 329.74,-222.27 337.34,-214.89 331.08,-211.76"/>
</a>
</g>
</g>
</g>
</svg>

<g id="navigator" transform="translate(0 0)" fill="#404254">
  <rect fill="#f2f5e9" fill-opacity="0.5" stroke="#606060" stroke-width=".5" x="0" y="0" width="60" height="60"/>
  <use id="zoomplus" xlink:href="#zoomPlus" x="17" y="9" onmousedown="handleZoom(evt,'in')"/>
  <use id="zoomminus" xlink:href="#zoomMin" x="42" y="9" onmousedown="handleZoom(evt,'out')"/>
  <use id="reset" xlink:href="#resetDef" x="30" y="36" onmousedown="handleReset()"/>
   <use id="arrowup" xlink:href="#arrowUp" x="0" y="0" onmousedown="handlePan(0,-1)"/>
  <use id="arrowright" xlink:href="#arrowRight" x="0" y="0" onmousedown="handlePan(1,0)"/>
  <use id="arrowdown" xlink:href="#arrowDown" x="0" y="0" onmousedown="handlePan(0,1)"/>
  <use id="arrowleft" xlink:href="#arrowLeft" x="0" y="0" onmousedown="handlePan(-1,0)"/>
</g>
<svg viewBox="0 0 15 15" width="100%" height="30px" preserveAspectRatio="xMaxYMin meet">
 <g id="arrow_out" transform="scale(0.3 0.3)">
  <a xlink:href="vecteur2_d_8h__dep__incl_org.svg" target="_base">
   <rect id="button" ry="5" rx="5" y="6" x="6" height="38" width="38"
        fill="#f2f5e9" fill-opacity="0.5" stroke="#606060" stroke-width="1.0"/>
   <path id="arrow"
     d="M 11.500037,31.436501 C 11.940474,20.09759 22.043105,11.32322 32.158766,21.979434 L 37.068811,17.246167 C 37.068811,17.246167 37.088388,32 37.088388,32 L 22.160133,31.978069 C 22.160133,31.978069 26.997745,27.140456 26.997745,27.140456 C 18.528582,18.264221 13.291696,25.230495 11.500037,31.436501 z"
     style="fill:#404040;"/>
  </a>
 </g>
</svg>

<style type='text/css'>
<![CDATA[
[data-mouse-over-selected='false'] { opacity: 0.7; }
[data-mouse-over-selected='true']  { opacity: 1.0; }
]]>
</style>
<script type="application/ecmascript"><![CDATA[
document.addEventListener('DOMContentLoaded', (event) => {
  highlightEdges();
  highlightAdjacentNodes();
});
]]></script>
</svg>
